<?xml version="1.0" encoding="UTF-8"?>
<svg version="1.1" xmlns="http://www.w3.org/2000/svg" width="512" height="512">
<path d="M0 0 C2.07065193 -0.00570839 4.14130072 -0.01267446 6.21194458 -0.02079773 C11.81533086 -0.03869287 17.41856022 -0.03756751 23.02196646 -0.03185534 C27.70867759 -0.02875805 32.39535883 -0.034862 37.0820657 -0.04089409 C48.14327759 -0.05492592 59.20441223 -0.05338934 70.265625 -0.04199219 C81.65710238 -0.03051373 93.04834425 -0.04458526 104.43979061 -0.07138866 C114.23884161 -0.09357757 124.03781887 -0.1001758 133.8368932 -0.09431225 C139.68118438 -0.09094896 145.52532464 -0.09331605 151.36959457 -0.11056328 C156.86744139 -0.12608101 162.36494057 -0.12202321 167.8627739 -0.10325813 C169.87343786 -0.09958555 171.88412787 -0.10264163 173.89476776 -0.11314392 C191.40919203 -0.19760071 204.10358308 2.43200611 217.34423828 14.71655273 C227.33714866 25.27509955 230.10863609 36.82233197 230.01391602 50.93432617 C229.60313572 65.05671512 223.75711928 76.13271 213.53173828 85.81030273 C200.48484536 96.54242433 187.31712976 96.84825153 171.18847656 96.80810547 C169.11782463 96.81381386 167.04717585 96.82077993 164.97653198 96.8289032 C159.3731457 96.84679834 153.76991634 96.84567298 148.16651011 96.83996081 C143.47979897 96.83686352 138.79311773 96.84296747 134.10641086 96.84899956 C123.04519897 96.86303139 111.98406433 96.86149481 100.92285156 96.85009766 C89.53137418 96.8386192 78.14013231 96.85269073 66.74868596 96.87949413 C56.94963495 96.90168304 47.1506577 96.90828126 37.35158336 96.90241772 C31.50729218 96.89905442 25.66315192 96.90142151 19.81888199 96.91866875 C14.32103517 96.93418648 8.82353599 96.93012868 3.32570267 96.9113636 C1.3150387 96.90769102 -0.6956513 96.9107471 -2.7062912 96.92124939 C-20.22071547 97.00570618 -32.91510651 94.37609936 -46.15576172 82.09155273 C-56.1486721 71.53300592 -58.92015953 59.9857735 -58.82543945 45.8737793 C-58.41465915 31.75139035 -52.56864272 20.67539547 -42.34326172 10.99780273 C-29.2963688 0.26568114 -16.1286532 -0.04014606 0 0 Z " fill="#48C8EF" transform="translate(282.40576171875,373.595947265625)"/>
<path d="M0 0 C2.07065193 -0.00570839 4.14130072 -0.01267446 6.21194458 -0.02079773 C11.81533086 -0.03869287 17.41856022 -0.03756751 23.02196646 -0.03185534 C27.70867759 -0.02875805 32.39535883 -0.034862 37.0820657 -0.04089409 C48.14327759 -0.05492592 59.20441223 -0.05338934 70.265625 -0.04199219 C81.65710238 -0.03051373 93.04834425 -0.04458526 104.43979061 -0.07138866 C114.23884161 -0.09357757 124.03781887 -0.1001758 133.8368932 -0.09431225 C139.68118438 -0.09094896 145.52532464 -0.09331605 151.36959457 -0.11056328 C156.86744139 -0.12608101 162.36494057 -0.12202321 167.8627739 -0.10325813 C169.87343786 -0.09958555 171.88412787 -0.10264163 173.89476776 -0.11314392 C191.40919203 -0.19760071 204.10358308 2.43200611 217.34423828 14.71655273 C227.33714866 25.27509955 230.10863609 36.82233197 230.01391602 50.93432617 C229.60313572 65.05671512 223.75711928 76.13271 213.53173828 85.81030273 C200.48484536 96.54242433 187.31712976 96.84825153 171.18847656 96.80810547 C169.11782463 96.81381386 167.04717585 96.82077993 164.97653198 96.8289032 C159.3731457 96.84679834 153.76991634 96.84567298 148.16651011 96.83996081 C143.47979897 96.83686352 138.79311773 96.84296747 134.10641086 96.84899956 C123.04519897 96.86303139 111.98406433 96.86149481 100.92285156 96.85009766 C89.53137418 96.8386192 78.14013231 96.85269073 66.74868596 96.87949413 C56.94963495 96.90168304 47.1506577 96.90828126 37.35158336 96.90241772 C31.50729218 96.89905442 25.66315192 96.90142151 19.81888199 96.91866875 C14.32103517 96.93418648 8.82353599 96.93012868 3.32570267 96.9113636 C1.3150387 96.90769102 -0.6956513 96.9107471 -2.7062912 96.92124939 C-20.22071547 97.00570618 -32.91510651 94.37609936 -46.15576172 82.09155273 C-56.1486721 71.53300592 -58.92015953 59.9857735 -58.82543945 45.8737793 C-58.41465915 31.75139035 -52.56864272 20.67539547 -42.34326172 10.99780273 C-29.2963688 0.26568114 -16.1286532 -0.04014606 0 0 Z " fill="#76959E" transform="translate(282.40576171875,197.595947265625)"/>
<path d="M0 0 C2.07065193 -0.00570839 4.14130072 -0.01267446 6.21194458 -0.02079773 C11.81533086 -0.03869287 17.41856022 -0.03756751 23.02196646 -0.03185534 C27.70867759 -0.02875805 32.39535883 -0.034862 37.0820657 -0.04089409 C48.14327759 -0.05492592 59.20441223 -0.05338934 70.265625 -0.04199219 C81.65710238 -0.03051373 93.04834425 -0.04458526 104.43979061 -0.07138866 C114.23884161 -0.09357757 124.03781887 -0.1001758 133.8368932 -0.09431225 C139.68118438 -0.09094896 145.52532464 -0.09331605 151.36959457 -0.11056328 C156.86744139 -0.12608101 162.36494057 -0.12202321 167.8627739 -0.10325813 C169.87343786 -0.09958555 171.88412787 -0.10264163 173.89476776 -0.11314392 C191.40919203 -0.19760071 204.10358308 2.43200611 217.34423828 14.71655273 C227.33714866 25.27509955 230.10863609 36.82233197 230.01391602 50.93432617 C229.60313572 65.05671512 223.75711928 76.13271 213.53173828 85.81030273 C200.48484536 96.54242433 187.31712976 96.84825153 171.18847656 96.80810547 C169.11782463 96.81381386 167.04717585 96.82077993 164.97653198 96.8289032 C159.3731457 96.84679834 153.76991634 96.84567298 148.16651011 96.83996081 C143.47979897 96.83686352 138.79311773 96.84296747 134.10641086 96.84899956 C123.04519897 96.86303139 111.98406433 96.86149481 100.92285156 96.85009766 C89.53137418 96.8386192 78.14013231 96.85269073 66.74868596 96.87949413 C56.94963495 96.90168304 47.1506577 96.90828126 37.35158336 96.90241772 C31.50729218 96.89905442 25.66315192 96.90142151 19.81888199 96.91866875 C14.32103517 96.93418648 8.82353599 96.93012868 3.32570267 96.9113636 C1.3150387 96.90769102 -0.6956513 96.9107471 -2.7062912 96.92124939 C-20.22071547 97.00570618 -32.91510651 94.37609936 -46.15576172 82.09155273 C-56.1486721 71.53300592 -58.92015953 59.9857735 -58.82543945 45.8737793 C-58.41465915 31.75139035 -52.56864272 20.67539547 -42.34326172 10.99780273 C-29.2963688 0.26568114 -16.1286532 -0.04014606 0 0 Z " fill="#62808C" transform="translate(282.40576171875,21.595947265625)"/>
<path d="M0 0 C2.14438118 3.78574529 4.28036818 7.57606378 6.40869141 11.37084961 C7.1339375 12.66120356 7.86146434 13.95027836 8.59130859 15.23803711 C9.6398132 17.08896871 10.68003714 18.94434121 11.71875 20.80078125 C12.34716797 21.91622314 12.97558594 23.03166504 13.62304688 24.1809082 C15 27 15 27 15 30 C12.91015625 31.54296875 12.91015625 31.54296875 10.0625 33.1875 C-8.72109031 44.73183208 -18.75107223 62.25730272 -24.2734375 83.07421875 C-26.21197679 93.54858425 -26.14940863 104.16400499 -26.14526367 114.7800293 C-26.14826301 116.33055196 -26.1516673 117.88107388 -26.15544128 119.43159485 C-26.16420711 123.60958245 -26.16661626 127.78754951 -26.16725707 131.96554542 C-26.16797185 134.58559677 -26.17011423 137.20564305 -26.17275429 139.82569313 C-26.1819835 148.99406892 -26.18609226 158.16243026 -26.18530273 167.33081055 C-26.18470275 175.83199445 -26.19524531 184.33311475 -26.2110464 192.83428258 C-26.22418892 200.17061363 -26.22948383 207.50692407 -26.22884732 214.84326679 C-26.22859429 219.20820887 -26.23133689 223.57309433 -26.24202538 227.93802452 C-26.25182011 232.04953776 -26.25170906 236.16094157 -26.24450874 240.27245903 C-26.24347683 241.76662102 -26.24574092 243.26079025 -26.2518692 244.75494003 C-26.35395758 271.40824815 -21.48214661 295.82729361 -2.44433594 315.57470703 C14.9530104 332.74267659 37.77354957 338.16088908 61.49804688 338.08789062 C62.55056641 338.07951172 63.60308594 338.07113281 64.6875 338.0625 C65.78255859 338.05798828 66.87761719 338.05347656 68.00585938 338.04882812 C70.67063309 338.03719156 73.33528517 338.02084564 76 338 C75.22285645 337.23856689 74.44571289 336.47713379 73.64501953 335.69262695 C70.75618622 332.8582065 67.877385 330.0137767 65.00146484 327.16625977 C63.756773 325.9366286 62.50939846 324.70970671 61.25927734 323.4855957 C59.4599464 321.7227667 57.67057648 319.95033052 55.8828125 318.17578125 C55.04521896 317.3614135 55.04521896 317.3614135 54.19070435 316.53059387 C49.71229518 312.05413475 47.72482667 308.38152793 47.625 302.0625 C47.73142217 297.28769183 48.78207195 294.65278319 52 291 C56.0208254 287.45784429 58.41281633 285.8470397 63.75 285.75 C64.59046875 285.72421875 65.4309375 285.6984375 66.296875 285.671875 C72.9895593 286.48428177 77.14894789 290.72559575 81.64794922 295.30737305 C82.28280746 295.94179321 82.91766571 296.57621338 83.57176208 297.2298584 C85.65659921 299.31677608 87.73062388 301.41409825 89.8046875 303.51171875 C91.25277162 304.9654014 92.70152198 306.41842065 94.15090942 307.87080383 C97.95512358 311.68644638 101.75024035 315.51101348 105.54351807 319.33752441 C109.41937975 323.24413 113.30379804 327.14220703 117.1875 331.04101562 C124.8000542 338.68569862 132.4030226 346.33983942 140 354 C138.34417093 358.26560238 135.15434304 361.13380652 131.97729492 364.29736328 C131.05256126 365.22976334 131.05256126 365.22976334 130.10914612 366.18099976 C128.07140198 368.23263494 126.02632092 370.27676458 123.98046875 372.3203125 C122.56018853 373.74447973 121.14013243 375.16887051 119.72029114 376.59347534 C116.74360692 379.57762061 113.76307706 382.55786101 110.7800293 385.53564453 C106.95825821 389.35161935 103.14797513 393.17883982 99.34072399 397.00929451 C96.41114588 399.95360516 93.4746693 402.8909589 90.53615761 405.82635117 C89.12841028 407.23461188 87.72302512 408.64523803 86.32005882 410.05826187 C84.35742541 412.03323339 82.38548441 413.99842415 80.41088867 415.96142578 C79.83355988 416.54639832 79.25623108 417.13137085 78.66140747 417.73406982 C74.22450399 422.1136047 70.44534113 424.27416523 64.0625 424.375 C59.28769183 424.26857783 56.65278319 423.21792805 53 420 C49.45784429 415.9791746 47.8470397 413.58718367 47.75 408.25 C47.72421875 407.40953125 47.6984375 406.5690625 47.671875 405.703125 C48.44261638 399.35368412 52.34235424 395.23589666 56.76171875 390.9453125 C57.31237503 390.39890106 57.86303131 389.85248962 58.43037415 389.28952026 C60.17578276 387.56078798 61.93136991 385.84283292 63.6875 384.125 C64.8789456 382.94861549 66.06970819 381.7715388 67.25976562 380.59375 C70.16533809 377.72110004 73.08008092 374.85806311 76 372 C74.41469482 371.98598145 74.41469482 371.98598145 72.79736328 371.97167969 C68.78232413 371.93105457 64.76799465 371.86511877 60.75341797 371.79248047 C59.03346037 371.76468253 57.31338479 371.74326915 55.59326172 371.72900391 C27.47865296 371.48224022 1.47779106 363.62833287 -20 345 C-20.80824219 344.33613281 -21.61648437 343.67226563 -22.44921875 342.98828125 C-36.63928038 330.93675324 -47.06481438 314.88543445 -53.375 297.4375 C-53.6016333 296.81447998 -53.8282666 296.19145996 -54.06176758 295.54956055 C-58.57159514 282.15237065 -59.44368747 269.13481035 -59.40405273 255.14135742 C-59.40976954 253.29644867 -59.41673881 251.45154345 -59.42485046 249.60664368 C-59.44265379 244.63948774 -59.44163767 239.6725097 -59.43590808 234.70533156 C-59.43279706 230.53836742 -59.4389299 226.37143651 -59.44494683 222.20447713 C-59.45894881 212.36309608 -59.45746737 202.52180191 -59.44604492 192.68041992 C-59.43457226 182.57327842 -59.44863507 172.46640254 -59.4754414 162.35929602 C-59.49769096 153.63944498 -59.5042149 144.91967674 -59.49836498 136.19979936 C-59.49501575 131.0104306 -59.49727356 125.82123195 -59.51461601 120.63188744 C-59.5302312 115.74706091 -59.52597033 110.86262377 -59.50731087 105.97781181 C-59.5036647 104.20025958 -59.50661511 102.42267753 -59.51719666 100.64515305 C-59.66923214 72.96045718 -51.27430445 47.06960914 -33 26 C-32.33613281 25.19175781 -31.67226563 24.38351563 -30.98828125 23.55078125 C-25.05259385 16.56181106 -9.93755402 0 0 0 Z " fill="#47C8EF" transform="translate(59,67)"/>
<path d="M0 0 C1.26070312 -0.03867187 1.26070312 -0.03867187 2.546875 -0.078125 C9.2395593 0.73428177 13.39894789 4.97559575 17.89794922 9.55737305 C18.53280746 10.19179321 19.16766571 10.82621338 19.82176208 11.4798584 C21.90659921 13.56677608 23.98062388 15.66409825 26.0546875 17.76171875 C27.50277162 19.2154014 28.95152198 20.66842065 30.40090942 22.12080383 C34.20512358 25.93644638 38.00024035 29.76101348 41.79351807 33.58752441 C45.66937975 37.49413 49.55379804 41.39220703 53.4375 45.29101562 C61.0500542 52.93569862 68.6530226 60.58983942 76.25 68.25 C74.59417093 72.51560238 71.40434304 75.38380652 68.22729492 78.54736328 C67.61080582 79.16896332 66.99431671 79.79056335 66.35914612 80.43099976 C64.32140198 82.48263494 62.27632092 84.52676458 60.23046875 86.5703125 C58.81018853 87.99447973 57.39013243 89.41887051 55.97029114 90.84347534 C52.99360692 93.82762061 50.01307706 96.80786101 47.0300293 99.78564453 C43.20825821 103.60161935 39.39797513 107.42883982 35.59072399 111.25929451 C32.66114588 114.20360516 29.7246693 117.1409589 26.78615761 120.07635117 C25.37841028 121.48461188 23.97302512 122.89523803 22.57005882 124.30826187 C20.60742541 126.28323339 18.63548441 128.24842415 16.66088867 130.21142578 C16.08355988 130.79639832 15.50623108 131.38137085 14.91140747 131.98406982 C10.47450399 136.3636047 6.69534113 138.52416523 0.3125 138.625 C-4.46230817 138.51857783 -7.09721681 137.46792805 -10.75 134.25 C-14.29215571 130.2291746 -15.9029603 127.83718367 -16 122.5 C-16.02578125 121.65953125 -16.0515625 120.8190625 -16.078125 119.953125 C-15.31117108 113.63488556 -11.43795825 109.50726989 -7.05078125 105.22265625 C-6.21996284 104.3946476 -6.21996284 104.3946476 -5.37236023 103.5499115 C-4.20332326 102.38756794 -3.03070831 101.22881307 -1.85473633 100.07348633 C-0.07837135 98.32809461 1.68727648 96.57243685 3.45117188 94.81445312 C8.71538242 89.58698735 14.00753099 84.45078652 19.65161133 79.63012695 C21.78538342 77.78772377 23.77494171 75.82282719 25.75 73.8125 C26.75546875 72.79349609 26.75546875 72.79349609 27.78125 71.75390625 C28.50828125 71.00947266 28.50828125 71.00947266 29.25 70.25 C27.63275849 66.16792655 24.70615199 63.44601937 21.625 60.4375 C21.12871094 59.94185547 20.63242188 59.44621094 20.12109375 58.93554688 C17.34390325 56.19015626 14.49235397 53.57318473 11.53125 51.02734375 C6.25824491 46.45240331 1.32331874 41.5457515 -3.625 36.625 C-4.58330511 35.68747115 -5.54163829 34.74997099 -6.5 33.8125 C-7.40492187 32.91273438 -8.30984375 32.01296875 -9.2421875 31.0859375 C-10.06058105 30.27688965 -10.87897461 29.4678418 -11.72216797 28.63427734 C-15.67190908 23.99026438 -16.19812555 19.59339959 -16.06640625 13.68359375 C-15.42867515 8.77857551 -12.7040529 6.09047518 -9.125 2.9375 C-5.82055664 0.58960604 -4.01470014 0.07299455 0 0 Z " fill="#23B2D3" transform="translate(122.75,352.75)"/>
<path d="M0 0 C1.2487793 0.00249756 2.49755859 0.00499512 3.78417969 0.00756836 C5.36618164 0.01667236 6.94818359 0.02577637 8.578125 0.03515625 C16.126875 0.06609375 16.126875 0.06609375 23.828125 0.09765625 C23.828125 10.65765625 23.828125 21.21765625 23.828125 32.09765625 C13.928125 32.75765625 4.028125 33.41765625 -6.171875 34.09765625 C-6.996875 29.39515625 -7.821875 24.69265625 -8.671875 19.84765625 C-8.93291016 18.37006836 -9.19394531 16.89248047 -9.46289062 15.37011719 C-9.66591797 14.20254883 -9.86894531 13.03498047 -10.078125 11.83203125 C-10.28759766 10.63803711 -10.49707031 9.44404297 -10.71289062 8.21386719 C-11.171875 5.09765625 -11.171875 5.09765625 -11.171875 1.09765625 C-7.43877067 -0.09052343 -3.89695855 -0.01597114 0 0 Z " fill="#48C8EF" transform="translate(104.171875,53.90234375)"/>
<path d="M0 0 C10.56 0 21.12 0 32 0 C32 10.56 32 21.12 32 32 C21.44 32 10.88 32 0 32 C0 21.44 0 10.88 0 0 Z " fill="#48C8EF" transform="translate(160,54)"/>
</svg>
