<?xml version="1.0" encoding="UTF-8"?>
<svg version="1.1" xmlns="http://www.w3.org/2000/svg" width="512" height="512">
<path d="M0 0 C-0.04640625 1.1859375 -0.0928125 2.371875 -0.140625 3.59375 C-0.5495686 18.61696439 0.68684481 32.57520651 10 45 C10.55171875 45.76699219 11.1034375 46.53398438 11.671875 47.32421875 C20.74023571 58.737177 33.32894823 62.89364178 47 66 C49.34264835 66.63822702 51.67020351 67.31564088 54 68 C52.62195488 71.74909333 50.87131708 74.93463699 48.75 78.3125 C36.49143432 99.15206165 32.56281412 123.54710326 38.45214844 147.04589844 C42.95843716 163.11913149 51.29814246 176.28149686 63 188 C64.09634766 189.11375 64.09634766 189.11375 65.21484375 190.25 C80.58773535 204.90720763 102.07251929 211.82237996 123 212.375 C140.21046562 211.92053305 155.1882496 206.93962839 170.15283203 198.59106445 C174.8099049 196 174.8099049 196 177 196 C177.18062988 196.589021 177.36125977 197.17804199 177.54736328 197.78491211 C178.39163525 200.50732922 179.25814181 203.22219419 180.125 205.9375 C180.40859375 206.86369141 180.6921875 207.78988281 180.984375 208.74414062 C183.09279754 215.27566697 185.93832907 220.48507067 190 226 C190.70125 227.010625 191.4025 228.02125 192.125 229.0625 C200.42904593 238.58694885 213.58695115 244.04515009 226 245 C231.94022603 245.30204539 237.32655275 244.53994286 243.16796875 243.4375 C245.83943237 243.02480493 248.30418897 242.96826791 251 243 C252.60688318 315.4086284 230.55903126 381.07536269 180 434 C171.76985278 442.55817673 163.47157337 450.80212394 154 458 C153.45972168 458.41668945 152.91944336 458.83337891 152.36279297 459.26269531 C142.3677884 466.9459873 131.90790964 473.68842968 121 480 C120.32275879 480.39429199 119.64551758 480.78858398 118.94775391 481.19482422 C92.97095271 496.13610428 63.56294741 505.52426312 34 510 C32.88189941 510.17732666 31.76379883 510.35465332 30.61181641 510.53735352 C19.85045702 512.08166151 9.2105899 512.33979671 -1.65185547 512.31567383 C-4.60031615 512.31252635 -7.54775697 512.33602578 -10.49609375 512.36132812 C-23.88605903 512.40594438 -36.79766733 511.20425057 -50 509 C-51.13695312 508.81187744 -52.27390625 508.62375488 -53.4453125 508.42993164 C-56.04110846 507.96369865 -58.6126671 507.44496002 -61.1875 506.875 C-62.57642456 506.56804199 -62.57642456 506.56804199 -63.9934082 506.25488281 C-129.14109566 491.1065193 -186.72016063 449.49060064 -222.515625 393.10546875 C-224.77019376 389.45549039 -226.89681974 385.73866301 -229 382 C-229.36013184 381.37399902 -229.72026367 380.74799805 -230.09130859 380.10302734 C-249.11105064 346.88344262 -260.99527127 306.84847663 -261.203125 268.4609375 C-261.21018463 267.58550797 -261.21724426 266.71007843 -261.22451782 265.80812073 C-261.45499838 228.81640017 -261.45499838 228.81640017 -258 211 C-257.80664062 209.98341309 -257.61328125 208.96682617 -257.4140625 207.91943359 C-249.5431391 167.86639358 -232.68059397 128.04064783 -206.30761719 96.56787109 C-205.03107455 95.03725929 -203.78460648 93.4817227 -202.5390625 91.92578125 C-191.2898361 78.01653131 -178.33619845 64.72621505 -164 54 C-162.90213588 53.150008 -161.80449404 52.29972885 -160.70703125 51.44921875 C-114.51847899 16.15972675 -57.84920313 -1.37300324 0 0 Z " fill="#FEB763" transform="translate(261,0)"/>
<path d="M0 0 C-0.04640625 1.1859375 -0.0928125 2.371875 -0.140625 3.59375 C-0.5495686 18.61696439 0.68684481 32.57520651 10 45 C10.55171875 45.76699219 11.1034375 46.53398438 11.671875 47.32421875 C20.74023571 58.737177 33.32894823 62.89364178 47 66 C49.34264835 66.63822702 51.67020351 67.31564088 54 68 C52.62195488 71.74909333 50.87131708 74.93463699 48.75 78.3125 C36.49143432 99.15206165 32.56281412 123.54710326 38.45214844 147.04589844 C42.95843716 163.11913149 51.29814246 176.28149686 63 188 C64.09634766 189.11375 64.09634766 189.11375 65.21484375 190.25 C80.58773535 204.90720763 102.07251929 211.82237996 123 212.375 C140.21046562 211.92053305 155.1882496 206.93962839 170.15283203 198.59106445 C174.8099049 196 174.8099049 196 177 196 C177.18062988 196.589021 177.36125977 197.17804199 177.54736328 197.78491211 C178.39163525 200.50732922 179.25814181 203.22219419 180.125 205.9375 C180.40859375 206.86369141 180.6921875 207.78988281 180.984375 208.74414062 C183.09279754 215.27566697 185.93832907 220.48507067 190 226 C190.70125 227.010625 191.4025 228.02125 192.125 229.0625 C200.42904593 238.58694885 213.58695115 244.04515009 226 245 C231.94022603 245.30204539 237.32655275 244.53994286 243.16796875 243.4375 C245.83943237 243.02480493 248.30418897 242.96826791 251 243 C252.60688318 315.4086284 230.55903126 381.07536269 180 434 C171.76985278 442.55817673 163.47157337 450.80212394 154 458 C153.45972168 458.41668945 152.91944336 458.83337891 152.36279297 459.26269531 C142.3677884 466.9459873 131.90790964 473.68842968 121 480 C120.32275879 480.39429199 119.64551758 480.78858398 118.94775391 481.19482422 C92.97095271 496.13610428 63.56294741 505.52426312 34 510 C32.88189941 510.17732666 31.76379883 510.35465332 30.61181641 510.53735352 C19.85045702 512.08166151 9.2105899 512.33979671 -1.65185547 512.31567383 C-4.60031615 512.31252635 -7.54775697 512.33602578 -10.49609375 512.36132812 C-23.88605903 512.40594438 -36.79766733 511.20425057 -50 509 C-51.13695312 508.81187744 -52.27390625 508.62375488 -53.4453125 508.42993164 C-56.04110846 507.96369865 -58.6126671 507.44496002 -61.1875 506.875 C-62.57642456 506.56804199 -62.57642456 506.56804199 -63.9934082 506.25488281 C-129.14109566 491.1065193 -186.72016063 449.49060064 -222.515625 393.10546875 C-224.77019376 389.45549039 -226.89681974 385.73866301 -229 382 C-229.36013184 381.37399902 -229.72026367 380.74799805 -230.09130859 380.10302734 C-249.11105064 346.88344262 -260.99527127 306.84847663 -261.203125 268.4609375 C-261.21018463 267.58550797 -261.21724426 266.71007843 -261.22451782 265.80812073 C-261.45499838 228.81640017 -261.45499838 228.81640017 -258 211 C-257.80664062 209.98341309 -257.61328125 208.96682617 -257.4140625 207.91943359 C-249.5431391 167.86639358 -232.68059397 128.04064783 -206.30761719 96.56787109 C-205.03107455 95.03725929 -203.78460648 93.4817227 -202.5390625 91.92578125 C-191.2898361 78.01653131 -178.33619845 64.72621505 -164 54 C-162.90213588 53.150008 -161.80449404 52.29972885 -160.70703125 51.44921875 C-114.51847899 16.15972675 -57.84920313 -1.37300324 0 0 Z M-167 71 C-167.85851562 71.74765625 -168.71703125 72.4953125 -169.6015625 73.265625 C-179.95373502 82.40182805 -189.57677003 92.03965257 -198 103 C-198.42104004 103.54462891 -198.84208008 104.08925781 -199.27587891 104.65039062 C-206.9538188 114.64096302 -213.69187634 125.09804702 -220 136 C-220.39429199 136.67724121 -220.78858398 137.35448242 -221.19482422 138.05224609 C-252.37937456 192.26947924 -258.73051277 259.18761502 -243.41015625 319.31494141 C-242.14782138 323.94966916 -240.62678696 328.48102889 -239 333 C-238.72317383 333.7822998 -238.44634766 334.56459961 -238.16113281 335.37060547 C-226.13825334 369.06716226 -208.74246989 399.81905896 -183.50952148 425.43359375 C-182.41297962 426.57145767 -181.35440663 427.7462943 -180.32055664 428.94140625 C-174.79454662 435.04344785 -168.77521223 437.78108449 -161.1875 440.75 C-160.07568359 441.20503906 -158.96386719 441.66007812 -157.81835938 442.12890625 C-142.24100862 448.45464143 -126.78475034 453.33858621 -110.3125 456.6875 C-108.74508057 457.00932251 -108.74508057 457.00932251 -107.14599609 457.33764648 C-97.19129176 459.30456038 -87.45166348 460.17335713 -77.3125 460.0625 C-76.50361328 460.05798828 -75.69472656 460.05347656 -74.86132812 460.04882812 C-72.90751849 460.03726712 -70.95374807 460.01934404 -69 460 C-68.72027344 459.20335937 -68.44054687 458.40671875 -68.15234375 457.5859375 C-65.07195773 449.44420981 -62.11998032 444.88819403 -54.5625 440.625 C-47.08722026 438.80176104 -41.53387805 440.19482964 -35 444 C-30.10631982 447.8061957 -28.23566531 452.39813407 -26 458 C-11.62227021 456.55929962 1.94433606 453.27087969 15.63562012 448.66867065 C16.96018717 448.22345698 18.28645547 447.78327257 19.61437988 447.34817505 C21.49110867 446.72919071 23.35908162 446.08384952 25.2265625 445.4375 C26.31533691 445.06496094 27.40411133 444.69242187 28.52587891 444.30859375 C31.12637382 443.25690853 31.12637382 443.25690853 31.88818359 441.03125 C32.01697327 438.6916646 31.63882321 436.54416132 31.2734375 434.23828125 C29.84767062 422.56736094 31.22144451 412.75403658 38.3125 403.1875 C45.11946679 395.11412079 53.34626011 388.97063397 64 387 C76.41912889 386.23711065 85.23840921 388.73436269 96 395 C96.52980469 395.57878906 97.05960937 396.15757812 97.60546875 396.75390625 C98.91896404 398.21066697 98.91896404 398.21066697 100.85546875 397.97265625 C107.91020401 394.77296758 114.15938482 387.16183196 119.07421875 381.296875 C120.59225177 379.4863204 122.13476493 377.71578926 123.70703125 375.953125 C139.08082184 358.59359496 151.11493882 338.92665269 161 318 C161.50015625 316.95328125 162.0003125 315.9065625 162.515625 314.828125 C170.4079239 297.39568457 176.33459532 278.72906804 179.65771484 259.88916016 C179.96108905 258.21475957 180.31481757 256.54965545 180.67578125 254.88671875 C182.32736086 247.12317107 184.3420494 237.59199573 180.609375 230.2734375 C179.41449758 228.63697495 178.17415744 227.03273602 176.890625 225.46484375 C173.76535752 221.39037313 171.94810402 216.72213233 170 212 C165.883715 213.34843819 161.79019355 214.69870318 157.7421875 216.2421875 C133.72748729 225.3215708 105.54324736 224.69794208 82.03564453 214.11572266 C73.52584837 210.05389335 66.10301369 205.23862578 59 199 C58.25878906 198.37867188 57.51757812 197.75734375 56.75390625 197.1171875 C53.07736884 194.00056312 49.85207681 190.92160561 47 187 C46.45085937 187.27585938 45.90171875 187.55171875 45.3359375 187.8359375 C44.56507813 188.22007812 43.79421875 188.60421875 43 189 C42.16726563 189.42539063 41.33453125 189.85078125 40.4765625 190.2890625 C31.94492041 194.28607838 23.65510598 195.78600295 14.39453125 193.30078125 C12.1079352 192.36803897 10.09862924 191.29895814 8 190 C7.30261719 189.5875 6.60523438 189.175 5.88671875 188.75 C-1.16925305 184.07259496 -6.2689051 176.30925553 -8 168 C-8.95827646 158.03392484 -6.66165946 149.16371269 -0.76953125 141.03515625 C6.09690699 133.13799439 15.20757744 131.19329623 25 129 C25.02578125 127.741875 25.0515625 126.48375 25.078125 125.1875 C25.55280264 108.97040911 28.26280324 95.5267029 35.609375 81.01171875 C37.20960376 78.0989333 37.20960376 78.0989333 37 75 C36.14019531 74.74347656 35.28039062 74.48695312 34.39453125 74.22265625 C16.32962781 68.37175514 4.08658717 57.74782733 -5 41 C-9.76286483 31.58666833 -10.18499696 21.34839385 -11 11 C-68.28665201 9.44704859 -124.41778195 33.32672398 -167 71 Z " fill="#D79C54" transform="translate(261,0)"/>
<path d="M0 0 C-0.04640625 1.1859375 -0.0928125 2.371875 -0.140625 3.59375 C-0.5495686 18.61696439 0.68684481 32.57520651 10 45 C10.55171875 45.76699219 11.1034375 46.53398438 11.671875 47.32421875 C20.74023571 58.737177 33.32894823 62.89364178 47 66 C49.34264835 66.63822702 51.67020351 67.31564088 54 68 C52.62195488 71.74909333 50.87131708 74.93463699 48.75 78.3125 C36.49143432 99.15206165 32.56281412 123.54710326 38.45214844 147.04589844 C42.95843716 163.11913149 51.29814246 176.28149686 63 188 C64.09634766 189.11375 64.09634766 189.11375 65.21484375 190.25 C80.58773535 204.90720763 102.07251929 211.82237996 123 212.375 C140.21046562 211.92053305 155.1882496 206.93962839 170.15283203 198.59106445 C174.8099049 196 174.8099049 196 177 196 C177.18062988 196.589021 177.36125977 197.17804199 177.54736328 197.78491211 C178.39163525 200.50732922 179.25814181 203.22219419 180.125 205.9375 C180.40859375 206.86369141 180.6921875 207.78988281 180.984375 208.74414062 C183.09279754 215.27566697 185.93832907 220.48507067 190 226 C190.70125 227.010625 191.4025 228.02125 192.125 229.0625 C200.42904593 238.58694885 213.58695115 244.04515009 226 245 C231.94022603 245.30204539 237.32655275 244.53994286 243.16796875 243.4375 C245.83943237 243.02480493 248.30418897 242.96826791 251 243 C252.60688318 315.4086284 230.55903126 381.07536269 180 434 C171.76985278 442.55817673 163.47157337 450.80212394 154 458 C153.45972168 458.41668945 152.91944336 458.83337891 152.36279297 459.26269531 C142.3677884 466.9459873 131.90790964 473.68842968 121 480 C120.32275879 480.39429199 119.64551758 480.78858398 118.94775391 481.19482422 C92.97095271 496.13610428 63.56294741 505.52426312 34 510 C32.88189941 510.17732666 31.76379883 510.35465332 30.61181641 510.53735352 C19.85045702 512.08166151 9.2105899 512.33979671 -1.65185547 512.31567383 C-4.60031615 512.31252635 -7.54775697 512.33602578 -10.49609375 512.36132812 C-23.88605903 512.40594438 -36.79766733 511.20425057 -50 509 C-51.13695312 508.81187744 -52.27390625 508.62375488 -53.4453125 508.42993164 C-56.04110846 507.96369865 -58.6126671 507.44496002 -61.1875 506.875 C-62.57642456 506.56804199 -62.57642456 506.56804199 -63.9934082 506.25488281 C-129.14109566 491.1065193 -186.72016063 449.49060064 -222.515625 393.10546875 C-224.77019376 389.45549039 -226.89681974 385.73866301 -229 382 C-229.36013184 381.37399902 -229.72026367 380.74799805 -230.09130859 380.10302734 C-249.11105064 346.88344262 -260.99527127 306.84847663 -261.203125 268.4609375 C-261.21018463 267.58550797 -261.21724426 266.71007843 -261.22451782 265.80812073 C-261.45499838 228.81640017 -261.45499838 228.81640017 -258 211 C-257.80664062 209.98341309 -257.61328125 208.96682617 -257.4140625 207.91943359 C-249.5431391 167.86639358 -232.68059397 128.04064783 -206.30761719 96.56787109 C-205.03107455 95.03725929 -203.78460648 93.4817227 -202.5390625 91.92578125 C-191.2898361 78.01653131 -178.33619845 64.72621505 -164 54 C-162.90213588 53.150008 -161.80449404 52.29972885 -160.70703125 51.44921875 C-114.51847899 16.15972675 -57.84920313 -1.37300324 0 0 Z M-167 71 C-167.85851562 71.74765625 -168.71703125 72.4953125 -169.6015625 73.265625 C-179.95373502 82.40182805 -189.57677003 92.03965257 -198 103 C-198.42104004 103.54462891 -198.84208008 104.08925781 -199.27587891 104.65039062 C-206.9538188 114.64096302 -213.69187634 125.09804702 -220 136 C-220.39429199 136.67724121 -220.78858398 137.35448242 -221.19482422 138.05224609 C-252.37937456 192.26947924 -258.73051277 259.18761502 -243.41015625 319.31494141 C-242.14782138 323.94966916 -240.62678696 328.48102889 -239 333 C-238.72317383 333.7822998 -238.44634766 334.56459961 -238.16113281 335.37060547 C-225.79676717 370.02424648 -207.7174172 400.58535148 -182 427 C-181.15671143 427.87398438 -181.15671143 427.87398438 -180.29638672 428.765625 C-172.93038276 436.37763681 -165.45588882 443.58815555 -157 450 C-156.37706055 450.47759766 -155.75412109 450.95519531 -155.11230469 451.44726562 C-102.43727292 491.59728984 -36.15661093 509.16330839 29.58642578 500.34619141 C67.48933022 494.90958221 104.80957779 480.25936436 136 458 C137.02351563 457.27167969 138.04703125 456.54335938 139.1015625 455.79296875 C158.02709928 441.93588047 175.85443054 425.66679768 189.7421875 406.70214844 C191.03039472 404.95886801 192.35456407 403.24832302 193.6875 401.5390625 C225.60404623 360.08730611 241.72107448 306.9974821 241 255 C240.14003418 255.02356567 240.14003418 255.02356567 239.26269531 255.04760742 C219.40637502 255.51952358 203.28041817 252.90497537 187.625 239.875 C179.65247713 232.19480297 174.05236495 222.21900725 170 212 C165.883715 213.34843819 161.79019355 214.69870318 157.7421875 216.2421875 C133.72748729 225.3215708 105.54324736 224.69794208 82.03564453 214.11572266 C73.52584837 210.05389335 66.10301369 205.23862578 59 199 C58.25878906 198.37867188 57.51757812 197.75734375 56.75390625 197.1171875 C53.07736884 194.00056312 49.85207681 190.92160561 47 187 C46.45085937 187.27585938 45.90171875 187.55171875 45.3359375 187.8359375 C44.56507813 188.22007812 43.79421875 188.60421875 43 189 C42.16726563 189.42539063 41.33453125 189.85078125 40.4765625 190.2890625 C31.94492041 194.28607838 23.65510598 195.78600295 14.39453125 193.30078125 C12.1079352 192.36803897 10.09862924 191.29895814 8 190 C7.30261719 189.5875 6.60523438 189.175 5.88671875 188.75 C-1.16925305 184.07259496 -6.2689051 176.30925553 -8 168 C-8.95827646 158.03392484 -6.66165946 149.16371269 -0.76953125 141.03515625 C6.09690699 133.13799439 15.20757744 131.19329623 25 129 C25.02578125 127.741875 25.0515625 126.48375 25.078125 125.1875 C25.55280264 108.97040911 28.26280324 95.5267029 35.609375 81.01171875 C37.20960376 78.0989333 37.20960376 78.0989333 37 75 C36.14019531 74.74347656 35.28039062 74.48695312 34.39453125 74.22265625 C16.32962781 68.37175514 4.08658717 57.74782733 -5 41 C-9.76286483 31.58666833 -10.18499696 21.34839385 -11 11 C-68.28665201 9.44704859 -124.41778195 33.32672398 -167 71 Z " fill="#020101" transform="translate(261,0)"/>
<path d="M0 0 C8.98493955 7.83648863 16.46286552 17.52032284 18 29.6875 C18.89108649 43.67945385 15.46077461 55.72370526 6.390625 66.62109375 C-0.8189531 74.50098386 -11.52182974 80.41007826 -22.3203125 81.05859375 C-35.86524343 81.40413487 -46.7173871 79.11143959 -57 69.6875 C-64.98102642 62.06450093 -70.93527414 52.56075431 -71.23828125 41.2734375 C-71.61968502 23.38697504 -71.61968502 23.38697504 -67 15.6875 C-66.36384766 14.54474609 -66.36384766 14.54474609 -65.71484375 13.37890625 C-59.10168399 2.45521896 -48.90404573 -4.78215603 -36.5078125 -7.94921875 C-23.59011865 -9.82047347 -10.65806497 -7.8895014 0 0 Z " fill="#764031" transform="translate(204,196.3125)"/>
<path d="M0 0 C7.84278548 5.72563286 14.40528931 16.35394511 16 26 C16.79420303 38.92888657 14.22914461 49.848953 6.21484375 60.3359375 C-2.66792729 69.85710071 -13.52671601 73.84252629 -26.25 74.4375 C-37.36522016 74.20404147 -45.96663738 70.0429061 -53.84375 62.33203125 C-63.36228314 52.03753074 -66.43423251 42.36507452 -66.2734375 28.34375 C-65.35191102 17.0747976 -59.22137929 8.82934425 -51.25 1.25 C-35.60263762 -11.8913395 -16.56541097 -9.97054425 0 0 Z " fill="#65362A" transform="translate(357,394)"/>
<path d="M0 0 C9.79837319 4.92686561 16.54118208 12.33105138 21.375 22.0625 C21.88353516 22.99449219 21.88353516 22.99449219 22.40234375 23.9453125 C26.31387748 32.27309398 25.36696556 42.87487627 22.75 51.4375 C18.45927594 62.61438611 11.36688959 70.99640022 0.52734375 76.23828125 C-9.71992433 80.16237121 -21.65623632 81.03408869 -32.0625 77.125 C-43.38522675 71.61118931 -51.208297 62.29262177 -56 50.8125 C-59.49254523 40.29084063 -58.2360008 30.02117037 -53.625 20.0625 C-43.11602835 1.05923002 -20.63405534 -7.84903282 0 0 Z " fill="#774031" transform="translate(137.625,330.9375)"/>
<path d="M0 0 C0.71542969 0.46664062 1.43085938 0.93328125 2.16796875 1.4140625 C9.65444088 7.06610106 14.43735603 15.86813354 16 25 C17.23432328 36.68511213 16.14881687 47.32339934 9.3125 57.1875 C2.26056704 65.81637274 -5.79911886 72.23824525 -17 74 C-30.71582863 75.05159694 -41.2194788 72.9499988 -52.03515625 63.875 C-59.46633053 56.78362097 -64.52492046 47.25409906 -65.203125 36.8984375 C-65.38746527 23.04219361 -62.20667903 13.58527132 -52.8125 3.3125 C-38.15077708 -10.6961395 -16.28430869 -10.79744419 0 0 Z " fill="#774031" transform="translate(215,35)"/>
<path d="M0 0 C8.69133119 4.90056407 14.26707985 11.94383166 17.36328125 21.515625 C19.25478577 32.14505803 17.05986328 41.00361168 10.97265625 49.78515625 C5.65116784 56.38700278 -0.86951894 60.97480839 -9.27734375 62.53515625 C-19.08613898 63.53328742 -26.8775836 62.42266686 -34.94140625 56.6171875 C-42.18271588 50.58276281 -47.64468996 42.99783488 -48.5859375 33.3828125 C-48.93728663 23.06592454 -47.17341975 15.7055534 -40.56640625 7.37890625 C-29.65531058 -4.27276153 -14.33615291 -6.78086811 0 0 Z " fill="#050302" transform="translate(110.27734375,104.46484375)"/>
<path d="M0 0 C1.35952306 0.74579551 2.69469292 1.53792933 4 2.375 C4.69480469 2.7875 5.38960937 3.2 6.10546875 3.625 C13.11918655 8.25694872 17.37858743 15.47517751 20 23.375 C21.26729816 34.06032449 19.34823604 42.74228462 13.4609375 51.72265625 C8.61419896 57.86721814 2.31699877 60.93600041 -5 63.375 C-15.01364711 64.12308463 -23.47618158 64.35662696 -32 58.375 C-33.0725 57.653125 -34.145 56.93125 -35.25 56.1875 C-41.99325756 49.29098658 -46.25530689 40.84408058 -46.375 31.125 C-46.14785241 20.59252502 -42.52209632 14.0648152 -35.30859375 6.5078125 C-32.32947542 3.7555306 -29.68076152 2.07381301 -26 0.375 C-25.2678125 0.02179688 -24.535625 -0.33140625 -23.78125 -0.6953125 C-16.7928148 -3.03133438 -6.77756419 -2.84373323 0 0 Z " fill="#050302" transform="translate(238,276.625)"/>
<path d="M0 0 C5.65901505 5.31076797 8.66691381 10.78090829 9.28125 18.5625 C9.55764255 30.17098722 8.12017054 36.58260563 0.08984375 45.01953125 C-6.32749257 51.10100698 -13.2233396 52.48802814 -22 53 C-31.07806622 52.50274637 -37.7120305 48.71044406 -43.8125 42.125 C-49.4831865 35.26592362 -51.58203757 27.876073 -51 19 C-48.81394224 8.87340889 -44.30722079 2.16795529 -36 -4 C-24.45189399 -10.78574606 -9.84593012 -8.65248404 0 0 Z " fill="#000000" transform="translate(363,102)"/>
<path d="M0 0 C8.43056282 4.55663188 13.69309912 10.44279035 17.0625 19.4375 C19.12216335 28.1877895 17.92194385 35.96989677 13.7734375 43.90234375 C8.92524453 51.69315652 3.45812191 55.60431642 -5.40234375 57.9296875 C-13.61324061 59.5743972 -20.44597058 58.1887976 -27.9375 54.4375 C-34.55397148 50.00030775 -39.41082299 44.01753103 -41.9375 36.4375 C-42.54772072 27.5342796 -43.03050775 19.15709037 -37.9375 11.4375 C-37.35355469 10.50550781 -37.35355469 10.50550781 -36.7578125 9.5546875 C-28.50284051 -1.72873576 -12.73827098 -5.02942078 0 0 Z " fill="#000000" transform="translate(370.9375,5.5625)"/>
<path d="M0 0 C8.98493955 7.83648863 16.46286552 17.52032284 18 29.6875 C18.89108649 43.67945385 15.46077461 55.72370526 6.390625 66.62109375 C-0.8189531 74.50098386 -11.52182974 80.41007826 -22.3203125 81.05859375 C-35.86524343 81.40413487 -46.7173871 79.11143959 -57 69.6875 C-64.98102642 62.06450093 -70.93527414 52.56075431 -71.23828125 41.2734375 C-71.61968502 23.38697504 -71.61968502 23.38697504 -67 15.6875 C-66.36384766 14.54474609 -66.36384766 14.54474609 -65.71484375 13.37890625 C-59.10168399 2.45521896 -48.90404573 -4.78215603 -36.5078125 -7.94921875 C-23.59011865 -9.82047347 -10.65806497 -7.8895014 0 0 Z M-53.6875 13.46484375 C-59.39946193 20.44771721 -62.81614304 28.99653434 -62.3828125 38.08203125 C-60.69964733 49.53785953 -55.65037144 58.2041042 -46.7265625 65.4375 C-38.35423132 71.49891624 -28.93134195 71.38371779 -19 70.6875 C-10.72164151 69.00914787 -4.49375764 63.93262414 1 57.6875 C6.33901344 49.4851749 9.12879869 40.47518486 8 30.6875 C5.41340566 19.70609048 -0.36353953 11.81609259 -9.88671875 5.87890625 C-24.86498758 -2.56540428 -42.09350139 1.25357206 -53.6875 13.46484375 Z " fill="#040301" transform="translate(204,196.3125)"/>
<path d="M0 0 C9.79837319 4.92686561 16.54118208 12.33105138 21.375 22.0625 C21.88353516 22.99449219 21.88353516 22.99449219 22.40234375 23.9453125 C26.31387748 32.27309398 25.36696556 42.87487627 22.75 51.4375 C18.45927594 62.61438611 11.36688959 70.99640022 0.52734375 76.23828125 C-9.71992433 80.16237121 -21.65623632 81.03408869 -32.0625 77.125 C-43.38522675 71.61118931 -51.208297 62.29262177 -56 50.8125 C-59.49254523 40.29084063 -58.2360008 30.02117037 -53.625 20.0625 C-43.11602835 1.05923002 -20.63405534 -7.84903282 0 0 Z M-42.625 21.0625 C-47.97747818 28.48641747 -47.83127149 38.29416912 -46.625 47.0625 C-44.41402557 54.7617782 -39.36234197 61.20090117 -32.50390625 65.34375 C-24.29327142 69.5620578 -15.86039325 70.47460816 -6.76171875 68.4140625 C1.44253636 65.42837712 7.33715164 60.60418278 11.3125 52.8125 C15.02341341 44.71138733 16.03043386 36.41422701 13.3515625 27.75390625 C9.53853252 19.48531914 4.21825192 13.55943969 -3.890625 9.37890625 C-8.09544991 7.89666148 -11.52037101 7.52255761 -15.9375 7.5625 C-16.68443115 7.56894531 -17.4313623 7.57539063 -18.20092773 7.58203125 C-28.74056915 7.92935385 -36.13811583 12.88663446 -42.625 21.0625 Z " fill="#050302" transform="translate(137.625,330.9375)"/>
<path d="M0 0 C7.84278548 5.72563286 14.40528931 16.35394511 16 26 C16.79420303 38.92888657 14.22914461 49.848953 6.21484375 60.3359375 C-2.66792729 69.85710071 -13.52671601 73.84252629 -26.25 74.4375 C-37.36522016 74.20404147 -45.96663738 70.0429061 -53.84375 62.33203125 C-63.36228314 52.03753074 -66.43423251 42.36507452 -66.2734375 28.34375 C-65.35191102 17.0747976 -59.22137929 8.82934425 -51.25 1.25 C-35.60263762 -11.8913395 -16.56541097 -9.97054425 0 0 Z M-48.625 12.6875 C-54.17266126 19.35453415 -56.67891881 25.49360233 -56.32421875 34.2265625 C-55.10962034 44.61650075 -50.99095499 51.75748588 -43.01953125 58.45703125 C-35.78322784 63.98573502 -27.8481093 64.82169521 -19 64 C-10.64115458 62.04420457 -3.42895318 57.0997179 1.37890625 49.94921875 C2.40680405 47.99583363 3.2396878 46.07090561 4 44 C4.4125 42.88625 4.825 41.7725 5.25 40.625 C7.03668874 31.98933778 6.38346643 24.75441385 2 17 C-3.18126657 9.65499909 -9.95248633 3.71679576 -19 2 C-30.9117894 1.02454638 -40.32778215 3.8277589 -48.625 12.6875 Z " fill="#040301" transform="translate(357,394)"/>
<path d="M0 0 C0.71542969 0.46664062 1.43085938 0.93328125 2.16796875 1.4140625 C9.65444088 7.06610106 14.43735603 15.86813354 16 25 C17.23432328 36.68511213 16.14881687 47.32339934 9.3125 57.1875 C2.26056704 65.81637274 -5.79911886 72.23824525 -17 74 C-30.71582863 75.05159694 -41.2194788 72.9499988 -52.03515625 63.875 C-59.46633053 56.78362097 -64.52492046 47.25409906 -65.203125 36.8984375 C-65.38746527 23.04219361 -62.20667903 13.58527132 -52.8125 3.3125 C-38.15077708 -10.6961395 -16.28430869 -10.79744419 0 0 Z M-48.4609375 12.94140625 C-54.73003311 21.32671941 -56.28150847 29.67607197 -55 40 C-52.73459837 49.28941226 -47.8693694 55.42594777 -39.8125 60.375 C-31.90032855 64.92054857 -23.513993 65.43647247 -14.65625 63.12890625 C-5.34630622 59.5436375 0.91417219 54.1197176 5.1171875 45.00390625 C7.67922764 36.28616791 7.14237327 26.23058551 3.18359375 18.0390625 C-0.92377733 10.96299747 -7.07566311 6.08425498 -14.83203125 3.35546875 C-27.77803322 1.23279095 -39.29670322 2.84337559 -48.4609375 12.94140625 Z " fill="#040301" transform="translate(215,35)"/>
<path d="M0 0 C5.44741947 3.28016656 10.11914586 8.62698362 12.5625 14.5 C14.1946584 22.23958983 13.66722307 28.60236468 9.875 35.625 C5.88544663 40.58498528 1.72468856 44.55873251 -4.4375 46.5 C-12.27358208 47.30514105 -20.05672577 47.62460392 -26.4375 42.5 C-31.48271222 37.69551361 -35.04312995 33.33822945 -35.7734375 26.23046875 C-35.86733204 17.71423427 -35.5552288 11.82404506 -29.56640625 5.53515625 C-21.52363185 -1.89946886 -10.4806088 -4.64434821 0 0 Z " fill="#000000" transform="translate(444.4375,97.5)"/>
<path d="M0 0 C5.82053259 3.25727738 8.79421054 7.72977276 12.0625 13.375 C13.84676805 20.86892583 13.04765297 26.98563271 9.3125 33.734375 C5.63210414 38.86569616 0.62176067 42.00695028 -5.3125 44 C-12.3672036 44.90688267 -18.5498126 44.36456704 -24.3125 40 C-29.18229773 35.39005313 -32.83743909 31.00487399 -33.6484375 24.16796875 C-33.75193785 16.27089215 -32.97344846 10.85966382 -27.44140625 5.02734375 C-19.37420223 -2.39936392 -10.31981806 -4.62988816 0 0 Z " fill="#764031" transform="translate(105.3125,113)"/>
<path d="M0 0 C6.34714064 2.99187736 10.88867102 7.60556293 13.8125 13.98046875 C15.86757666 20.40804893 15.26101286 26.47153299 12.546875 32.58984375 C9.341864 38.3405492 4.79279666 42.19536986 -1.453125 44.27734375 C-16.17143445 45.4052544 -16.17143445 45.4052544 -22.453125 40.27734375 C-28.02569809 34.78503406 -31.7111371 30.04870736 -31.828125 21.96484375 C-31.66994366 15.41789381 -30.10970465 11.03191199 -25.546875 6.30078125 C-17.91831896 -0.61615576 -10.33250872 -3.04381228 0 0 Z " fill="#764031" transform="translate(233.453125,285.72265625)"/>
<path d="M0 0 C5.75070545 3.205011 9.60552611 7.75407834 11.6875 14 C12.3705985 21.1335 12.66154586 27.36870059 8.24609375 33.28515625 C3.59734894 38.39994064 -0.82713831 42.28344452 -7.85546875 43.40625 C-15.42722664 43.67467273 -20.45333752 41.82270414 -26.3125 37 C-31.36361756 31.59316993 -33.88384184 25.83156891 -33.6875 18.46875 C-32.59656331 11.28675016 -28.70509766 5.65814527 -23.15625 1.15625 C-15.91279113 -3.38625811 -7.72309742 -3.46489416 0 0 Z " fill="#050402" transform="translate(260.3125,380)"/>
<path d="M0 0 C6.69938686 3.73821587 10.30662023 8.48174175 12.6875 15.875 C13.92099685 23.14043202 11.76125054 28.86136826 7.6875 34.875 C3.51972159 39.47949323 -0.83942974 42.36410989 -7.07421875 43.28125 C-14.93045717 43.53298528 -20.36127243 42.16146279 -26.3125 36.875 C-31.22777826 31.24209111 -33.17887895 25.94030554 -32.6953125 18.4765625 C-31.55019407 10.69443115 -28.5307727 5.76170911 -22.3125 0.875 C-14.96518384 -3.42248681 -7.65116571 -3.52955561 0 0 Z " fill="#040301" transform="translate(470.3125,260.125)"/>
<path d="M0 0 C5.22987464 3.30168854 9.94310391 7.77281035 11.8671875 13.81640625 C13.1427551 20.62793725 12.98177798 27.89916194 9.2578125 33.90234375 C4.94188107 38.84334111 -0.18195454 42.77006155 -6.7421875 43.90234375 C-13.89843589 44.3376645 -19.12305652 42.86961473 -24.8671875 38.58203125 C-27.43198723 36.28439816 -29.12807159 33.93688165 -30.7421875 30.90234375 C-31.1546875 30.15984375 -31.5671875 29.41734375 -31.9921875 28.65234375 C-33.78188249 22.09012878 -33.53682627 15.75504701 -30.1484375 9.7890625 C-22.85201369 -0.00030612 -11.93464475 -4.77725808 0 0 Z " fill="#060402" transform="translate(334.7421875,235.09765625)"/>
<path d="M0 0 C3.77928665 2.10551807 6.33691213 4.06003589 8.625 7.8125 C9.2025 8.699375 9.78 9.58625 10.375 10.5 C12.58270428 16.35041635 12.65123972 22.21771798 10.125 28 C7.13993199 33.2639909 2.39130702 37.89039766 -3.375 39.8125 C-15.34348052 40.71942834 -15.34348052 40.71942834 -20.875 38.25 C-26.89629632 32.37923609 -31.28984842 27.75995832 -31.8125 19.0625 C-31.66825759 13.3606825 -29.9186135 9.25473319 -26.375 4.8125 C-18.51569717 -2.46576488 -9.98263793 -4.71772074 0 0 Z " fill="#060402" transform="translate(70.375,236.1875)"/>
<path d="M0 0 C5.78621214 3.19239291 9.06885664 6.81401974 11.0390625 13.125 C11.93475558 19.34056713 11.55373423 24.85032755 8.375 30.33984375 C5.02807534 34.8121963 0.56030695 38.84098966 -4.9609375 40.125 C-11.798874 40.88477072 -17.33561808 40.27759631 -22.9609375 36.125 C-28.13102403 31.06980428 -31.26248638 26.83484023 -31.3984375 19.4375 C-31.28550745 12.98720129 -30.49426747 8.7993187 -25.9609375 4.125 C-17.66199181 -3.22134298 -10.11445987 -5.00509355 0 0 Z " fill="#050302" transform="translate(223.9609375,441.875)"/>
<path d="M0 0 C5.07127999 2.84880669 8.49450773 6.99957568 10.75 12.375 C11.54782056 18.56069967 11.01130938 23.97345634 7.75 29.375 C2.99441599 34.22783522 -0.51164819 37.51036521 -7.4375 37.625 C-13.15952972 37.54282986 -17.602695 36.85684843 -21.9375 32.79296875 C-26.98378842 27.22506878 -28.80447631 22.47550522 -28.625 14.9375 C-27.87760348 9.83029047 -25.29253613 6.17171669 -21.46484375 2.8046875 C-14.83502372 -2.12193036 -7.64269394 -3.49504599 0 0 Z " fill="#764031" transform="translate(367.25,15.625)"/>
<path d="M0 0 C3.58133431 3.39954069 6.60990395 7.33283164 7.3359375 12.296875 C7.44498295 19.14492902 6.33561831 24.40849864 1.57421875 29.53515625 C-3.72740827 34.23401431 -8.49682042 35.52754399 -15.43359375 35.3828125 C-20.92293129 34.5640072 -24.64567709 31.42560306 -28.375 27.5 C-31.93056813 22.02989519 -32.67709191 17.4379231 -32 11 C-30.23073787 4.58642479 -26.40463066 0.67224425 -21 -3 C-13.61411765 -5.51032937 -6.32366335 -4.50112282 0 0 Z " fill="#764031" transform="translate(355,109)"/>
<path d="M0 0 C0.21914063 0.98097656 0.43828125 1.96195313 0.6640625 2.97265625 C3.22839072 14.0382299 6.36269544 24.95911709 12.21484375 34.79296875 C14 38 14 38 13.5625 40.25 C9.95377732 44.2917694 5.75472245 45.69632981 0.51953125 46.2734375 C-6.51074877 46.53719981 -11.46946827 45.48885876 -17 41 C-23.33912835 34.14039585 -24.37422899 28.71020973 -24.26953125 19.44921875 C-23.75470236 12.86090123 -20.8350495 9.60819803 -16.0625 5.1875 C-10.59535884 0.68870856 -7.0762046 -0.07431253 0 0 Z " fill="#763F31" transform="translate(287,139)"/>
<path d="M0 0 C1.875 1.9375 1.875 1.9375 1.875 4.9375 C0.54003906 6.28100586 0.54003906 6.28100586 -1.359375 7.65234375 C-2.06900391 8.16796875 -2.77863281 8.68359375 -3.50976562 9.21484375 C-4.29029297 9.76269531 -5.07082031 10.31054688 -5.875 10.875 C-6.67615234 11.44476563 -7.47730469 12.01453125 -8.30273438 12.6015625 C-18.92893614 20.04730016 -30.04790545 26.80251222 -41.53125 32.84375 C-42.33884766 33.26978516 -43.14644531 33.69582031 -43.97851562 34.13476562 C-46.125 34.9375 -46.125 34.9375 -49.125 33.9375 C-51.19561159 24.37161669 -50.69622704 17.35316106 -45.89453125 8.671875 C-41.21803143 1.44549558 -35.1855077 -3.6036702 -26.70703125 -5.64453125 C-16.60950309 -7.27907817 -8.53607637 -5.6338104 0 0 Z " fill="#764031" transform="translate(351.125,402.0625)"/>
<path d="M0 0 C4.79765866 2.39882933 7.565249 5.22414226 10 10 C10.65293024 15.22344192 9.845108 18.58517724 7 23 C2.67899005 26.89944801 0.00536835 28.36020885 -5.90234375 28.28515625 C-10.21394851 27.69903493 -13.03150384 25.10208184 -15.8125 21.9375 C-18.23959201 17.97750777 -18.38595477 14.55426632 -18 10 C-14.19674018 2.53975959 -8.39570848 -1.64555886 0 0 Z " fill="#753F31" transform="translate(437,106)"/>
<path d="M0 0 C3.15576082 2.07993327 4.34779653 3.30699132 5.75 6.8125 C6.32577311 10.7549464 6.13848382 13.86287288 4.625 17.5625 C1.32875265 21.51799682 -1.61000646 23.57821521 -6.75 24.3125 C-10.9836682 23.70769026 -13.02010591 22.60195399 -16.25 19.8125 C-18.89201025 15.76141762 -19.95236884 12.6287435 -19.25 7.8125 C-14.88460743 -0.43324152 -8.98146372 -3.28168867 0 0 Z " fill="#753F30" transform="translate(256.25,389.1875)"/>
<path d="M0 0 C3.43761572 2.12108204 5.77560839 4.1042085 7 8 C7.4650834 12.18575059 7.26947631 14.46104738 5.375 18.25 C1.85074817 22.33071264 -1.15392263 23.69791461 -6.4375 24.5625 C-11.18913722 23.81224149 -13.89129113 21.60926369 -17 18 C-18.24443369 14.26669892 -18.65860234 10.8711182 -18 7 C-13.81025566 -0.65885265 -7.93261309 -1.96898789 0 0 Z " fill="#633529" transform="translate(466,269)"/>
<path d="M0 0 C3.8026029 2.0050088 5.61790841 3.42686262 8 7 C8.77286121 11.7180481 8.42364132 15.19654232 6.1875 19.4375 C3.90277746 22.11388926 2.2738156 23.7917169 -1.26953125 24.37109375 C-8.98271423 24.57251327 -8.98271423 24.57251327 -12.5 21.75 C-15.5835382 18.35810798 -16.78565335 16.64332434 -17.375 12.125 C-16.80558393 7.37986605 -14.44116002 4.60128892 -11.3125 1.125 C-7.59900857 -0.6815634 -4.04163279 -0.64441979 0 0 Z " fill="#753F31" transform="translate(329,244)"/>
<path d="M0 0 C3.00685874 1.61907778 5.2581079 3.05577368 7.375 5.75 C8.33387734 9.20195844 8.5738278 12.48005629 8 16 C5.90637823 19.43952148 3.88092169 21.78028175 0 23 C-3.31733709 23.43002518 -5.80489486 23.71759662 -8.75 21.94921875 C-11.63255657 19.60021231 -13.78557931 17.78918246 -14.23828125 14.01171875 C-14.36800555 9.94929982 -14.37432746 7.62833539 -12.25 4.0625 C-8.27587957 0.41955627 -5.45608596 -0.65473031 0 0 Z " fill="#633529" transform="translate(217,449)"/>
<path d="M0 0 C4.1657644 1.7588783 6.17507027 3.86989588 8 8 C8.59866575 12.01961286 8.18471519 13.66878655 6.1875 17.25 C4.00736386 19.99074258 2.46430532 21.76417555 -1.0859375 22.3359375 C-5.11172399 22.40463693 -7.40531432 22.35428083 -10.9375 20.25 C-13.78206465 17.14683856 -14.82909642 15.31026074 -15.375 11.125 C-14.89861498 7.15512486 -13.46959574 5.10463464 -11 2 C-7.28612182 -0.47591878 -4.30417439 -0.53907468 0 0 Z " fill="#743F30" transform="translate(64,244)"/>
<path d="M0 0 C3.3125 1.625 3.3125 1.625 6 4 C6.9375 7.1875 6.9375 7.1875 7 10 C4.22082396 12.77917604 -3.15432312 11.98169035 -6.88671875 12.0625 C-9.25871485 12.0625 -11.628472 12.04541224 -14 12 C-13.63166144 5.61546499 -13.63166144 5.61546499 -10.5625 2.625 C-6.69634828 0.17329403 -4.62896771 -0.44509305 0 0 Z " fill="#743E30" transform="translate(217,449)"/>
</svg>
