<?xml version="1.0" encoding="UTF-8"?>
<svg version="1.1" xmlns="http://www.w3.org/2000/svg" width="360" height="360" viewBox="0 0 360 360">
<!-- transparent background — gray fill removed -->
<path d="M0 0 C3.7314219 1.88899077 6.39237262 4.11142221 9.125 7.3125 C10.10726562 8.39917969 10.10726562 8.39917969 11.109375 9.5078125 C13.8250394 13.28658583 14.87712069 17.28312935 16.10351562 21.69726562 C17.15767411 25.19338046 18.34138365 27.81162384 20.72265625 30.53515625 C25.75195161 36.34951235 24.55594678 43.96246326 24.125 51.3125 C22.43454073 61.41227782 16.99449956 70.83686813 10.125 78.3125 C9.05953047 75.1160914 9.05072162 72.65502724 9.125 69.3125 C8.7125 70.199375 8.3 71.08625 7.875 72 C2.39543525 82.37203327 -8.53480099 89.59708637 -19.5625 93.1875 C-22.97197236 94.84616223 -24.59022803 97.30965683 -26.875 100.3125 C-24.92085743 104.55465875 -22.1854156 108.12199556 -19.43359375 111.875 C-18.0014552 114.11473548 -17.31317721 115.71945131 -16.875 118.3125 C-16.21757812 118.33828125 -15.56015625 118.3640625 -14.8828125 118.390625 C-8.31880665 118.78197494 -2.03330268 119.77345515 4.375 121.1875 C5.49044189 121.42968262 5.49044189 121.42968262 6.62841797 121.67675781 C11.65201322 122.82532676 16.33354741 124.41543167 21.125 126.3125 C21.125 126.6425 21.125 126.9725 21.125 127.3125 C17.446724 127.50609347 14.19585542 127.17048759 10.625 126.375 C-12.60258086 121.5657652 -37.63937823 123.91294418 -60.875 127.3125 C-62.27599063 127.51207737 -63.67702453 127.71135145 -65.078125 127.91015625 C-66.00109375 128.04292969 -66.9240625 128.17570313 -67.875 128.3125 C-60.54928332 120.98678332 -46.71032364 119.86544584 -36.875 118.3125 C-36.653149 116.08587999 -36.653149 116.08587999 -38.7734375 114.18359375 C-39.59070313 113.38050781 -40.40796875 112.57742187 -41.25 111.75 C-42.46816406 110.54150391 -42.46816406 110.54150391 -43.7109375 109.30859375 C-45.71006358 107.27926077 -45.71006358 107.27926077 -47.875 106.3125 C-47.875 104.9925 -47.875 103.6725 -47.875 102.3125 C-51.418562 104.45521473 -54.95968622 106.6019229 -58.5 108.75 C-59.54567139 109.38365479 -60.59134277 110.01730957 -61.66870117 110.67016602 C-68.69374444 114.94201258 -75.60927249 119.33717831 -82.42578125 123.93359375 C-83.23402344 124.38863281 -84.04226562 124.84367187 -84.875 125.3125 C-85.535 124.9825 -86.195 124.6525 -86.875 124.3125 C-86.2975 123.45785156 -85.72 122.60320312 -85.125 121.72265625 C-84.37487942 120.60685189 -83.62488596 119.49096205 -82.875 118.375 C-82.4934375 117.81103516 -82.111875 117.24707031 -81.71875 116.66601562 C-79.73493812 114.19361084 -79.73493812 114.19361084 -78.875 111.3125 C-79.71804687 111.8178125 -80.56109375 112.323125 -81.4296875 112.84375 C-83.07324219 113.81828125 -83.07324219 113.81828125 -84.75 114.8125 C-86.38582031 115.78703125 -86.38582031 115.78703125 -88.0546875 116.78125 C-90.875 118.3125 -90.875 118.3125 -92.875 118.3125 C-94.44681334 113.59705997 -94.79636641 109.21524534 -93.875 104.3125 C-91.69006616 101.03793682 -88.93261518 98.7596357 -85.875 96.3125 C-84.49539764 95.13035002 -83.12023067 93.94300006 -81.75 92.75 C-81.09644531 92.18410156 -80.44289062 91.61820312 -79.76953125 91.03515625 C-73.35778032 85.27151093 -73.35778032 85.27151093 -70.875 77.3125 C-71.535 76.9825 -72.195 76.6525 -72.875 76.3125 C-72.33504102 71.67930358 -70.28290298 68.36470742 -67.75 64.5625 C-67.34692627 63.94487793 -66.94385254 63.32725586 -66.52856445 62.69091797 C-63.68611678 58.38765102 -60.60220515 54.34531857 -57.36328125 50.33203125 C-55.88533446 48.3265234 -54.81290641 46.37361873 -53.75 44.125 C-48.96585861 34.0802882 -40.24348142 28.80571997 -30.0625 24.875 C-26.22728161 23.58377318 -22.95917722 22.87096733 -18.875 23.3125 C-18.38 24.7975 -18.38 24.7975 -17.875 26.3125 C-18.11721271 21.34713954 -19.66346792 18.56433848 -22.91015625 14.9921875 C-26.45756624 11.95961037 -30.61285155 10.14033837 -34.875 8.3125 C-34.875 7.9825 -34.875 7.6525 -34.875 7.3125 C-30.875 7.3125 -26.875 7.3125 -22.875 7.3125 C-28.15805817 5.62192139 -33.54599269 6.02061944 -38.875 7.3125 C-37.93605483 4.96513709 -37.29713961 3.58660423 -35.1484375 2.19140625 C-32.38577558 1.12336685 -30.20538291 1.08118705 -27.25 1.125 C-25.80753906 1.13466797 -25.80753906 1.13466797 -24.3359375 1.14453125 C-21.875 1.3125 -21.875 1.3125 -19.875 2.3125 C-19.545 1.3225 -19.215 0.3325 -18.875 -0.6875 C-12.67928933 -2.75273689 -6.03106178 -2.50956933 0 0 Z " fill="#131211" transform="translate(214.875,116.6875)"/>
<path d="M0 0 C1.231394 2.46278801 1.07159196 4.2795055 1 7 C2.32 7.33 3.64 7.66 5 8 C5.33 7.34 5.66 6.68 6 6 C9.78557181 7.48748738 11.41567193 9.55349866 13.6875 12.875 C14.28949219 13.73867187 14.89148438 14.60234375 15.51171875 15.4921875 C16.84851121 17.74473543 17.55417894 19.44395924 18 22 C18.65742188 22.02578125 19.31484375 22.0515625 19.9921875 22.078125 C26.55619335 22.46947494 32.84169732 23.46095515 39.25 24.875 C39.99362793 25.03645508 40.73725586 25.19791016 41.50341797 25.36425781 C46.52701322 26.51282676 51.20854741 28.10293167 56 30 C56 30.33 56 30.66 56 31 C52.321724 31.19359347 49.07085542 30.85798759 45.5 30.0625 C22.27241914 25.2532652 -2.76437823 27.60044418 -26 31 C-27.40099063 31.19957737 -28.80202453 31.39885145 -30.203125 31.59765625 C-31.58757812 31.79681641 -31.58757812 31.79681641 -33 32 C-25.67428332 24.67428332 -11.83532364 23.55294584 -2 22 C-2 21.34 -2 20.68 -2 20 C-2.825 19.21625 -3.65 18.4325 -4.5 17.625 C-7 15 -7 15 -7 11 C-6.34 11 -5.68 11 -5 11 C-5.28875 10.29875 -5.5775 9.5975 -5.875 8.875 C-6 6 -6 6 -4.73046875 4.33203125 C-3.19986541 2.82293521 -1.64278493 1.38565338 0 0 Z " fill="#151312" transform="translate(180,213)"/>
<path d="M0 0 C0 1.32 0 2.64 0 4 C0.56203125 4.23460937 1.1240625 4.46921875 1.703125 4.7109375 C4.54635891 6.30663 6.48098127 8.28924543 8.75 10.625 C9.54921875 11.44226563 10.3484375 12.25953125 11.171875 13.1015625 C11.77515625 13.72804687 12.3784375 14.35453125 13 15 C10.22312336 17.77687664 7.91700485 17.69310559 4.0625 18.25 C2.81597656 18.44078125 1.56945312 18.6315625 0.28515625 18.828125 C-3 19 -3 19 -6 17 C-7.32567199 16.31822584 -8.65753688 15.64808564 -10 15 C-10 13.68 -10 12.36 -10 11 C-12.475 10.01 -12.475 10.01 -15 9 C-4.33333333 0 -4.33333333 0 0 0 Z " fill="#ECECEC" transform="translate(167,219)"/>
<path d="M0 0 C7.63201109 0.26968237 14.86906552 1.22708699 22.3125 2.875 C23.42214111 3.11718262 23.42214111 3.11718262 24.55419922 3.36425781 C29.55717329 4.51629521 34.22594782 6.11195676 39 8 C39 8.33 39 8.66 39 9 C35.32251111 9.19355205 32.07683066 8.85740209 28.5078125 8.05859375 C22.78028957 6.87813589 17.07480503 6.37531214 11.25 5.9375 C-0.80066345 4.99919223 -0.80066345 4.99919223 -6 4 C-5.34 3.67 -4.68 3.34 -4 3 C-4 2.34 -4 1.68 -4 1 C-2.68 1 -1.36 1 0 1 C0 0.67 0 0.34 0 0 Z " fill="#0F0D0B" transform="translate(197,235)"/>
<path d="M0 0 C1 2 1 2 0.72265625 4.2734375 C1.12846182 8.26290638 3.60372486 10.06863283 6.4375 12.625 C11.8862748 17.65882441 11.8862748 17.65882441 13 21 C7.5388601 22.23316062 7.5388601 22.23316062 4 21 C-0.10087741 16.99727054 -3.03111418 11.85930372 -6 7 C-4.02 4.69 -2.04 2.38 0 0 Z " fill="#F2F1F1" transform="translate(180,213)"/>
<path d="M0 0 C0.99386719 0.00902344 1.98773438 0.01804687 3.01171875 0.02734375 C4.15060547 0.04474609 4.15060547 0.04474609 5.3125 0.0625 C5.3125 0.3925 5.3125 0.7225 5.3125 1.0625 C2.0125 1.3925 -1.2875 1.7225 -4.6875 2.0625 C-4.6875 3.3825 -4.6875 4.7025 -4.6875 6.0625 C-6.6675 6.0625 -8.6475 6.0625 -10.6875 6.0625 C-10.6875 7.0525 -10.6875 8.0425 -10.6875 9.0625 C-11.56792969 8.97871094 -12.44835937 8.89492187 -13.35546875 8.80859375 C-15.09763672 8.65583984 -15.09763672 8.65583984 -16.875 8.5 C-18.02355469 8.39558594 -19.17210937 8.29117188 -20.35546875 8.18359375 C-23.37381199 8.07390015 -25.77673936 8.32247611 -28.6875 9.0625 C-27.74855483 6.71513709 -27.10963961 5.33660423 -24.9609375 3.94140625 C-22.19827558 2.87336685 -20.01788291 2.83118705 -17.0625 2.875 C-15.62003906 2.88466797 -15.62003906 2.88466797 -14.1484375 2.89453125 C-11.6875 3.0625 -11.6875 3.0625 -9.6875 4.0625 C-9.3575 3.0725 -9.0275 2.0825 -8.6875 1.0625 C-5.53819107 0.01273036 -3.29935544 -0.03881595 0 0 Z " fill="#1F1E1D" transform="translate(204.6875,114.9375)"/>
<path d="M0 0 C2.85400057 2.53688939 4.44715305 4.88236412 6.125 8.25 C7.2708982 10.40385733 7.2708982 10.40385733 9 12 C12.42684655 12.69484446 15.55252886 12.48197655 19 12 C19 12.66 19 13.32 19 14 C15.7 14 12.4 14 9 14 C9 14.66 9 15.32 9 16 C6.03 15.505 6.03 15.505 3 15 C3 14.01 3 13.02 3 12 C2.175 11.195625 1.35 10.39125 0.5 9.5625 C-2 7 -2 7 -2 3 C-1.34 3 -0.68 3 0 3 C0 2.01 0 1.02 0 0 Z " fill="#1B1A18" transform="translate(175,221)"/>
<path d="M0 0 C0.99 0.33 1.98 0.66 3 1 C2.34 1.66 1.68 2.32 1 3 C0.9175 3.763125 0.835 4.52625 0.75 5.3125 C-0.36261939 9.29938615 -2.72014853 10.55755742 -6 13 C-6.33 12.34 -6.66 11.68 -7 11 C-5.56640625 8.3984375 -5.56640625 8.3984375 -3.5625 5.375 C-2.90378906 4.37210938 -2.24507812 3.36921875 -1.56640625 2.3359375 C-1.04949219 1.56507813 -0.53257812 0.79421875 0 0 Z " fill="#1F1E1D" transform="translate(151,175)"/>
<path d="M0 0 C0.99 0.33 1.98 0.66 3 1 C2.34 1.66 1.68 2.32 1 3 C0.59952556 5.32275177 0.2602896 7.65739357 0 10 C-0.99 10.33 -1.98 10.66 -3 11 C-3.33 13.64 -3.66 16.28 -4 19 C-5.65 18.67 -7.3 18.34 -9 18 C-8.45207105 13.3817417 -6.41035512 10.01850353 -3.9375 6.1875 C-3.56044922 5.59001953 -3.18339844 4.99253906 -2.79492188 4.37695312 C-1.87010434 2.91363423 -0.93597935 1.45620477 0 0 Z " fill="#161513" transform="translate(151,175)"/>
<path d="M0 0 C1.98 0 3.96 0 6 0 C6.68359375 1.734375 6.68359375 1.734375 7 4 C5.78515625 6.140625 5.78515625 6.140625 4.0625 8.25 C3.49660156 8.95640625 2.93070313 9.6628125 2.34765625 10.390625 C1.68056641 11.18726563 1.68056641 11.18726563 1 12 C-0.51953125 10.66796875 -0.51953125 10.66796875 -2 9 C-1.6875 6.3125 -1.6875 6.3125 -1 4 C-0.34 4 0.32 4 1 4 C0.67 2.68 0.34 1.36 0 0 Z " fill="#EAE9E9" transform="translate(138,193)"/>
<path d="M0 0 C0.33 0 0.66 0 1 0 C1 5.94 1 11.88 1 18 C2.32 16.68 3.64 15.36 5 14 C5.66 14.66 6.32 15.32 7 16 C5.35 17.65 3.7 19.3 2 21 C1.01 20.67 0.02 20.34 -1 20 C-1 19.34 -1 18.68 -1 18 C-2.65 18.33 -4.3 18.66 -6 19 C-5.38125 18.278125 -4.7625 17.55625 -4.125 16.8125 C-0.77202435 11.90193638 -0.64962098 5.76111234 0 0 Z " fill="#E1E0E0" transform="translate(224,176)"/>
<path d="M0 0 C6.66422528 0.44428169 12.74047414 2.79015097 19 5 C19 5.33 19 5.66 19 6 C15.321724 6.19359347 12.07085542 5.85798759 8.5 5.0625 C2.0603754 3.67414057 -4.4356157 3.35943315 -11 3 C-11 2.67 -11 2.34 -11 2 C-10.28972656 1.93941406 -9.57945312 1.87882813 -8.84765625 1.81640625 C-7.46900391 1.69072266 -7.46900391 1.69072266 -6.0625 1.5625 C-5.14597656 1.48128906 -4.22945312 1.40007812 -3.28515625 1.31640625 C-1.03840268 1.23955024 -1.03840268 1.23955024 0 0 Z " fill="#3B3B3B" transform="translate(217,238)"/>
<path d="M0 0 C1.60407328 -0.02708567 3.2082785 -0.04643483 4.8125 -0.0625 C5.70582031 -0.07410156 6.59914062 -0.08570312 7.51953125 -0.09765625 C10 0 10 0 13 1 C13.12375 1.763125 13.2475 2.52625 13.375 3.3125 C13.88102792 6.20267136 13.88102792 6.20267136 16 9 C12.0167039 9 11.09013581 7.47210865 8 5 C5.38234176 3.55980142 2.7071031 2.26286695 0 1 C0 0.67 0 0.34 0 0 Z " fill="#1A1917" transform="translate(180,124)"/>
<path d="M0 0 C0 0.99 0 1.98 0 3 C0.99 3.33 1.98 3.66 3 4 C-7.395 5.485 -7.395 5.485 -18 7 C-15.43320517 4.43320517 -12.94989318 3.66651446 -9.5625 2.375 C-8.40878906 1.92898437 -7.25507813 1.48296875 -6.06640625 1.0234375 C-3 0 -3 0 0 0 Z " fill="#2D2C2B" transform="translate(165,238)"/>
<path d="M0 0 C-0.33 0.66 -0.66 1.32 -1 2 C-0.34 2.33 0.32 2.66 1 3 C1 3.33 1 3.66 1 4 C-3.62 4 -8.24 4 -13 4 C-13 3.01 -13 2.02 -13 1 C-8.23947038 -0.97387813 -5.03511899 -1.0070238 0 0 Z " fill="#1A1918" transform="translate(178,237)"/>
<path d="M0 0 C0.66 0.33 1.32 0.66 2 1 C2 1.66 2 2.32 2 3 C2.66 3.33 3.32 3.66 4 4 C2.83917375 7.48247874 2.09067524 7.88819244 -0.9375 9.75 C-1.64777344 10.19859375 -2.35804688 10.6471875 -3.08984375 11.109375 C-3.72019531 11.40328125 -4.35054687 11.6971875 -5 12 C-5.66 11.67 -6.32 11.34 -7 11 C-4.69 7.37 -2.38 3.74 0 0 Z " fill="#1A1917" transform="translate(135,230)"/>
<path d="M0 0 C1.32229189 2.64458379 1.09677194 4.67761301 1.0625 7.625 C1.05347656 8.62789062 1.04445312 9.63078125 1.03515625 10.6640625 C1.02355469 11.43492187 1.01195312 12.20578125 1 13 C0.01 13.495 0.01 13.495 -1 14 C-3.475 10.04 -3.475 10.04 -6 6 C-4.02 4.02 -2.04 2.04 0 0 Z " fill="#E5E5E3" transform="translate(180,213)"/>
<path d="M0 0 C1.69076935 3.19169793 2.33944976 5.63303025 2.625 9.25 C2.69976562 10.14203125 2.77453125 11.0340625 2.8515625 11.953125 C2.92503906 12.96632812 2.92503906 12.96632812 3 14 C3.66 13.67 4.32 13.34 5 13 C5.8125 15.125 5.8125 15.125 6 18 C4.55576519 20.30107561 2.89127865 22.01646386 1 24 C0.01956036 21.05868109 -0.11621202 19.17498335 -0.09765625 16.11328125 C-0.09443359 15.17548828 -0.09121094 14.23769531 -0.08789062 13.27148438 C-0.07532227 11.80678711 -0.07532227 11.80678711 -0.0625 10.3125 C-0.05798828 9.32443359 -0.05347656 8.33636719 -0.04882812 7.31835938 C-0.03704303 4.87884526 -0.02059011 2.43945311 0 0 Z " fill="#424240" transform="translate(224,171)"/>
<path d="M0 0 C0 3.63195496 -0.95453155 4.74713911 -3 7.6875 C-3.556875 8.49574219 -4.11375 9.30398437 -4.6875 10.13671875 C-5.120625 10.75160156 -5.55375 11.36648437 -6 12 C-6.66 11.67 -7.32 11.34 -8 11 C-8 10.01 -8 9.02 -8 8 C-8.66 7.34 -9.32 6.68 -10 6 C-6.7 4.02 -3.4 2.04 0 0 Z " fill="#DBDBD9" transform="translate(137,226)"/>
<path d="M0 0 C0.45375 0.825 0.9075 1.65 1.375 2.5 C4.43867469 5.41778542 5.18633543 5.34127949 9.25 5.3125 C10.83473048 5.23234745 12.41906283 5.1357675 14 5 C14 5.66 14 6.32 14 7 C10.7 7 7.4 7 4 7 C4 7.66 4 8.32 4 9 C1.03 8.505 1.03 8.505 -2 8 C-1.34 7.67 -0.68 7.34 0 7 C0 4.69 0 2.38 0 0 Z " fill="#3F3E3D" transform="translate(180,228)"/>
<path d="M0 0 C0.99386719 0.00902344 1.98773438 0.01804687 3.01171875 0.02734375 C4.15060547 0.04474609 4.15060547 0.04474609 5.3125 0.0625 C5.3125 0.3925 5.3125 0.7225 5.3125 1.0625 C2.0125 1.3925 -1.2875 1.7225 -4.6875 2.0625 C-4.6875 3.3825 -4.6875 4.7025 -4.6875 6.0625 C-6.3375 5.7325 -7.9875 5.4025 -9.6875 5.0625 C-9.375 3.125 -9.375 3.125 -8.6875 1.0625 C-5.53819107 0.01273036 -3.29935544 -0.03881595 0 0 Z " fill="#6A6A6A" transform="translate(204.6875,114.9375)"/>
<path d="M0 0 C0.99 0.33 1.98 0.66 3 1 C2.34 1.66 1.68 2.32 1 3 C0.9175 3.763125 0.835 4.52625 0.75 5.3125 C-0.36261939 9.29938615 -2.72014853 10.55755742 -6 13 C-6.33 12.34 -6.66 11.68 -7 11 C-5.56640625 8.3984375 -5.56640625 8.3984375 -3.5625 5.375 C-2.90378906 4.37210938 -2.24507812 3.36921875 -1.56640625 2.3359375 C-1.04949219 1.56507813 -0.53257812 0.79421875 0 0 Z " fill="#1F1E1D" transform="translate(151,175)"/>
<path d="M0 0 C0.99 0.33 1.98 0.66 3 1 C2.60196439 3.88575819 2.20990931 4.82189513 -0.0625 6.75 C-0.701875 7.1625 -1.34125 7.575 -2 8 C-2.33 6.68 -2.66 5.36 -3 4 C-2.34 4 -1.68 4 -1 4 C-0.67 2.68 -0.34 1.36 0 0 Z " fill="#232220" transform="translate(188,210)"/>
<path d="M0 0 C2.64 0.33 5.28 0.66 8 1 C6 3 6 3 3.6875 3.265625 C2.800625 3.26046875 1.91375 3.2553125 1 3.25 C-0.3303125 3.25773438 -0.3303125 3.25773438 -1.6875 3.265625 C-4 3 -4 3 -6 1 C-3.03 1.495 -3.03 1.495 0 2 C0 1.34 0 0.68 0 0 Z " fill="#1A1917" transform="translate(208,236)"/>
<path d="M0 0 C0.99 1.32 1.98 2.64 3 4 C2.01 4.495 2.01 4.495 1 5 C1.66 6.32 2.32 7.64 3 9 C2.01 9 1.02 9 0 9 C-0.66 8.34 -1.32 7.68 -2 7 C-2 5.68 -2 4.36 -2 3 C-1.34 3 -0.68 3 0 3 C0 2.01 0 1.02 0 0 Z " fill="#232220" transform="translate(175,221)"/>
<path d="M0 0 C0.66 0.33 1.32 0.66 2 1 C0.6875 3.5 0.6875 3.5 -1 6 C-1.99 6 -2.98 6 -4 6 C-4.33 5.34 -4.66 4.68 -5 4 C-4.34 3.01 -3.68 2.02 -3 1 C-2.34 1 -1.68 1 -1 1 C-0.67 0.67 -0.34 0.34 0 0 Z " fill="#EAEAE9" transform="translate(126,212)"/>
<path d="M0 0 C0.99 0.66 1.98 1.32 3 2 C2.625 4.4375 2.625 4.4375 2 7 C1.01 7.495 1.01 7.495 0 8 C-0.66 7.67 -1.32 7.34 -2 7 C-1.42415568 4.61435923 -0.77772405 2.33317216 0 0 Z " fill="#1A1818" transform="translate(220,184)"/>
<path d="M0 0 C3.3 0 6.6 0 10 0 C9.34 1.32 8.68 2.64 8 4 C2.25 2.25 2.25 2.25 0 0 Z " fill="#22211F" transform="translate(180,124)"/>
<path d="M0 0 C0.66 0 1.32 0 2 0 C2.66 2.64 3.32 5.28 4 8 C2.68 7.67 1.36 7.34 0 7 C-0.38133299 5.0085944 -0.71325582 3.00720923 -1 1 C-0.67 0.67 -0.34 0.34 0 0 Z " fill="#141312" transform="translate(189,222)"/>
<path d="M0 0 C0.66 0 1.32 0 2 0 C2.33 0.66 2.66 1.32 3 2 C4.32 2 5.64 2 7 2 C7.33 1.34 7.66 0.68 8 0 C8.33 0.99 8.66 1.98 9 3 C6.09399739 4.25664978 4.20395416 5 1 5 C0.67 3.35 0.34 1.7 0 0 Z " fill="#181816" transform="translate(166,218)"/>
<path d="M0 0 C0.66 1.32 1.32 2.64 2 4 C0.68 4.99 -0.64 5.98 -2 7 C-2.66 6.67 -3.32 6.34 -4 6 C-2.68 4.02 -1.36 2.04 0 0 Z " fill="#252423" transform="translate(132,235)"/>
<path d="M0 0 C1 2 1 2 1 6 C-0.65 5.67 -2.3 5.34 -4 5 C-4 4.01 -4 3.02 -4 2 C-2.68 1.34 -1.36 0.68 0 0 Z " fill="#1B1B1A" transform="translate(146,188)"/>
</svg>
