<?xml version="1.0" encoding="UTF-8"?>
<svg version="1.1" xmlns="http://www.w3.org/2000/svg" width="512" height="512">
<path d="M0 0 C8.49091754 6.89970622 14.30865668 15.7750908 20.42480469 24.71923828 C23.03680974 28.5012208 25.73751 32.21807225 28.4375 35.9375 C29.53001022 37.44656948 30.62245793 38.95568422 31.71484375 40.46484375 C32.52864502 41.58802002 32.52864502 41.58802002 33.35888672 42.73388672 C36.07648169 46.48644794 38.78797486 50.2434125 41.5 54 C44.78388543 58.54779486 48.06845048 63.09509379 51.35546875 67.640625 C56.65682231 74.97333833 61.94655437 82.31361844 67.19873047 89.68164062 C72.2098587 96.70564895 77.27069471 103.69378507 82.32666016 110.68554688 C85.05263139 114.45593019 87.77621534 118.22803694 90.5 122 C91.58332144 123.50000859 92.66665479 125.00000858 93.75 126.5 C95.91666667 129.5 98.08333333 132.5 100.25 135.5 C101.05473755 136.6142334 101.05473755 136.6142334 101.87573242 137.75097656 C102.95667191 139.24768701 104.03756401 140.74443168 105.1184082 142.24121094 C107.8629754 146.04182637 110.60841966 149.84180298 113.35546875 153.640625 C125.93348288 171.03727414 125.93348288 171.03727414 130.65234375 177.703125 C132.22290714 179.92116117 133.82154538 182.11462536 135.44140625 184.296875 C143.11921663 194.75880902 147.38560011 204.02192789 147.5625 217.0625 C147.57740479 217.86502197 147.59230957 218.66754395 147.60766602 219.49438477 C147.3981556 231.76128184 141.45617209 242.77305035 136.34912109 253.65673828 C134.43209166 257.74373262 132.53720954 261.84098812 130.640625 265.9375 C130.05674011 267.19699463 130.05674011 267.19699463 129.46105957 268.48193359 C125.54536538 276.94605451 121.76488949 285.46800546 118 294 C112.26277189 306.98810185 106.39573409 319.91052519 100.43731689 332.79858398 C96.43285998 341.4628774 92.47121517 350.14258976 88.6171875 358.875 C88.07973907 360.09177429 88.07973907 360.09177429 87.53143311 361.33312988 C85.82593334 365.19838579 84.12754654 369.0665648 82.43945312 372.93945312 C68.6083359 404.50748031 68.6083359 404.50748031 52 413 C40.02655364 417.44717743 27.52090444 420.09526952 15.078125 422.8515625 C13.04200398 423.30791748 11.00602228 423.76489441 8.97016907 424.22244263 C3.52558468 425.44446091 -1.92074573 426.65851805 -7.36744308 427.87107849 C-13.05472499 429.13868884 -18.74033461 430.4137518 -24.42602539 431.68847656 C-31.39980834 433.25164005 -38.37369445 434.8143306 -45.34828186 436.37390137 C-60.53316396 439.76987613 -75.7124105 443.18990778 -90.88671875 446.6328125 C-92.83726986 447.07520655 -94.78782121 447.51759955 -96.7383728 447.95999146 C-104.08861836 449.62738064 -111.43868435 451.29555697 -118.78820801 452.96612549 C-122.99588919 453.92245433 -127.20398258 454.8769497 -131.41236305 455.83019638 C-132.92920598 456.17414388 -134.44589652 456.51876439 -135.96240807 456.86417007 C-166.31574419 463.77705958 -166.31574419 463.77705958 -174 463 C-174.75023437 462.93039062 -175.50046875 462.86078125 -176.2734375 462.7890625 C-188.39357486 461.02399395 -200.2676877 454.21794687 -207.81640625 444.58203125 C-208.74019409 443.33170058 -209.655209 442.07485248 -210.5625 440.8125 C-211.06861816 440.12325439 -211.57473633 439.43400879 -212.09619141 438.72387695 C-213.17873273 437.24844863 -214.25775297 435.7704313 -215.33349609 434.29003906 C-217.01062642 431.98539763 -218.70036221 429.69057703 -220.39453125 427.3984375 C-223.34150934 423.41105597 -226.28083568 419.41812056 -229.21777344 415.42333984 C-232.72535438 410.65399074 -236.2389817 405.88909438 -239.75170898 401.12353516 C-242.65865573 397.17929 -245.56377129 393.23372455 -248.46484375 389.28515625 C-254.43743304 381.16028254 -260.44087274 373.06059382 -266.5 365 C-273.14470604 356.16039751 -279.71854559 347.27059733 -286.26611328 338.35888672 C-289.17371619 334.40320391 -292.08709487 330.45177906 -295 326.5 C-298.49111479 321.76379551 -301.98109802 317.02678478 -305.46484375 312.28515625 C-306.62223422 310.71081867 -307.7797864 309.13659997 -308.9375 307.5625 C-309.50879639 306.78567871 -310.08009277 306.00885742 -310.66870117 305.20849609 C-314.36990028 300.18555111 -318.1072658 295.19128815 -321.86425781 290.20996094 C-345.09779491 259.38330796 -345.09779491 259.38330796 -345.375 242.625 C-345.41238281 241.80644531 -345.44976562 240.98789062 -345.48828125 240.14453125 C-345.66525804 227.34320988 -339.10320494 215.64318585 -333.5289917 204.4432373 C-331.73495321 200.83728272 -329.96656029 197.21875135 -328.1953125 193.6015625 C-327.65905746 192.50859863 -327.65905746 192.50859863 -327.11196899 191.39355469 C-323.76563284 184.55802939 -320.55520555 177.66447797 -317.375 170.75 C-312.73053069 160.66736807 -307.96013851 150.65279492 -303.11016846 140.66809082 C-298.89614593 131.98775413 -294.78628203 123.26467888 -290.75 114.5 C-288.82698202 110.34985609 -286.89736176 106.20284515 -284.96142578 102.05871582 C-284.2871907 100.61496587 -283.61375686 99.17084158 -282.94091797 97.72644043 C-280.62372234 92.75591902 -278.28534366 87.79611708 -275.9239502 82.84643555 C-275.15243538 81.22221917 -274.38686385 79.59516384 -273.62780762 77.96508789 C-266.4789756 62.63378114 -258.63389845 51.1964786 -242.10296631 44.89581299 C-239.02893048 43.95994867 -235.94533665 43.14344484 -232.828125 42.36328125 C-231.60740295 42.04184647 -230.38668091 41.72041168 -229.12896729 41.38923645 C-226.33693097 40.6544146 -223.54209066 39.9316988 -220.74487305 39.21685791 C-215.5176535 37.87996955 -210.29902767 36.5108437 -205.08007812 35.14208984 C-193.44304026 32.09480049 -181.79783948 29.07937836 -170.1516037 26.06746674 C-164.40097777 24.57982738 -158.65093358 23.08994323 -152.90087891 21.60009766 C-151.75040888 21.30201077 -150.59993885 21.00392387 -149.41460609 20.69680405 C-147.09045673 20.09461143 -144.76630982 19.49240934 -142.44216537 18.89019775 C-138.96745262 17.98996919 -135.49265814 17.09005662 -132.01785278 16.19018555 C-118.61895162 12.71963789 -105.22304639 9.23786969 -91.83132935 5.73970222 C-89.20801071 5.05444874 -86.58460844 4.36951638 -83.96118164 3.68467712 C-76.78521183 1.81121336 -69.60949568 -0.06318541 -62.43518257 -1.94298458 C-59.58365557 -2.68956688 -56.73157869 -3.43403074 -53.87934494 -4.17790794 C-51.9704763 -4.67649627 -50.06232597 -5.17783221 -48.15420532 -5.67927551 C-47.02485565 -5.97347885 -45.89550598 -6.26768219 -44.73193359 -6.57080078 C-43.27719131 -6.95161301 -43.27719131 -6.95161301 -41.7930603 -7.34011841 C-27.24119228 -10.77810714 -12.36763854 -8.78308777 0 0 Z " fill="#C1175A" transform="translate(355,29)"/>
<path d="M0 0 C9.8919243 7.02491741 16.25121885 16.67949232 22.99902344 26.54736328 C25.61102849 30.3293458 28.31172875 34.04619725 31.01171875 37.765625 C32.10422897 39.27469448 33.19667668 40.78380922 34.2890625 42.29296875 C35.10286377 43.41614502 35.10286377 43.41614502 35.93310547 44.56201172 C38.65070044 48.31457294 41.36219361 52.0715375 44.07421875 55.828125 C47.35810418 60.37591986 50.64266923 64.92321879 53.9296875 69.46875 C59.23104106 76.80146333 64.52077312 84.14174344 69.77294922 91.50976562 C74.78407745 98.53377395 79.84491346 105.52191007 84.90087891 112.51367188 C87.62685014 116.28405519 90.35043409 120.05616194 93.07421875 123.828125 C94.15754019 125.32813359 95.24087354 126.82813358 96.32421875 128.328125 C98.49088542 131.328125 100.65755208 134.328125 102.82421875 137.328125 C103.6289563 138.4423584 103.6289563 138.4423584 104.44995117 139.57910156 C105.53089066 141.07581201 106.61178276 142.57255668 107.69262695 144.06933594 C110.43719415 147.86995137 113.18263841 151.66992798 115.9296875 155.46875 C128.55911043 172.93650265 128.55911043 172.93650265 134.39355469 181.17236328 C135.60164688 182.86659018 136.8254637 184.5486698 138.05078125 186.23046875 C142.43141186 192.3063735 146.80322614 198.42897791 148.57421875 205.828125 C148.24421875 206.488125 147.91421875 207.148125 147.57421875 207.828125 C137.71302958 200.45623976 127.8563558 193.08228257 118.11328125 185.5546875 C106.90785223 176.90593391 95.65805725 168.30404969 84.2890625 159.87109375 C82.27686302 158.35687745 80.29763312 156.82173456 78.328125 155.25390625 C77.78422119 154.82779053 77.24031738 154.4016748 76.67993164 153.96264648 C75.16934077 152.77773873 73.66831311 151.58066807 72.16796875 150.3828125 C69.79775882 148.60013392 69.79775882 148.60013392 67.65405273 149.06689453 C65.33629139 149.9152077 63.68520625 150.98393459 61.703125 152.453125 C60.97013184 152.99114746 60.23713867 153.52916992 59.48193359 154.08349609 C58.7080127 154.65922363 57.9340918 155.23495117 57.13671875 155.828125 C55.51583807 157.00810524 53.89474287 158.18779086 52.2734375 159.3671875 C49.41947298 161.45821101 46.58954152 163.57472521 43.78125 165.7265625 C42.67078545 166.55236921 41.56012341 167.37791044 40.44921875 168.203125 C39.49789063 168.93273437 38.5465625 169.66234375 37.56640625 170.4140625 C30.20799809 173.89153476 20.98594304 169.22604695 13.73242188 166.82421875 C12.88228516 166.55480469 12.03214844 166.28539062 11.15625 166.0078125 C10.01506714 165.63245361 10.01506714 165.63245361 8.85083008 165.24951172 C6.1094459 164.74209841 4.23578557 165.03290585 1.57421875 165.828125 C-0.76201968 167.70309319 -0.76201968 167.70309319 -0.48828125 170.765625 C0.28358941 174.05623972 0.28358941 174.05623972 3.32421875 175.453125 C4.72954396 175.94513613 6.14914579 176.3966381 7.57421875 176.828125 C8.68152344 177.18003906 9.78882813 177.53195313 10.9296875 177.89453125 C14.13735487 178.89845768 17.35160305 179.87345539 20.57421875 180.828125 C16.79938612 184.79709188 12.79153826 188.08238252 8.38671875 191.328125 C7.69328369 191.84366943 6.99984863 192.35921387 6.28540039 192.89038086 C-0.42683079 197.86481756 -7.20424572 202.74920515 -13.98828125 207.625 C-16.95990358 209.76362802 -19.91746836 211.91970869 -22.86328125 214.09375 C-23.55929443 214.60736084 -24.25530762 215.12097168 -24.97241211 215.65014648 C-26.28982333 216.62420431 -27.60580588 217.60019818 -28.92016602 218.57836914 C-33.31682276 221.828125 -33.31682276 221.828125 -34.42578125 221.828125 C-36.40578125 211.433125 -36.40578125 211.433125 -38.42578125 200.828125 C-41.06578125 200.828125 -43.70578125 200.828125 -46.42578125 200.828125 C-48.68118503 202.62204533 -48.68118503 202.62204533 -48.47265625 205.078125 C-47.87463791 210.6176633 -47.09114166 216.01135651 -45.828125 221.44140625 C-45.33330191 224.37671604 -45.10616343 226.85686307 -45.42578125 229.828125 C-47.12109375 231.8125 -47.12109375 231.8125 -49.55078125 233.578125 C-50.47117187 234.26003906 -51.3915625 234.94195312 -52.33984375 235.64453125 C-53.35820312 236.36511719 -54.3765625 237.08570313 -55.42578125 237.828125 C-56.46476563 238.57964844 -57.50375 239.33117187 -58.57421875 240.10546875 C-60.88752834 241.7736582 -63.21015323 243.42788352 -65.5390625 245.07421875 C-76.89683674 253.10705626 -88.12233607 261.3231118 -99.31030273 269.59008789 C-105.47687387 274.14183049 -111.67865363 278.64268953 -117.90234375 283.1159668 C-121.55983845 285.74723161 -125.20216492 288.39547942 -128.81640625 291.0859375 C-129.50959961 291.60067627 -130.20279297 292.11541504 -130.91699219 292.64575195 C-132.22536054 293.61939554 -133.53085876 294.59691169 -134.83300781 295.57885742 C-139.20441681 298.828125 -139.20441681 298.828125 -141.42578125 298.828125 C-142.85168106 291.26272231 -144.24465571 283.69187682 -145.59635639 276.11287594 C-146.22511795 272.59330975 -146.8648597 269.07651141 -147.53051758 265.5637207 C-148.29613102 261.52074521 -149.01242359 257.47035578 -149.7265625 253.41796875 C-149.97110672 252.16354477 -150.21565094 250.90912079 -150.46760559 249.61668396 C-152.12702559 239.84891339 -152.12702559 239.84891339 -149.23901367 235.63891602 C-147.21236818 233.61402931 -145.36019398 231.98028716 -143.11328125 230.265625 C-140.1211722 228.06425914 -140.1211722 228.06425914 -139.92578125 224.640625 C-140.17163937 221.70065117 -140.17163937 221.70065117 -142.42578125 219.828125 C-146.63058288 219.27486163 -148.17211962 220.33365108 -151.42578125 222.828125 C-152.41578125 222.498125 -153.40578125 222.168125 -154.42578125 221.828125 C-156.90805766 207.18194902 -159.38564364 192.53498608 -161.85765839 177.88707447 C-163.0055835 171.08571498 -164.15503816 164.28462063 -165.30810547 157.48413086 C-166.42057106 150.92307331 -167.52875852 144.36130253 -168.63432312 137.79907799 C-169.05712313 135.29377919 -169.48136387 132.7887231 -169.90705872 130.28391457 C-170.5023854 126.77950481 -171.09261493 123.27427235 -171.68164062 119.76879883 C-171.85930466 118.73014175 -172.03696869 117.69148468 -172.22001648 116.62135315 C-172.45981987 115.18484406 -172.45981987 115.18484406 -172.70446777 113.71931458 C-172.84458031 112.89062268 -172.98469284 112.06193079 -173.12905121 111.20812702 C-173.43875571 108.72405994 -173.47715786 106.32880145 -173.42578125 103.828125 C-170.89276885 104.25029373 -168.79874432 104.61677926 -166.55078125 105.890625 C-163.47314227 107.2484069 -160.74262444 107.01587084 -157.42578125 106.828125 C-156.01000648 105.64388174 -156.01000648 105.64388174 -156.36328125 102.265625 C-156.38390625 101.13125 -156.40453125 99.996875 -156.42578125 98.828125 C-157.534375 98.27382812 -158.64296875 97.71953125 -159.78515625 97.1484375 C-163.99869792 95.04166667 -168.21223958 92.93489583 -172.42578125 90.828125 C-173.13089844 90.60946777 -173.83601563 90.39081055 -174.5625 90.16552734 C-177.04964662 88.38033484 -177.25839456 86.54388879 -177.79376221 83.62145996 C-177.95965851 82.56360291 -177.95965851 82.56360291 -178.12890625 81.484375 C-178.32018097 80.39703064 -178.32018097 80.39703064 -178.51531982 79.28771973 C-178.91871704 76.97035268 -179.29726298 74.6496717 -179.67578125 72.328125 C-179.94503638 70.76405041 -180.21585139 69.20024349 -180.48828125 67.63671875 C-182.42578125 56.39177497 -182.42578125 56.39177497 -182.42578125 53.828125 C-183.67101562 53.83972656 -184.91625 53.85132813 -186.19921875 53.86328125 C-206.94947419 53.98651959 -227.68468401 53.37609103 -248.42578125 52.828125 C-248.42578125 52.168125 -248.42578125 51.508125 -248.42578125 50.828125 C-237.87118375 45.8241274 -226.87227574 43.10893585 -215.59765625 40.2421875 C-213.52181368 39.70722431 -211.44618619 39.17142597 -209.37075806 38.63485718 C-204.94497663 37.4923634 -200.51785306 36.35529186 -196.08953857 35.22265625 C-189.12216036 33.44060047 -182.15771653 31.64727662 -175.19384766 29.8515625 C-172.8285268 29.24174058 -170.46320085 28.63193842 -168.09786987 28.02215576 C-166.92068264 27.71866966 -165.74349541 27.41518356 -164.53063583 27.10250092 C-160.93392036 26.17574561 -157.3368897 25.2502229 -153.73977661 24.32501221 C-137.97136347 20.26790242 -122.21376112 16.17118032 -106.46484375 12.0390625 C-105.44788422 11.77236378 -104.43092468 11.50566505 -103.38314819 11.23088455 C-94.64097795 8.93818051 -85.89924179 6.64383169 -77.15905762 4.34356689 C-72.72301507 3.1761541 -68.28621668 2.01165587 -63.8488884 0.84914017 C-62.24476124 0.42825508 -60.64092734 0.00625019 -59.03743362 -0.41704178 C-18.48882308 -11.12028483 -18.48882308 -11.12028483 0 0 Z " fill="#E81D62" transform="translate(352.42578125,27.171875)"/>
<path d="M0 0 C6.15537917 0.58066601 11.9731388 1.55687626 17.96606445 3.05371094 C18.81307419 3.26040405 19.66008392 3.46709717 20.53276062 3.68005371 C23.31095467 4.35943549 26.08709762 5.04682846 28.86328125 5.734375 C30.8202092 6.21469635 32.777258 6.69452557 34.73442078 7.17388916 C39.88179498 8.43607567 45.02745276 9.70512723 50.17279053 10.97558594 C55.34395181 12.25106064 60.51679407 13.51967856 65.68945312 14.7890625 C83.46907637 19.15524749 101.24138623 23.54907873 119 28 C119.20678879 27.05420074 119.20678879 27.05420074 119.41775513 26.08929443 C120.12276716 23.55946928 120.94247584 22.86216708 122.9921875 21.265625 C123.91849976 20.53327637 123.91849976 20.53327637 124.86352539 19.78613281 C125.52731201 19.27920898 126.19109863 18.77228516 126.875 18.25 C127.88904907 17.46254395 127.88904907 17.46254395 128.92358398 16.65917969 C130.2950405 15.59859962 131.67027474 14.54288591 133.04931641 13.4921875 C134.79206892 12.15905817 136.51357424 10.80361942 138.23046875 9.4375 C139.16503906 8.715625 140.09960938 7.99375 141.0625 7.25 C141.87847656 6.61578125 142.69445312 5.9815625 143.53515625 5.328125 C146.57268994 3.69141905 148.59611961 3.66387273 152 4 C153.875 5.1875 153.875 5.1875 155 7 C155.3359375 9.34765625 155.3359375 9.34765625 155 12 C153.234375 14.140625 153.234375 14.140625 150.75 16.25 C149.84894531 17.01957031 148.94789063 17.78914063 148.01953125 18.58203125 C143.88668622 21.89151517 139.6629131 25.0523927 135.37109375 28.15234375 C132.9300871 29.78096516 132.9300871 29.78096516 132 32 C133.22187012 32.10852295 134.44374023 32.2170459 135.70263672 32.32885742 C145.67531508 33.4454195 155.4426702 36.10450798 165.19580078 38.39770508 C167.7870503 39.00513717 170.38050279 39.59126202 172.97900391 40.16821289 C189.83803302 43.9150228 204.49885408 48.79705195 219.44395447 57.52062988 C223.88714946 60.09223114 228.41952185 62.50056683 232.9375 64.9375 C234.76260241 65.93588631 236.5870679 66.93544066 238.41015625 67.9375 C244.22059047 71.12489138 250.04647758 74.28333526 255.875 77.4375 C256.87192871 77.97753662 257.86885742 78.51757324 258.89599609 79.07397461 C263.94175542 81.80665377 268.99020738 84.5341947 274.04296875 87.25390625 C283.94281459 92.58934468 293.7937477 97.99021869 303.5625 103.5625 C312.26139574 108.52358898 321.07118041 113.22228277 329.97070312 117.8125 C336.46944641 121.17251738 342.84962932 124.67853421 349.16015625 128.37890625 C352.0599504 130.03422203 355.01287115 131.50822857 358 133 C361.34599043 134.78934979 364.67244993 136.61413658 368 138.4375 C369.95050326 139.5039384 371.90102466 140.57034361 373.8515625 141.63671875 C375.35831543 142.46115479 375.35831543 142.46115479 376.89550781 143.30224609 C382.05288526 146.12266154 387.21411392 148.9360116 392.375 151.75 C394.23699703 152.76559225 396.09897787 153.78121419 397.9609375 154.796875 C398.74259277 155.22323242 399.52424805 155.64958984 400.32958984 156.08886719 C400.8808252 156.38954102 401.43206055 156.69021484 402 157 C401.00918034 159.63174854 400.30130725 160.81268535 397.88267517 162.31628418 C388.18623823 166.30638169 378.21512135 168.51838343 368.00390625 170.78125 C366.00931225 171.23173849 364.01493804 171.68320106 362.02076721 172.13555908 C356.6526978 173.35046557 351.28174094 174.55211509 345.91013336 175.75126648 C340.28648825 177.00905404 334.66559226 178.27900695 329.04443359 179.54785156 C319.71700951 181.65188202 310.38804622 183.74895652 301.05810547 185.84179688 C288.51012353 188.65717378 275.96693601 191.4934146 263.42546654 194.33764648 C255.00144767 196.24797183 246.57691268 198.15602157 238.15241623 200.0642395 C236.13729794 200.52069756 234.12219424 200.97721998 232.10710526 201.43380737 C226.37108842 202.73335625 220.6346447 204.03098899 214.89753532 205.32570648 C213.17639492 205.71441764 211.45539605 206.10375617 209.73456001 206.49381256 C177.62335812 213.77090138 177.62335812 213.77090138 170 213 C168.87464844 212.89558594 168.87464844 212.89558594 167.7265625 212.7890625 C155.60642514 211.02399395 143.7323123 204.21794687 136.18359375 194.58203125 C135.25980591 193.33170058 134.344791 192.07485248 133.4375 190.8125 C132.93138184 190.12325439 132.42526367 189.43400879 131.90380859 188.72387695 C130.82126727 187.24844863 129.74224703 185.7704313 128.66650391 184.29003906 C126.98937358 181.98539763 125.29963779 179.69057703 123.60546875 177.3984375 C120.65849066 173.41105597 117.71916432 169.41812056 114.78222656 165.42333984 C111.27464562 160.65399074 107.7610183 155.88909438 104.24829102 151.12353516 C101.34134427 147.17929 98.43622871 143.23372455 95.53515625 139.28515625 C89.56256696 131.16028254 83.55912726 123.06059382 77.5 115 C70.85529396 106.16039751 64.28145441 97.27059733 57.73388672 88.35888672 C54.82628381 84.40320391 51.91290513 80.45177906 49 76.5 C45.50888521 71.76379551 42.01890198 67.02678478 38.53515625 62.28515625 C37.37776578 60.71081867 36.2202136 59.13659997 35.0625 57.5625 C34.49120361 56.78567871 33.91990723 56.00885742 33.33129883 55.20849609 C29.63009972 50.18555111 25.8927342 45.19128815 22.13574219 40.20996094 C-0.97860973 9.54144488 -0.97860973 9.54144488 0 0 Z " fill="#AD1356" transform="translate(11,279)"/>
<path d="M0 0 C0.88368256 0.02375198 1.76736511 0.04750397 2.67782593 0.07197571 C5.53980186 0.15272911 8.40049013 0.25568716 11.26171875 0.359375 C13.21651512 0.41913073 15.17134995 0.47764134 17.1262207 0.53491211 C22.7347418 0.7044204 28.34197184 0.90234932 33.94921875 1.109375 C35.07620178 1.15025238 35.07620178 1.15025238 36.22595215 1.19195557 C43.46924971 1.45530597 50.70986518 1.75383726 57.94921875 2.109375 C59.81249515 9.58891005 61.36189034 17.07226271 62.63671875 24.671875 C62.76796143 25.44515137 62.8992041 26.21842773 63.03442383 27.01513672 C63.5958399 30.44387902 63.94921875 33.62482956 63.94921875 37.109375 C64.78839844 37.36589844 65.62757813 37.62242188 66.4921875 37.88671875 C70.23787915 39.21146619 73.73015003 40.87081209 77.26171875 42.671875 C77.89400391 42.98833984 78.52628906 43.30480469 79.17773438 43.63085938 C83.8083401 45.96849635 83.8083401 45.96849635 84.94921875 47.109375 C85.13671875 50.546875 85.13671875 50.546875 84.94921875 54.109375 C82.94921875 56.109375 82.94921875 56.109375 79.88671875 56.484375 C75.94921875 56.109375 75.94921875 56.109375 66.94921875 52.109375 C73.54921875 91.049375 80.14921875 129.989375 86.94921875 170.109375 C91.53341505 168.65648514 91.53341505 168.65648514 92.94921875 167.109375 C95.72115804 166.81759192 97.363317 166.74571184 99.76171875 168.234375 C101.64703504 171.21119019 101.68325214 172.639399 100.94921875 176.109375 C99.091027 178.05789552 97.13544709 179.67284091 94.9921875 181.30078125 C92.58726537 183.42980409 91.34873625 185.21165412 89.94921875 188.109375 C89.88904128 191.05656322 89.88904128 191.05656322 90.52661133 194.18481445 C90.8272625 195.98611565 90.8272625 195.98611565 91.13398743 197.82380676 C91.36820908 199.11042709 91.60243073 200.39704742 91.84375 201.72265625 C92.07386908 203.06044572 92.30233598 204.39852036 92.52922058 205.73686218 C93.12929914 209.24973481 93.75168498 212.75829393 94.37884521 216.26641846 C95.01546774 219.85040134 95.63085061 223.4380209 96.24804688 227.02539062 C97.46104295 234.05708297 98.69765012 241.08443678 99.94921875 248.109375 C84.80044621 245.0414428 69.78272886 241.49650722 54.76171875 237.859375 C52.43951351 237.29922878 50.11724822 236.73933142 47.79492188 236.1796875 C42.17899413 234.82577628 36.56380756 233.46882742 30.94921875 232.109375 C32.48488236 228.83557649 33.83299144 227.14241308 36.7578125 224.98046875 C37.50482422 224.42037109 38.25183594 223.86027344 39.02148438 223.28320312 C39.80201172 222.71021484 40.58253906 222.13722656 41.38671875 221.546875 C42.9285432 220.40170249 44.46896282 219.25463557 46.0078125 218.10546875 C46.69157959 217.60200928 47.37534668 217.0985498 48.07983398 216.57983398 C51.85872221 213.78755122 51.85872221 213.78755122 53.26171875 209.546875 C53.17888622 206.93141081 53.17888622 206.93141081 50.94921875 205.109375 C47.84073022 204.50818307 45.78480229 204.62867738 43.01318359 206.22314453 C40.82511475 207.80523856 38.72728994 209.46305624 36.63671875 211.171875 C35.88777344 211.76661621 35.13882813 212.36135742 34.3671875 212.97412109 C32.88819284 214.14916438 31.41327931 215.32936625 29.94287109 216.51513672 C26.82910497 219.00508195 23.61892193 221.36609533 20.41796875 223.7421875 C18.66919837 225.15120548 18.66919837 225.15120548 17.94921875 228.109375 C7.00782824 226.40619879 -3.70208788 223.61154445 -14.44921875 220.98828125 C-16.53220544 220.48236444 -18.61526544 219.97674941 -20.69839478 219.47142029 C-26.16184034 218.14534018 -31.62439376 216.81562266 -37.08673096 215.48498535 C-45.81971749 213.35836816 -54.55417157 211.23778331 -63.28841019 209.11631584 C-66.31777631 208.3800375 -69.34683207 207.64249448 -72.37582397 206.90467834 C-81.92138196 204.58152974 -91.46899543 202.27938048 -101.05078125 200.109375 C-101.54578125 201.099375 -101.54578125 201.099375 -102.05078125 202.109375 C-102.18855496 199.06610686 -102.28616565 196.02933964 -102.36328125 192.984375 C-102.40517578 192.14777344 -102.44707031 191.31117188 -102.49023438 190.44921875 C-102.73299298 177.53446105 -96.2007001 165.84642045 -90.57977295 154.5526123 C-88.78573446 150.94665772 -87.01734154 147.32812635 -85.24609375 143.7109375 C-84.70983871 142.61797363 -84.70983871 142.61797363 -84.16275024 141.50292969 C-80.81641409 134.66740439 -77.6059868 127.77385297 -74.42578125 120.859375 C-69.78131194 110.77674307 -65.01091976 100.76216992 -60.16094971 90.77746582 C-55.94692718 82.09712913 -51.83706328 73.37405388 -47.80078125 64.609375 C-45.87776327 60.45923109 -43.94814301 56.31222015 -42.01220703 52.16809082 C-41.33797195 50.72434087 -40.66453811 49.28021658 -39.99169922 47.83581543 C-37.67450359 42.86529402 -35.33612491 37.90549208 -32.97473145 32.95581055 C-32.20321663 31.33159417 -31.4376451 29.70453884 -30.67858887 28.07446289 C-17.25972631 -0.70348259 -17.25972631 -0.70348259 0 0 Z " fill="#D71A5F" transform="translate(112.05078125,78.890625)"/>
<path d="M0 0 C6.15537917 0.58066601 11.9731388 1.55687626 17.96606445 3.05371094 C18.81307419 3.26040405 19.66008392 3.46709717 20.53276062 3.68005371 C23.31095467 4.35943549 26.08709762 5.04682846 28.86328125 5.734375 C30.8202092 6.21469635 32.777258 6.69452557 34.73442078 7.17388916 C39.88179498 8.43607567 45.02745276 9.70512723 50.17279053 10.97558594 C55.34395181 12.25106064 60.51679407 13.51967856 65.68945312 14.7890625 C83.46907637 19.15524749 101.24138623 23.54907873 119 28 C119.20678879 27.05420074 119.20678879 27.05420074 119.41775513 26.08929443 C120.12276716 23.55946928 120.94247584 22.86216708 122.9921875 21.265625 C123.91849976 20.53327637 123.91849976 20.53327637 124.86352539 19.78613281 C125.52731201 19.27920898 126.19109863 18.77228516 126.875 18.25 C127.88904907 17.46254395 127.88904907 17.46254395 128.92358398 16.65917969 C130.2950405 15.59859962 131.67027474 14.54288591 133.04931641 13.4921875 C134.79206892 12.15905817 136.51357424 10.80361942 138.23046875 9.4375 C139.16503906 8.715625 140.09960938 7.99375 141.0625 7.25 C141.87847656 6.61578125 142.69445312 5.9815625 143.53515625 5.328125 C146.57268994 3.69141905 148.59611961 3.66387273 152 4 C153.875 5.1875 153.875 5.1875 155 7 C155.3359375 9.34765625 155.3359375 9.34765625 155 12 C153.234375 14.140625 153.234375 14.140625 150.75 16.25 C149.84894531 17.01957031 148.94789063 17.78914063 148.01953125 18.58203125 C143.88668622 21.89151517 139.6629131 25.0523927 135.37109375 28.15234375 C132.9300871 29.78096516 132.9300871 29.78096516 132 32 C133.20519287 32.09982178 134.41038574 32.19964355 135.65209961 32.30249023 C142.08597548 33.02210197 148.28955615 34.61397826 154.56640625 36.16015625 C155.84104233 36.46948593 157.11567841 36.77881561 158.42893982 37.09751892 C161.78870069 37.91293437 165.14679986 38.73499491 168.50457764 39.55853271 C171.94281346 40.40052676 175.38260575 41.23611189 178.82226562 42.07226562 C185.54969892 43.7086361 192.27539553 45.35204423 199 47 C199.95985157 50.72727312 199.96546395 53.21996629 198.96777344 56.92626953 C198.59178009 58.35267258 198.59178009 58.35267258 198.20819092 59.80789185 C197.78802704 61.32997757 197.78802704 61.32997757 197.359375 62.8828125 C197.07652649 63.9340329 196.79367798 64.9852533 196.5022583 66.06832886 C195.90221662 68.28708235 195.29667489 70.5043547 194.68603516 72.72021484 C193.75264752 76.11536975 192.84198481 79.5160516 191.93359375 82.91796875 C191.34770778 85.07328508 190.76051234 87.22824597 190.171875 89.3828125 C189.89986267 90.40158478 189.62785034 91.42035706 189.34759521 92.47000122 C189.08432434 93.41463226 188.82105347 94.35926331 188.54980469 95.33251953 C188.32250671 96.16349152 188.09520874 96.9944635 187.86102295 97.85061646 C187 100 187 100 185.45068455 101.37257099 C183.82041175 102.8871019 183.82041175 102.8871019 183.77201366 104.98088932 C183.82349717 105.70931758 183.87498068 106.43774584 183.92802429 107.18824768 C184.07808319 111.77279604 183.37415586 115.59054082 182.15161133 119.98803711 C181.95481781 120.73097015 181.75802429 121.4739032 181.55526733 122.23934937 C180.90813766 124.67166435 180.24527214 127.09937737 179.58203125 129.52734375 C179.12222902 131.24230299 178.66339979 132.95752336 178.20549011 134.67298889 C176.99915545 139.18144464 175.77930574 143.68613541 174.55664062 148.19018555 C173.33069053 152.71630641 172.1182416 157.24603827 170.90429688 161.77539062 C166.67393638 177.53696338 162.38636908 193.28108642 158 209 C158.66 209.33 159.32 209.66 160 210 C156.48298115 209.42617061 153.73526323 208.54728581 150.625 206.8125 C149.91601562 206.42707031 149.20703125 206.04164063 148.4765625 205.64453125 C142.32373959 201.55882392 137.72924003 196.78378007 133.4375 190.8125 C132.93138184 190.12325439 132.42526367 189.43400879 131.90380859 188.72387695 C130.82126727 187.24844863 129.74224703 185.7704313 128.66650391 184.29003906 C126.98937358 181.98539763 125.29963779 179.69057703 123.60546875 177.3984375 C120.65849066 173.41105597 117.71916432 169.41812056 114.78222656 165.42333984 C111.27464562 160.65399074 107.7610183 155.88909438 104.24829102 151.12353516 C101.34134427 147.17929 98.43622871 143.23372455 95.53515625 139.28515625 C89.56256696 131.16028254 83.55912726 123.06059382 77.5 115 C70.85529396 106.16039751 64.28145441 97.27059733 57.73388672 88.35888672 C54.82628381 84.40320391 51.91290513 80.45177906 49 76.5 C45.50888521 71.76379551 42.01890198 67.02678478 38.53515625 62.28515625 C37.37776578 60.71081867 36.2202136 59.13659997 35.0625 57.5625 C34.49120361 56.78567871 33.91990723 56.00885742 33.33129883 55.20849609 C29.63009972 50.18555111 25.8927342 45.19128815 22.13574219 40.20996094 C-0.97860973 9.54144488 -0.97860973 9.54144488 0 0 Z " fill="#C2175A" transform="translate(11,279)"/>
<path d="M0 0 C4.84329565 1.90184968 7.94632326 3.68296526 10.49829102 8.33105469 C11.02629856 9.61408583 11.53771906 10.90402876 12.03515625 12.19921875 C12.62949641 13.64644239 13.22661037 15.09252932 13.82617188 16.53759766 C14.13377441 17.28777161 14.44137695 18.03794556 14.75830078 18.81085205 C16.34038037 22.56487276 18.09153642 26.23509353 19.84765625 29.91015625 C20.20332169 30.65819519 20.55898712 31.40623413 20.9254303 32.17694092 C21.6618969 33.72472316 22.39934359 35.2720394 23.13772583 36.81890869 C25.12848095 40.98997925 27.11073938 45.16508719 29.09375 49.33984375 C29.49054459 50.17476349 29.88733917 51.00968323 30.29615784 51.86990356 C33.82579618 59.30222441 37.31122447 66.7545429 40.78125 74.21484375 C45.58337619 84.53738085 50.4294535 94.83824046 55.30053711 105.12841797 C60.66862696 116.47145614 66.02534063 127.81929579 71.28125 139.21484375 C71.74039795 140.20403809 72.1995459 141.19323242 72.67260742 142.21240234 C73.08099854 143.10266113 73.48938965 143.99291992 73.91015625 144.91015625 C74.26279541 145.67602051 74.61543457 146.44188477 74.97875977 147.23095703 C75.71875 149.08984375 75.71875 149.08984375 75.71875 151.08984375 C67.31397859 148.79904526 59.2099851 145.73737089 51.07318115 142.65426636 C48.51364027 141.68449127 45.95257311 140.7188449 43.39111328 139.75415039 C39.58315046 138.31970329 35.77577209 136.88371922 31.96875 135.44677734 C20.51587899 131.12577662 9.05463571 126.82703032 -2.40625 122.52734375 C-3.61710266 122.07293915 -4.82795532 121.61853455 -6.07550049 121.15036011 C-21.01111441 115.54642703 -35.95830183 109.97737837 -50.93618774 104.48748779 C-68.05682871 98.20887674 -85.12062529 91.77884205 -102.19067383 85.36437607 C-125.8410447 76.47790439 -149.52851438 67.69957734 -173.28125 59.08984375 C-173.28125 58.42984375 -173.28125 57.76984375 -173.28125 57.08984375 C-172.6413916 56.85499268 -172.0015332 56.6201416 -171.34228516 56.37817383 C-156.05945689 50.7611893 -140.82588315 45.02797248 -125.62353516 39.19726562 C-115.64444815 35.37073214 -105.65406362 31.57516959 -95.65576172 27.7991333 C-81.31731401 22.3838852 -66.9925521 16.9355602 -52.69628906 11.40966797 C-50.19854603 10.44435493 -47.70051336 9.47981403 -45.20214844 8.51611328 C-41.60122495 7.12710906 -38.0007382 5.73697861 -34.40057373 4.3460083 C-32.99707698 3.80385751 -31.59347323 3.26198359 -30.1897583 2.72039795 C-28.24071054 1.96821902 -26.29216461 1.21475472 -24.34375 0.4609375 C-23.22097656 0.0270874 -22.09820312 -0.4067627 -20.94140625 -0.85375977 C-13.65266828 -3.74825033 -7.56478844 -2.09832822 0 0 Z " fill="#EB3F79" transform="translate(344.28125,22.91015625)"/>
<path d="M0 0 C6.01942445 4.01294963 11.73566157 8.02335896 17.375 12.5 C23.6694053 17.44899595 30.03353429 22.27816823 36.5 27 C43.66481193 32.23653178 50.70719773 37.60829922 57.6940918 43.07958984 C62.91823173 47.16916196 68.19057565 51.18031152 73.51953125 55.1328125 C74.74736328 56.05707031 74.74736328 56.05707031 76 57 C76.92039062 57.54398438 77.84078125 58.08796875 78.7890625 58.6484375 C82.1926382 62.26849505 81.69439856 65.70887382 81.5625 70.5 C81.57345703 71.3353125 81.58441406 72.170625 81.59570312 73.03125 C81.45291426 85.52051573 75.54576228 96.58212378 70.34912109 107.65673828 C68.43209166 111.74373262 66.53720954 115.84098812 64.640625 119.9375 C64.25136841 120.77716309 63.86211182 121.61682617 63.46105957 122.48193359 C59.54536538 130.94605451 55.76488949 139.46800546 52 148 C46.26277189 160.98810185 40.39573409 173.91052519 34.43731689 186.79858398 C30.43285998 195.4628774 26.47121517 204.14258976 22.6171875 212.875 C22.07973907 214.09177429 22.07973907 214.09177429 21.53143311 215.33312988 C19.82593334 219.19838579 18.12754654 223.0665648 16.43945312 226.93945312 C5.8618994 251.08379424 5.8618994 251.08379424 1 255 C0.34 255 -0.32 255 -1 255 C-1 229.26 -1 203.52 -1 177 C-1.99 176.67 -2.98 176.34 -4 176 C-4.6875 172.75 -4.6875 172.75 -5 169 C-4.28067811 168.04745771 -4.28067811 168.04745771 -3.54682446 167.07567215 C-1.65350646 164.53504292 -1.60671391 163.1777753 -1.56330872 160.03924561 C-1.53188026 158.54169235 -1.53188026 158.54169235 -1.49981689 157.0138855 C-1.49190125 155.92487946 -1.4839856 154.83587341 -1.47583008 153.71386719 C-1.45588486 152.56236176 -1.43593964 151.41085632 -1.41539001 150.22445679 C-1.35287266 146.41533414 -1.31113281 142.6062788 -1.26953125 138.796875 C-1.23025561 136.15698346 -1.18968618 133.51711087 -1.14787292 130.8772583 C-1.05121997 124.63722493 -0.96951307 118.397089 -0.89317769 112.15677762 C-0.80553279 105.05144562 -0.70122265 97.94638885 -0.59551394 90.84130621 C-0.37846862 76.22777399 -0.18234675 61.61400584 0 47 C-0.62575928 46.87665283 -1.25151855 46.75330566 -1.89624023 46.6262207 C-2.71294189 46.45695068 -3.52964355 46.28768066 -4.37109375 46.11328125 C-5.58817017 45.8663855 -5.58817017 45.8663855 -6.82983398 45.61450195 C-9 45 -9 45 -11.0625 43.1875 C-12.20226209 40.52805513 -12.4406207 38.86403457 -12 36 C-11.01 35.01 -10.02 34.02 -9 33 C-6.03 33.33 -3.06 33.66 0 34 C0 22.78 0 11.56 0 0 Z " fill="#AD1457" transform="translate(421,175)"/>
<path d="M0 0 C0.88368256 0.02375198 1.76736511 0.04750397 2.67782593 0.07197571 C5.53980186 0.15272911 8.40049013 0.25568716 11.26171875 0.359375 C13.21651512 0.41913073 15.17134995 0.47764134 17.1262207 0.53491211 C22.7347418 0.7044204 28.34197184 0.90234932 33.94921875 1.109375 C35.07620178 1.15025238 35.07620178 1.15025238 36.22595215 1.19195557 C43.46924971 1.45530597 50.70986518 1.75383726 57.94921875 2.109375 C54.40542173 6.97508286 50.76880741 11.54492183 46.63671875 15.921875 C42.27734792 20.58971636 38.20137088 25.4173072 34.1953125 30.39453125 C31.86091285 33.21610995 29.42931277 35.91528212 26.94921875 38.609375 C22.83542966 43.0792262 18.97834578 47.69982393 15.1640625 52.42578125 C12.99289048 55.05646057 10.74680518 57.58879924 8.44921875 60.109375 C5.33463207 63.52676872 2.35735255 67.0145985 -0.55078125 70.609375 C-4.16227259 75.07357957 -7.93738819 79.33939614 -11.8046875 83.58203125 C-14.11265723 86.17899893 -16.30633988 88.84341513 -18.48828125 91.546875 C-22.34786728 96.31933703 -26.42278116 100.84046609 -30.578125 105.35546875 C-33.79787644 108.94144784 -36.80983301 112.67638992 -39.8359375 116.42578125 C-42.00710952 119.05646057 -44.25319482 121.58879924 -46.55078125 124.109375 C-49.66536793 127.52676872 -52.64264745 131.0145985 -55.55078125 134.609375 C-59.16227259 139.07357957 -62.93738819 143.33939614 -66.8046875 147.58203125 C-69.11265723 150.17899893 -71.30633988 152.84341513 -73.48828125 155.546875 C-77.34094413 160.31077641 -81.40558481 164.82579755 -85.55859375 169.328125 C-88.87565969 173.02992899 -91.96771673 176.89323406 -95.04296875 180.796875 C-96.90631003 182.94298013 -98.71105995 184.51458739 -101.05078125 186.109375 C-101.3219143 180.33991588 -100.835264 176.62989347 -98.36328125 171.296875 C-98.0585791 170.63075195 -97.75387695 169.96462891 -97.43994141 169.27832031 C-96.33132341 166.87817565 -95.19406776 164.49320133 -94.05078125 162.109375 C-93.58945801 161.14531738 -93.12813477 160.18125977 -92.65283203 159.18798828 C-90.52098204 154.74230955 -88.38181042 150.30028015 -86.23144531 145.86352539 C-82.27387726 137.69221244 -78.41548394 129.47924907 -74.61328125 121.234375 C-69.90344338 111.02901461 -65.07230936 100.88877243 -60.16177368 90.77911377 C-55.94747226 82.09822857 -51.83732077 73.37461302 -47.80078125 64.609375 C-45.87776327 60.45923109 -43.94814301 56.31222015 -42.01220703 52.16809082 C-41.33797195 50.72434087 -40.66453811 49.28021658 -39.99169922 47.83581543 C-37.67450359 42.86529402 -35.33612491 37.90549208 -32.97473145 32.95581055 C-32.20321663 31.33159417 -31.4376451 29.70453884 -30.67858887 28.07446289 C-17.25972631 -0.70348259 -17.25972631 -0.70348259 0 0 Z " fill="#C2185B" transform="translate(112.05078125,78.890625)"/>
<path d="M0 0 C10.28298329 4.66793321 16.21905496 15.72709117 22.39257812 24.68701172 C25.02401359 28.47349708 27.73011926 32.20512114 30.4375 35.9375 C31.52995115 37.44661224 32.62239905 38.95572684 33.71484375 40.46484375 C34.25737793 41.21362793 34.79991211 41.96241211 35.35888672 42.73388672 C38.07648169 46.48644794 40.78797486 50.2434125 43.5 54 C46.78388543 58.54779486 50.06845048 63.09509379 53.35546875 67.640625 C58.65682231 74.97333833 63.94655437 82.31361844 69.19873047 89.68164062 C74.2098587 96.70564895 79.27069471 103.69378507 84.32666016 110.68554688 C87.05263139 114.45593019 89.77621534 118.22803694 92.5 122 C93.58332144 123.50000859 94.66665479 125.00000858 95.75 126.5 C97.91666667 129.5 100.08333333 132.5 102.25 135.5 C102.7864917 136.24282227 103.3229834 136.98564453 103.87573242 137.75097656 C104.95667191 139.24768701 106.03756401 140.74443168 107.1184082 142.24121094 C109.8629754 146.04182637 112.60841966 149.84180298 115.35546875 153.640625 C127.98489168 171.10837765 127.98489168 171.10837765 133.81933594 179.34423828 C135.02742813 181.03846518 136.25124495 182.7205448 137.4765625 184.40234375 C141.85719311 190.4782485 146.22900739 196.60085291 148 204 C147.67 204.66 147.34 205.32 147 206 C137.13881083 198.62811476 127.28213705 191.25415757 117.5390625 183.7265625 C107.25033969 175.78535577 96.90917206 167.90768774 86.5 160.125 C85.59765625 159.43792969 84.6953125 158.75085938 83.765625 158.04296875 C81.27929711 156.20631693 78.74612633 154.48909149 76.14355469 152.8215332 C70.50782033 148.70227352 67.05921963 145.16471922 64.140625 138.77734375 C63.80808716 138.08184418 63.47554932 137.3863446 63.13293457 136.66976929 C62.43059062 135.19653448 61.73481045 133.72015437 61.04528809 132.24087524 C60.02277563 130.0488261 58.98204472 127.86649558 57.93457031 125.6862793 C55.7707313 121.17475852 53.63424257 116.6505793 51.5 112.125 C50.71471504 110.46299884 49.9293123 108.80105332 49.14379883 107.13916016 C47.14569978 102.91033958 45.15003837 98.68037412 43.15533447 94.44995117 C42.04463828 92.09465797 40.93331924 89.73965981 39.82177734 87.38476562 C31.89028569 70.57923818 24.00017856 53.75541097 16.1953125 36.890625 C14.22093111 32.62576364 12.23722001 28.36548485 10.2424469 24.11013794 C9.01738298 21.49639448 7.79504667 18.88137945 6.57284546 16.26629639 C5.98681403 15.01440188 5.39945083 13.76312986 4.81069946 12.51251221 C3.99928437 10.7885936 3.19287361 9.0623222 2.38671875 7.3359375 C1.92483154 6.35157715 1.46294434 5.3672168 0.98706055 4.35302734 C0 2 0 2 0 0 Z " fill="#C3185B" transform="translate(353,29)"/>
<path d="M0 0 C3.0625 0.3125 3.0625 0.3125 4.9375 1.375 C7.30187895 5.44698596 6.18347685 10.27656838 5.109375 14.66015625 C4.68625934 16.23426604 4.25360296 17.80583568 3.8125 19.375 C3.58796143 20.1997583 3.36342285 21.0245166 3.13208008 21.87426758 C2.4528086 24.35676591 1.76023011 26.83513236 1.0625 29.3125 C0.8547998 30.05274414 0.64709961 30.79298828 0.43310547 31.55566406 C-0.67120007 35.48026597 -1.79471448 39.39893843 -2.9375 43.3125 C-2.31230469 43.41691406 -1.68710937 43.52132812 -1.04296875 43.62890625 C3.3026613 44.58549148 7.50708652 45.91669561 11.75 47.25 C12.61689453 47.51490234 13.48378906 47.77980469 14.37695312 48.05273438 C15.20517578 48.31248047 16.03339844 48.57222656 16.88671875 48.83984375 C18.01726685 49.19163696 18.01726685 49.19163696 19.1706543 49.55053711 C21.0625 50.3125 21.0625 50.3125 23.0625 52.3125 C23.39265665 55.41597254 23.56781294 57.47031176 21.9375 60.1875 C18.75598656 62.09640806 15.52844182 61.64571549 11.98095703 60.83935547 C9.70243225 60.20329024 7.44474693 59.52028082 5.1875 58.8125 C4.40375 58.57402344 3.62 58.33554688 2.8125 58.08984375 C0.89356 57.50480107 -1.02229854 56.90966749 -2.9375 56.3125 C-2.78361816 56.9418042 -2.62973633 57.5711084 -2.47119141 58.21948242 C-0.34408752 67.05971059 -0.34408752 67.05971059 -0.9375 71.3125 C-2.94950619 74.14421242 -4.05821767 75.16237863 -7.5 75.75 C-10.46069293 75.21859358 -11.12543063 74.68212917 -12.9375 72.3125 C-13.66796875 69.39453125 -13.66796875 69.39453125 -14.125 66.125 C-14.28355469 65.03832031 -14.44210937 63.95164063 -14.60546875 62.83203125 C-14.71503906 62.00058594 -14.82460938 61.16914063 -14.9375 60.3125 C-19.84976731 60.3125 -22.52783956 64.15983617 -26.05078125 67.34375 C-29.37595702 69.61152887 -30.99697745 69.81412239 -34.9375 69.3125 C-36.8125 68.1875 -36.8125 68.1875 -37.9375 66.3125 C-38.375 63.5234375 -38.375 63.5234375 -37.9375 60.3125 C-35.98949847 58.25131184 -34.3034719 56.72399862 -32.0625 55.0625 C-30.9606386 54.20350828 -29.8590646 53.34414773 -28.7578125 52.484375 C-27.36175781 51.40929687 -27.36175781 51.40929687 -25.9375 50.3125 C-25.2775 49.6525 -24.6175 48.9925 -23.9375 48.3125 C-25.72607422 47.49845703 -25.72607422 47.49845703 -27.55078125 46.66796875 C-29.11734763 45.9456597 -30.68374512 45.22298427 -32.25 44.5 C-33.03568359 44.14357422 -33.82136719 43.78714844 -34.63085938 43.41992188 C-35.38818359 43.06865234 -36.14550781 42.71738281 -36.92578125 42.35546875 C-37.62227783 42.03602295 -38.31877441 41.71657715 -39.03637695 41.38745117 C-41.08094055 40.23139447 -42.45302109 39.13186231 -43.9375 37.3125 C-44.33060741 34.16764075 -44.41305213 32.17968329 -42.875 29.375 C-39.85783639 27.72042641 -37.13727731 28.49899729 -33.9375 29.3125 C-30.37843752 30.66682722 -26.94506776 32.25539651 -23.5 33.875 C-22.57767578 34.29974609 -21.65535156 34.72449219 -20.70507812 35.16210938 C-18.44532599 36.20417124 -16.18978493 37.25442021 -13.9375 38.3125 C-13.82148438 37.18714844 -13.70546875 36.06179687 -13.5859375 34.90234375 C-12.98451321 30.1067764 -11.82580506 25.5334374 -10.5625 20.875 C-10.35367188 20.08029297 -10.14484375 19.28558594 -9.9296875 18.46679688 C-5.1473442 0.54758981 -5.1473442 0.54758981 0 0 Z " fill="#8A0E4F" transform="translate(310.9375,133.6875)"/>
<path d="M0 0 C4.1793702 1.47062679 7.28676159 4.08021083 10.74609375 6.80078125 C12.12906983 7.87126414 13.51316684 8.94030061 14.8984375 10.0078125 C15.5569873 10.51650879 16.21553711 11.02520508 16.89404297 11.54931641 C19.46285156 13.48001748 22.1102325 15.24426999 24.80859375 16.98828125 C25.33815674 16.57465332 25.86771973 16.16102539 26.41333008 15.73486328 C28.81506871 13.85991178 31.21806578 11.98657994 33.62109375 10.11328125 C34.45447266 9.46230469 35.28785156 8.81132812 36.14648438 8.140625 C36.94892578 7.51542969 37.75136719 6.89023437 38.578125 6.24609375 C39.31651611 5.67004395 40.05490723 5.09399414 40.81567383 4.50048828 C45.47974839 0.96143673 45.47974839 0.96143673 48.87109375 1.23828125 C51.80859375 1.98828125 51.80859375 1.98828125 53.80859375 3.98828125 C54.1875 6.859375 54.1875 6.859375 53.80859375 9.98828125 C52.0859375 12.1484375 52.0859375 12.1484375 49.74609375 14.05078125 C48.93140625 14.72238281 48.11671875 15.39398438 47.27734375 16.0859375 C44.17319893 18.47789719 41.04818875 20.78259955 37.80859375 22.98828125 C38.35386719 23.230625 38.89914063 23.47296875 39.4609375 23.72265625 C41.04453942 24.42647933 42.6278533 25.13095072 44.2109375 25.8359375 C45.9301502 26.59859577 47.65148683 27.35648569 49.375 28.109375 C50.57962891 28.63724609 50.57962891 28.63724609 51.80859375 29.17578125 C52.55109375 29.49933594 53.29359375 29.82289063 54.05859375 30.15625 C55.80859375 30.98828125 55.80859375 30.98828125 56.80859375 31.98828125 C57.39043518 38.27216872 57.39043518 38.27216872 55.18359375 40.98828125 C50.6282453 42.9063227 46.55760393 40.93380788 42.1015625 39.43359375 C41.29614014 39.16305176 40.49071777 38.89250977 39.66088867 38.61376953 C39.04963135 38.4073584 38.43837402 38.20094727 37.80859375 37.98828125 C38.08646729 38.50213379 38.36434082 39.01598633 38.65063477 39.54541016 C39.90776398 41.89272056 41.1394614 44.25250007 42.37109375 46.61328125 C43.02754883 47.82564453 43.02754883 47.82564453 43.69726562 49.0625 C45.6136314 52.77451559 46.81644476 55.21539332 46.7734375 59.44921875 C45.80859375 61.98828125 45.80859375 61.98828125 42.80859375 63.98828125 C40.37109375 64.42578125 40.37109375 64.42578125 37.80859375 63.98828125 C34.50524334 60.43301178 32.57353085 56.69212186 30.59375 52.2890625 C29.98407864 50.98294933 29.37269198 49.67763572 28.75976562 48.37304688 C27.81578942 46.3505882 26.88229238 44.32606008 25.97827148 42.28540039 C21.10910362 31.35747634 15.7629881 25.66120428 5.80859375 18.98828125 C3.89933222 17.50541091 2.00098549 16.00821253 0.12109375 14.48828125 C-0.66652344 13.85921875 -1.45414063 13.23015625 -2.265625 12.58203125 C-4.19140625 10.98828125 -4.19140625 10.98828125 -6.19140625 8.98828125 C-6.00390625 5.48828125 -6.00390625 5.48828125 -5.19140625 1.98828125 C-2.19140625 -0.01171875 -2.19140625 -0.01171875 0 0 Z " fill="#890E4F" transform="translate(64.19140625,318.01171875)"/>
<path d="M0 0 C2.75095679 1.85240306 3.0615832 3.23606895 3.9140625 6.50390625 C4.16278145 7.85466181 4.39941186 9.20768942 4.625 10.5625 C5.35680844 15.41911217 5.35680844 15.41911217 7 20 C7.73605469 19.07316406 8.47210938 18.14632813 9.23046875 17.19140625 C10.21549028 15.98123695 11.20120385 14.77163071 12.1875 13.5625 C12.67025391 12.95083984 13.15300781 12.33917969 13.65039062 11.70898438 C17.32932911 7.23993829 17.32932911 7.23993829 20.71875 6.02734375 C23 6 23 6 25.3125 7 C27 9 27 9 27.484375 12.1640625 C26.82356408 17.39725865 24.49164326 19.65346555 20.9375 23.375 C19.79829196 24.60968701 18.66159083 25.84669155 17.52734375 27.0859375 C16.93743652 27.71282471 16.3475293 28.33971191 15.73974609 28.9855957 C13.94476238 30.9719479 13.94476238 30.9719479 12.51416016 33.28588867 C7.92006112 40.26871548 2.20915612 42.54836314 -5.53369141 44.95141602 C-7.50681189 45.56461698 -9.46157864 46.2203174 -11.41796875 46.88476562 C-17.47761029 48.86831735 -22.56306684 50.3848594 -29 50 C-30.9375 48.8125 -30.9375 48.8125 -32 47 C-32.5 44.5625 -32.5 44.5625 -32 42 C-28.74615796 38.65045672 -25.49078322 37.14658295 -21 36 C-19.68 36 -18.36 36 -17 36 C-17 35.34 -17 34.68 -17 34 C-17.64066406 33.81824219 -18.28132813 33.63648438 -18.94140625 33.44921875 C-34.70834167 28.86717343 -34.70834167 28.86717343 -37 25 C-36.875 21.9375 -36.875 21.9375 -36 19 C-32.7526579 16.83510527 -31.80602284 16.82344067 -28.10888672 17.48388672 C-23.8240352 18.53252947 -19.70403327 20.05675896 -15.5625 21.5625 C-14.64017578 21.89185547 -13.71785156 22.22121094 -12.76757812 22.56054688 C-10.5095352 23.36782647 -8.25384435 24.18108727 -6 25 C-6.34224609 23.26363281 -6.34224609 23.26363281 -6.69140625 21.4921875 C-6.98230745 19.95322634 -7.27264212 18.41415801 -7.5625 16.875 C-7.71396484 16.11445313 -7.86542969 15.35390625 -8.02148438 14.5703125 C-8.84245972 10.14086411 -9.33419471 6.41155838 -8 2 C-4.76746204 -0.15502531 -3.74849077 -0.46856135 0 0 Z " fill="#880E4F" transform="translate(343,404)"/>
<path d="M0 0 C3.22932157 0.85870674 6.39254897 1.88253625 9.5625 2.9375 C11.18851979 3.46831345 12.81481768 3.9982758 14.44140625 4.52734375 C15.21242676 4.78008057 15.98344727 5.03281738 16.77783203 5.29321289 C18.83041652 5.94606195 20.8890308 6.54331787 22.96484375 7.1171875 C27.60189248 8.46593012 27.60189248 8.46593012 29 11 C28.875 14.5625 28.875 14.5625 28 18 C24.74979451 20.16680366 23.91713761 20.15441333 20.24316406 19.49414062 C15.246182 18.39336878 10.31093418 17.09564331 5.375 15.75 C4.25609375 15.46253906 3.1371875 15.17507812 1.984375 14.87890625 C-8.42195122 12.03517271 -8.42195122 12.03517271 -12 7 C-12 4.10263179 -11.34837802 2.61478475 -9.9375 0.125 C-6.76578286 -1.71664221 -3.45617139 -0.66589803 0 0 Z " fill="#8B0E4F" transform="translate(363,192)"/>
<path d="M0 0 C1.875 1.1875 1.875 1.1875 3 3 C3.3125 5.36328125 3.3125 5.36328125 3 8 C-1.97771399 14.40349136 -9.83427791 19.25916088 -16.3125 24.0625 C-17.08899902 24.64708984 -17.86549805 25.23167969 -18.66552734 25.83398438 C-19.41141113 26.37474609 -20.15729492 26.91550781 -20.92578125 27.47265625 C-21.59005127 27.96000244 -22.25432129 28.44734863 -22.9387207 28.94946289 C-25.48234048 30.24582626 -27.18044107 30.31490571 -30 30 C-32.1889708 27.9619927 -32.89798652 26.5952437 -33.40234375 23.65234375 C-32.80804084 19.73456051 -30.82304719 18.6611601 -27.75 16.25 C-27.21511963 15.82460938 -26.68023926 15.39921875 -26.12915039 14.9609375 C-24.43316708 13.62178175 -22.71980263 12.30838746 -21 11 C-20.15961182 10.35514648 -20.15961182 10.35514648 -19.30224609 9.69726562 C-5.84370327 -0.60871909 -5.84370327 -0.60871909 0 0 Z " fill="#890E4F" transform="translate(163,283)"/>
<path d="M0 0 C5.24956526 1.5366247 10.10770488 4.12929591 15.00195312 6.53417969 C16.13761719 7.076875 17.27328125 7.61957031 18.44335938 8.17871094 C28.03345564 12.83155717 28.03345564 12.83155717 30.25195312 15.65917969 C30.68945312 18.65917969 30.68945312 18.65917969 30.25195312 21.65917969 C28.62695312 23.59667969 28.62695312 23.59667969 26.25195312 24.65917969 C19.66215455 24.04424114 14.24598794 21.0569824 8.37353516 18.19433594 C6.49868402 17.28258991 4.61620538 16.38823547 2.73242188 15.49511719 C1.54777344 14.92277344 0.363125 14.35042969 -0.85742188 13.76074219 C-1.93991211 13.23818848 -3.02240234 12.71563477 -4.13769531 12.17724609 C-6.74804688 10.65917969 -6.74804688 10.65917969 -8.74804688 7.65917969 C-8.56054688 4.59667969 -8.56054688 4.59667969 -7.74804688 1.65917969 C-4.59956947 -0.43980525 -3.60576952 -0.64646026 0 0 Z " fill="#890E4F" transform="translate(112.748046875,85.3408203125)"/>
<path d="M0 0 C1.875 1.1875 1.875 1.1875 3 3 C3.3359375 5.34765625 3.3359375 5.34765625 3 8 C1.234375 10.140625 1.234375 10.140625 -1.25 12.25 C-2.1575 13.02214844 -3.065 13.79429687 -4 14.58984375 C-8.90274702 18.52863921 -13.88273497 22.34381201 -19 26 C-20.0415625 26.74765625 -21.083125 27.4953125 -22.15625 28.265625 C-25 30 -25 30 -28.25 29.9375 C-31 29 -31 29 -33 26 C-33.453125 23.609375 -33.453125 23.609375 -33 21 C-30.796875 18.640625 -30.796875 18.640625 -27.75 16.25 C-27.21511963 15.82460937 -26.68023926 15.39921875 -26.12915039 14.9609375 C-24.43316708 13.62178175 -22.71980263 12.30838746 -21 11 C-20.15961182 10.35514648 -20.15961182 10.35514648 -19.30224609 9.69726562 C-5.84370327 -0.60871909 -5.84370327 -0.60871909 0 0 Z " fill="#8A0E4F" transform="translate(258,210)"/>
<path d="M0 0 C3.5 0.1875 3.5 0.1875 7 1 C9 4 9 4 8.87890625 6.890625 C7.85624566 10.5085709 6.5518709 12.07733266 3.9375 14.75 C0.69886414 18.16369725 -2.34985254 21.60583534 -5.25 25.3125 C-12.76753756 34.76524525 -12.76753756 34.76524525 -16.625 35.5 C-19 35 -19 35 -20.8125 33.875 C-22.58880509 31.07030775 -22.38425303 29.28183453 -22 26 C-20.42040347 23.69998935 -18.93997591 21.83285087 -17.0625 19.8125 C-16.05372617 18.67793735 -15.04592985 17.54250489 -14.0390625 16.40625 C-13.53020508 15.84035156 -13.02134766 15.27445312 -12.49707031 14.69140625 C-10.22873241 12.12861353 -8.08831815 9.47475048 -5.9375 6.8125 C-4.01622733 4.43957191 -2.15835516 2.15835516 0 0 Z " fill="#890E4F" transform="translate(400,364)"/>
<path d="M0 0 C4.6566789 1.4204069 9.19120652 3.16847391 13.75 4.875 C15.59658203 5.54595703 15.59658203 5.54595703 17.48046875 6.23046875 C18.65738281 6.66746094 19.83429688 7.10445313 21.046875 7.5546875 C22.11776367 7.95155762 23.18865234 8.34842773 24.29199219 8.75732422 C26.8461891 9.92941783 28.30524174 10.78703957 30 13 C30.42317323 15.82115488 30.38718434 17.33950907 28.9375 19.8125 C25.95930446 21.63784565 23.4442763 21.18599092 20 21 C16.77441406 20.12963867 16.77441406 20.12963867 13.515625 18.91796875 C11.74251953 18.26151367 11.74251953 18.26151367 9.93359375 17.59179688 C8.71800781 17.12837891 7.50242188 16.66496094 6.25 16.1875 C5.01894531 15.73568359 3.78789062 15.28386719 2.51953125 14.81835938 C-7.78020594 10.95454778 -7.78020594 10.95454778 -10 8 C-10.39310741 4.85514075 -10.47555213 2.86718329 -8.9375 0.0625 C-5.86948161 -1.6199617 -3.37091985 -0.6259037 0 0 Z " fill="#890E4F" transform="translate(148,359)"/>
<path d="M0 0 C3.5 0.25 3.5 0.25 5.5 2.25 C6.80068769 6.506177 7.61707661 10.89023612 8.5 15.25 C8.64646973 15.96365723 8.79293945 16.67731445 8.94384766 17.41259766 C9.39508987 19.64729772 9.82587239 21.885007 10.25 24.125 C10.38978271 24.82568604 10.52956543 25.52637207 10.67358398 26.24829102 C11.50555655 30.83148585 11.61403309 34.71429386 10.5 39.25 C7.26746204 41.40502531 6.24849077 41.71856135 2.5 41.25 C-0.68545416 38.88010931 -1.15717604 36.4235128 -1.88671875 32.62109375 C-2.10263672 31.50283203 -2.31855469 30.38457031 -2.54101562 29.23242188 C-2.86102539 27.47768555 -2.86102539 27.47768555 -3.1875 25.6875 C-3.41244141 24.54474609 -3.63738281 23.40199219 -3.86914062 22.22460938 C-6.42491176 8.63785039 -6.42491176 8.63785039 -5.5 2.25 C-3.5 0.25 -3.5 0.25 0 0 Z " fill="#890E4F" transform="translate(319.5,285.75)"/>
<path d="M0 0 C2.2038357 3.30575355 2.62152843 4.16539156 2 8 C0.40022632 10.24380021 -1.15356302 12.17029777 -3 14.1875 C-4.01161312 15.33358045 -5.02201886 16.48072769 -6.03125 17.62890625 C-6.53398437 18.19496582 -7.03671875 18.76102539 -7.5546875 19.34423828 C-10.27220223 22.45744519 -12.79476174 25.72552239 -15.34375 28.9765625 C-19.39354839 33.92419355 -19.39354839 33.92419355 -23 34.375 C-26 34 -26 34 -27.875 32.8125 C-29.41855268 30.32566513 -29.32841124 28.90096599 -29 26 C-27.453125 23.6328125 -27.453125 23.6328125 -25.25 21.125 C-24.43917969 20.18140625 -23.62835938 19.2378125 -22.79296875 18.265625 C-22.34743652 17.75064453 -21.9019043 17.23566406 -21.44287109 16.70507812 C-18.1803225 12.84963999 -15.10115026 8.83956925 -11.98730469 4.86376953 C-7.88714237 -0.30934507 -6.5564154 -1.63910385 0 0 Z " fill="#880E4F" transform="translate(483,272)"/>
<path d="M0 0 C2.79076121 2.15270436 3.49471929 4.01164486 4.1328125 7.421875 C4.29910156 8.28296875 4.46539062 9.1440625 4.63671875 10.03125 C4.79785156 10.9284375 4.95898438 11.825625 5.125 12.75 C5.29386719 13.63171875 5.46273438 14.5134375 5.63671875 15.421875 C9.39276637 35.29639469 9.39276637 35.29639469 6.9375 40.0625 C3.76026699 41.59987081 1.32611047 40.8466463 -2 40 C-3.99346859 37.00979712 -4.44271841 35.51263505 -5.03515625 32.0625 C-5.28942383 30.59490234 -5.28942383 30.59490234 -5.54882812 29.09765625 C-5.71833984 28.07542969 -5.88785156 27.05320313 -6.0625 26 C-6.32256836 24.51306641 -6.32256836 24.51306641 -6.58789062 22.99609375 C-7.43916056 17.9928444 -8.19705639 12.97583762 -8.80859375 7.9375 C-8.91872803 7.05964844 -9.0288623 6.18179688 -9.14233398 5.27734375 C-9 3 -9 3 -7.69946289 1.21484375 C-5.08958989 -0.6507974 -3.1139074 -0.38923843 0 0 Z " fill="#8A0E4F" transform="translate(312,227)"/>
<path d="M0 0 C3.39091617 2.40989314 3.69712636 5.21152154 4.38671875 9.171875 C4.60263672 10.39390625 4.81855469 11.6159375 5.04101562 12.875 C5.25435547 14.15375 5.46769531 15.4325 5.6875 16.75 C5.91244141 18.01328125 6.13738281 19.2765625 6.36914062 20.578125 C9.06315422 36.16901218 9.06315422 36.16901218 6.875 39.9375 C4.07837528 41.52225401 2.1506804 41.45947423 -1 41 C-4.03621191 37.90220258 -4.65624362 34.89470926 -5.38671875 30.6953125 C-5.60263672 29.47199219 -5.81855469 28.24867188 -6.04101562 26.98828125 C-6.25435547 25.71339844 -6.46769531 24.43851562 -6.6875 23.125 C-7.02491211 21.22427734 -7.02491211 21.22427734 -7.36914062 19.28515625 C-9.92065918 4.53443197 -9.92065918 4.53443197 -7.875 1.125 C-5.11909116 -0.52854531 -3.14924548 -0.39365568 0 0 Z " fill="#890E4F" transform="translate(333,345)"/>
<path d="M0 0 C1.8125 1.125 1.8125 1.125 3 3 C3.53438892 8.27263731 3.53438892 8.27263731 1.59375 10.9140625 C0.9028125 11.47867187 0.211875 12.04328125 -0.5 12.625 C-1.304375 13.28886719 -2.10875 13.95273437 -2.9375 14.63671875 C-8.76114045 19.13072701 -14.63264214 23.55630108 -20.56054688 27.91186523 C-21.97536748 28.92947747 -21.97536748 28.92947747 -23 30 C-26.4375 30.1875 -26.4375 30.1875 -30 30 C-32 28 -32 28 -32.40625 24.63671875 C-32 21 -32 21 -30.15625 18.76953125 C-29.2796875 18.12371094 -28.403125 17.47789062 -27.5 16.8125 C-26.50742188 16.06742187 -25.51484375 15.32234375 -24.4921875 14.5546875 C-23.93885742 14.1534668 -23.38552734 13.75224609 -22.81542969 13.33886719 C-20.80233059 11.85422014 -18.8433445 10.31115009 -16.8828125 8.7578125 C-15.46435107 7.65000451 -14.04508487 6.54322616 -12.625 5.4375 C-11.94759766 4.90036377 -11.27019531 4.36322754 -10.57226562 3.80981445 C-4.4497205 -0.8541511 -4.4497205 -0.8541511 0 0 Z " fill="#8A0E4F" transform="translate(210,246)"/>
<path d="M0 0 C1.44439453 0.38478516 1.44439453 0.38478516 2.91796875 0.77734375 C14.77216501 4.02216501 14.77216501 4.02216501 18.875 8.125 C18.6875 11.125 18.6875 11.125 17.875 14.125 C13.45169823 17.07386785 9.95832239 16.09325188 4.875 15.125 C1.86835802 14.23474262 -1.06904786 13.22516778 -4.01953125 12.1640625 C-8.15531499 10.78026567 -12.3574521 9.89348244 -16.62890625 9.03125 C-19.62194409 7.94457585 -20.55902342 6.85899872 -22.125 4.125 C-22.54007511 1.28865343 -22.47511264 -0.2185388 -21.125 -2.75 C-15.59617798 -5.85996239 -5.73206657 -1.5857944 0 0 Z " fill="#890E4F" transform="translate(431.125,211.875)"/>
<path d="M0 0 C3.0625 0.3125 3.0625 0.3125 4.76220703 1.58276367 C6.0625 3.3125 6.0625 3.3125 5.9296875 7.30078125 C5.10703043 12.80857063 3.68281727 18.14238764 2.1875 23.5 C1.93097656 24.45841797 1.67445313 25.41683594 1.41015625 26.40429688 C0.04894105 31.35323756 -1.42236723 35.8319491 -3.9375 40.3125 C-10.26347793 40.67057422 -10.26347793 40.67057422 -12.9375 39.25 C-15.51965553 34.24707367 -11.87472542 25.58094192 -10.5625 20.375 C-10.35367187 19.51970703 -10.14484375 18.66441406 -9.9296875 17.78320312 C-5.63035322 0.59897375 -5.63035322 0.59897375 0 0 Z " fill="#8A0F50" transform="translate(326.9375,75.6875)"/>
<path d="M0 0 C3 0.375 3 0.375 4.875 1.5625 C6.39369328 4.00928363 6.26228689 5.52636855 6 8.375 C4.85766602 10.34448242 4.85766602 10.34448242 3.25390625 12.23046875 C2.66802734 12.93123535 2.08214844 13.63200195 1.47851562 14.35400391 C0.84623047 15.08280762 0.21394531 15.81161133 -0.4375 16.5625 C-1.07623047 17.31192871 -1.71496094 18.06135742 -2.37304688 18.83349609 C-3.65219437 20.3298147 -4.93646091 21.82177399 -6.22607422 23.30908203 C-7.76074206 25.09635966 -9.25075987 26.90721132 -10.72265625 28.74609375 C-11.47417969 29.65488281 -12.22570312 30.56367188 -13 31.5 C-13.639375 32.28632813 -14.27875 33.07265625 -14.9375 33.8828125 C-17 35.375 -17 35.375 -20.125 35.3046875 C-23 34.375 -23 34.375 -25 31.375 C-25.4375 29.07421875 -25.4375 29.07421875 -25 26.375 C-23.40022632 24.13119979 -21.84643698 22.20470223 -20 20.1875 C-18.98838688 19.04141955 -17.97798114 17.89427231 -16.96875 16.74609375 C-16.46601563 16.18003418 -15.96328125 15.61397461 -15.4453125 15.03076172 C-12.72779777 11.91755481 -10.20523826 8.64947761 -7.65625 5.3984375 C-3.60645161 0.45080645 -3.60645161 0.45080645 0 0 Z " fill="#880E4F" transform="translate(441,317.625)"/>
<path d="M0 0 C3.9281198 0.29246265 6.44108196 1.11333003 9.99487305 2.76464844 C11.69353516 3.5496875 11.69353516 3.5496875 13.42651367 4.35058594 C15.17158203 5.18203125 15.17158203 5.18203125 16.9519043 6.03027344 C18.12688477 6.56910156 19.30186523 7.10792969 20.51245117 7.66308594 C30.6109407 12.39224722 30.6109407 12.39224722 33.7644043 16.28027344 C33.61646428 19.97877384 33.40634856 21.63832917 30.7644043 24.28027344 C25.70002883 24.86679558 22.38918212 23.49098233 17.86987305 21.28808594 C17.2370491 20.98208466 16.60422516 20.67608337 15.95222473 20.36080933 C14.62428043 19.71567971 13.29908297 19.06486813 11.9765625 18.40869141 C9.94683544 17.40276132 7.90842456 16.41647132 5.86791992 15.43261719 C-4.08937818 10.57270849 -4.08937818 10.57270849 -5.2355957 8.28027344 C-5.4230957 5.28027344 -5.4230957 5.28027344 -5.2355957 2.28027344 C-3.2355957 0.28027344 -3.2355957 0.28027344 0 0 Z " fill="#8A0E4F" transform="translate(218.235595703125,136.7197265625)"/>
<path d="M0 0 C1.60375059 2.83014811 1.59333754 4.68997476 1.0625 7.875 C-4.41346527 11.81694699 -11.04493537 13.5027044 -17.375 15.625 C-18.58994141 16.04910156 -19.80488281 16.47320312 -21.05664062 16.91015625 C-22.23291016 17.30589844 -23.40917969 17.70164062 -24.62109375 18.109375 C-26.22295532 18.65416504 -26.22295532 18.65416504 -27.85717773 19.20996094 C-31.30708184 19.95479242 -33.55674454 19.86295572 -36.9375 18.875 C-39.0985211 15.63346834 -39.57997553 14.63807099 -38.9375 10.875 C-35.60435845 7.76306807 -32.54259356 6.12296773 -28.2265625 4.734375 C-26.60621094 4.21230469 -26.60621094 4.21230469 -24.953125 3.6796875 C-23.27476562 3.15761719 -23.27476562 3.15761719 -21.5625 2.625 C-20.45132812 2.26148438 -19.34015625 1.89796875 -18.1953125 1.5234375 C-4.72345435 -2.74265091 -4.72345435 -2.74265091 0 0 Z " fill="#880E4F" transform="translate(292.9375,453.125)"/>
<path d="M0 0 C7.60296425 0.16234087 14.31024716 3.12703418 21.3125 5.875 C23.08077148 6.54595703 23.08077148 6.54595703 24.88476562 7.23046875 C34.69753415 11.03438931 34.69753415 11.03438931 37 14 C37.375 16.5 37.375 16.5 37 19 C35.72143555 20.65893555 35.72143555 20.65893555 34 22 C26.35579448 21.91616524 19.76350201 19.39902744 12.6875 16.6875 C11.61693359 16.29626953 10.54636719 15.90503906 9.44335938 15.50195312 C8.41404297 15.11330078 7.38472656 14.72464844 6.32421875 14.32421875 C5.39697998 13.97447998 4.46974121 13.62474121 3.5144043 13.2644043 C0.71069095 11.85451679 -1.02769076 10.43658683 -3 8 C-2.85205998 4.3014996 -2.64194427 2.64194427 0 0 Z " fill="#880E4F" transform="translate(253,400)"/>
<path d="M0 0 C3.56030273 1.01660156 3.56030273 1.01660156 5.73193359 3.71289062 C6.61957397 5.47971191 6.61957397 5.47971191 7.52514648 7.28222656 C7.84818253 7.91263855 8.17121857 8.54305054 8.50404358 9.19256592 C9.18049881 10.52480226 9.8446295 11.86335945 10.49707031 13.20751953 C11.49414318 15.25907176 12.52800535 17.28837419 13.57006836 19.31738281 C19.11599169 30.33942243 19.11599169 30.33942243 18.56030273 35.01660156 C17.43530273 36.82910156 17.43530273 36.82910156 15.56030273 38.01660156 C12.56030273 38.39160156 12.56030273 38.39160156 9.56030273 38.01660156 C5.19915194 34.60992099 3.20021578 28.89275414 0.77978516 24.06640625 C-0.12073113 22.27943287 -1.04285447 20.50340194 -1.96508789 18.72753906 C-2.82457031 17.02210938 -2.82457031 17.02210938 -3.70141602 15.28222656 C-4.22695068 14.2487207 -4.75248535 13.21521484 -5.29394531 12.15039062 C-6.61977022 8.5240773 -6.86469145 5.84820329 -6.43969727 2.01660156 C-3.43969727 0.01660156 -3.43969727 0.01660156 0 0 Z " fill="#890E4F" transform="translate(119.439697265625,396.9833984375)"/>
<path d="M0 0 C4.50918062 1.44671656 8.90526293 3.14542281 13.3125 4.875 C15.08077148 5.54595703 15.08077148 5.54595703 16.88476562 6.23046875 C26.69753415 10.03438931 26.69753415 10.03438931 29 13 C29.42317323 15.82115488 29.38718434 17.33950907 27.9375 19.8125 C24.95930446 21.63784565 22.4442763 21.18599092 19 21 C15.77441406 20.12963867 15.77441406 20.12963867 12.515625 18.91796875 C10.74251953 18.26151367 10.74251953 18.26151367 8.93359375 17.59179688 C7.71800781 17.12837891 6.50242188 16.66496094 5.25 16.1875 C4.01894531 15.73568359 2.78789062 15.28386719 1.51953125 14.81835938 C-8.78020594 10.95454778 -8.78020594 10.95454778 -11 8 C-11.38930836 4.88553312 -11.45099058 2.87379426 -10 0.0625 C-6.70573258 -1.68757957 -3.50188152 -0.77554617 0 0 Z " fill="#880E4F" transform="translate(205,380)"/>
<path d="M0 0 C3.83140616 0.34743086 6.45353597 1.43346735 9.93066406 3.07177734 C10.53892029 3.35558258 11.14717651 3.63938782 11.77386475 3.93179321 C13.0503494 4.53003385 14.32427626 5.13375982 15.59570312 5.74267578 C17.54288895 6.67470395 19.49751106 7.58937003 21.45410156 8.50146484 C30.97473284 12.98303362 30.97473284 12.98303362 33.29003906 15.29833984 C33.54003906 18.79833984 33.54003906 18.79833984 33.29003906 22.29833984 C31.29003906 24.29833984 31.29003906 24.29833984 28.07250977 24.59667969 C23.98277587 24.27410467 21.43669902 23.3275533 17.77050781 21.52490234 C16.58392578 20.94740234 15.39734375 20.36990234 14.17480469 19.77490234 C13.56805908 19.47100586 12.96131348 19.16710937 12.33618164 18.85400391 C10.47131886 17.92022525 8.59776761 17.00619867 6.72167969 16.09521484 C-2.39352532 11.61477546 -2.39352532 11.61477546 -4.70996094 9.29833984 C-4.95996094 5.79833984 -4.95996094 5.79833984 -4.70996094 2.29833984 C-2.70996094 0.29833984 -2.70996094 0.29833984 0 0 Z " fill="#890E4F" transform="translate(163.7099609375,110.70166015625)"/>
<path d="M0 0 C1.78577089 2.81963824 1.72062947 4.60958202 1.1875 7.875 C-2.85729008 12.05514722 -7.06864611 13.01162762 -12.5625 14.125 C-13.32304687 14.29773438 -14.08359375 14.47046875 -14.8671875 14.6484375 C-28.26851852 17.51041667 -28.26851852 17.51041667 -33.4375 14.1875 C-34.8125 11.875 -34.8125 11.875 -34.75 9.3125 C-33.7287317 6.65720243 -33.00661081 5.64614606 -30.8125 3.875 C-28.34814453 3.07543945 -28.34814453 3.07543945 -25.4453125 2.48828125 C-24.39472656 2.27236328 -23.34414062 2.05644531 -22.26171875 1.83398438 C-20.61623047 1.51397461 -20.61623047 1.51397461 -18.9375 1.1875 C-17.30361328 0.85008789 -17.30361328 0.85008789 -15.63671875 0.50585938 C-3.21462484 -1.99528438 -3.21462484 -1.99528438 0 0 Z " fill="#8A0E4F" transform="translate(235.8125,471.125)"/>
<path d="M0 0 C4.69800146 0.69314776 5.91278284 2.1405387 8.98828125 5.5546875 C12.81355489 9.76494585 17.28749139 13.36196131 21.75 16.875 C24.45928746 19.09168974 24.75333869 20.00638369 25.125 23.5 C24.8125 26.5625 24.8125 26.5625 23.125 28.5 C20.13281057 29.87478974 18.93723672 29.52253728 15.8125 28.5625 C13.5234375 26.84765625 13.5234375 26.84765625 11.1875 24.625 C8.41834374 22.0018083 5.66564921 19.40934313 2.71875 16.98828125 C1.7184375 16.14652344 0.718125 15.30476563 -0.3125 14.4375 C-1.24320313 13.67179687 -2.17390625 12.90609375 -3.1328125 12.1171875 C-5.1875 9.5625 -5.1875 9.5625 -5.6171875 5.8828125 C-5.04537155 1.46423468 -4.37881444 0.77273196 0 0 Z " fill="#890E4F" transform="translate(21.1875,282.4375)"/>
<path d="M0 0 C4.05504544 1.45610358 6.01112027 4.24896707 8.66796875 7.54296875 C9.4563916 8.49707642 9.4563916 8.49707642 10.26074219 9.47045898 C11.29644199 10.73041059 12.32610404 11.99535406 13.34912109 13.265625 C14.49904089 14.6931677 15.66895772 16.10457384 16.84375 17.51171875 C19.82590378 21.21272105 21.16274996 23.06527125 20.73046875 27.98046875 C19.60546875 29.79296875 19.60546875 29.79296875 17.73046875 30.98046875 C14.94921875 31.38671875 14.94921875 31.38671875 11.73046875 30.98046875 C9.62274588 29.2402307 8.08015594 27.730873 6.35546875 25.66796875 C5.8872168 25.12906006 5.41896484 24.59015137 4.93652344 24.03491211 C3.50922205 22.36948392 2.11590259 20.68081893 0.73046875 18.98046875 C-0.10226563 17.96726562 -0.935 16.9540625 -1.79296875 15.91015625 C-7.32547599 8.78583991 -7.32547599 8.78583991 -7.08203125 5.28125 C-5.79315426 1.63149736 -3.94149661 -0.03391994 0 0 Z " fill="#890E4F" transform="translate(146.26953125,450.01953125)"/>
<path d="M0 0 C1.375 2.375 1.375 2.375 1.25 5.5 C0.375 8.375 0.375 8.375 -1.625 10.375 C-3.52929688 10.78564453 -3.52929688 10.78564453 -5.84375 11.0078125 C-6.69453125 11.09160156 -7.5453125 11.17539062 -8.421875 11.26171875 C-9.31390625 11.34035156 -10.2059375 11.41898437 -11.125 11.5 C-12.41664063 11.62955078 -12.41664063 11.62955078 -13.734375 11.76171875 C-18.18067263 12.1810552 -22.62962204 12.47930564 -27.09375 12.6171875 C-28.29161133 12.65755127 -28.29161133 12.65755127 -29.51367188 12.69873047 C-32.18183008 12.28962111 -33.02958106 11.51954862 -34.625 9.375 C-35.0625 6.375 -35.0625 6.375 -34.625 3.375 C-31.10150588 -0.53683622 -26.36858947 -0.39616479 -21.4375 -0.8125 C-20.62474609 -0.89435547 -19.81199219 -0.97621094 -18.97460938 -1.06054688 C-4.0028028 -2.47792554 -4.0028028 -2.47792554 0 0 Z " fill="#890E4F" transform="translate(403.625,432.625)"/>
<path d="M0 0 C3 0.375 3 0.375 4.69995117 1.6418457 C6 3.375 6 3.375 6.13793945 5.30932617 C6.02667725 6.02580322 5.91541504 6.74228027 5.80078125 7.48046875 C5.6817041 8.27630371 5.56262695 9.07213867 5.43994141 9.89208984 C5.22217041 11.12113037 5.22217041 11.12113037 5 12.375 C4.8664209 13.15182129 4.7328418 13.92864258 4.59521484 14.72900391 C4.16650771 17.05872097 3.6850231 19.37157873 3.1875 21.6875 C3.03474609 22.47189453 2.88199219 23.25628906 2.72460938 24.06445312 C1.76103469 28.54717012 0.93173165 31.59966001 -3 34.375 C-6.125 34.3125 -6.125 34.3125 -9 33.375 C-11.14608847 30.1558673 -11.23513644 29.83469301 -10.7421875 26.2734375 C-10.63229492 25.47776367 -10.52240234 24.68208984 -10.40917969 23.86230469 C-9.754327 19.88161308 -8.98961242 15.94025661 -8.125 12 C-7.96386719 11.20722656 -7.80273438 10.41445313 -7.63671875 9.59765625 C-7.38728516 8.45490234 -7.38728516 8.45490234 -7.1328125 7.2890625 C-6.98730957 6.6079541 -6.84180664 5.9268457 -6.69189453 5.22509766 C-5.34635527 1.62718073 -3.77365153 0.47170644 0 0 Z " fill="#8A0F50" transform="translate(340,24.625)"/>
<path d="M0 0 C5.11118841 0.15360048 9.59592773 2.18414893 14.265625 4.109375 C15.1628125 4.45742187 16.06 4.80546875 16.984375 5.1640625 C18.27601563 5.68613281 18.27601563 5.68613281 19.59375 6.21875 C20.37137695 6.53295898 21.14900391 6.84716797 21.95019531 7.17089844 C24.3930098 8.57652739 25.57137953 9.95229922 27.015625 12.359375 C26.87739681 15.19305293 26.34117869 16.84534285 24.828125 19.234375 C21.99431569 20.99329113 20.25028045 20.10803833 17.015625 19.359375 C13.55048867 18.16307361 10.16036035 16.80373773 6.765625 15.421875 C5.85554688 15.06158203 4.94546875 14.70128906 4.0078125 14.33007812 C-2.72630047 11.61744953 -2.72630047 11.61744953 -4.984375 9.359375 C-5.234375 5.859375 -5.234375 5.859375 -4.984375 2.359375 C-2.984375 0.359375 -2.984375 0.359375 0 0 Z " fill="#880E4F" transform="translate(471.984375,224.640625)"/>
</svg>
