<?xml version="1.0" encoding="UTF-8"?>
<svg version="1.1" xmlns="http://www.w3.org/2000/svg" width="643" height="209">
<path d="M0 0 C4.3553003 3.13219839 7.05196107 7.72846295 9.9921875 12.12890625 C11.23762565 13.95096913 12.48371353 15.77258808 13.73046875 17.59375 C14.32037598 18.46241699 14.9102832 19.33108398 15.51806641 20.22607422 C17.35718179 22.91764065 19.2508775 25.56345403 21.1796875 28.19140625 C21.7778125 29.00867188 22.3759375 29.8259375 22.9921875 30.66796875 C24.0440625 32.10269531 24.0440625 32.10269531 25.1171875 33.56640625 C29.48928513 39.53910691 33.82216609 45.53805717 38.1171875 51.56640625 C38.53548828 52.14551758 38.95378906 52.72462891 39.38476562 53.32128906 C40.41969265 54.76388734 41.42610532 56.226829 42.4296875 57.69140625 C42.96207031 58.45710938 43.49445313 59.2228125 44.04296875 60.01171875 C46.11691806 64.9439473 45.80000831 68.64514357 44.04907227 73.57177734 C42.52579708 77.15106925 40.90514375 80.67575933 39.2421875 84.19140625 C38.64648741 85.47587946 38.05209918 86.76096183 37.45898438 88.04663086 C36.55792746 89.99762173 35.65514321 91.94768239 34.74578857 93.89482117 C32.8391816 97.97837346 30.99785219 102.08435574 29.203125 106.21875 C28.54352783 107.72477783 28.54352783 107.72477783 27.87060547 109.26123047 C27.05603421 111.12487559 26.24987817 112.99222961 25.45361328 114.86376953 C23.04300603 120.2968507 21.01223438 123.86592483 15.33496094 126.34448242 C8.08366083 129.0010765 0.40681205 130.35021103 -7.1328125 131.94140625 C-9.99547207 132.55153691 -12.85731632 133.16539713 -15.71875 133.78125 C-16.77348007 134.00788078 -16.77348007 134.00788078 -17.84951782 134.23908997 C-22.01546901 135.14100101 -26.16052146 136.10171569 -30.296875 137.1328125 C-31.23370117 137.36629395 -32.17052734 137.59977539 -33.13574219 137.84033203 C-34.81343299 138.26490965 -36.4888548 138.69862313 -38.16113281 139.14404297 C-44.87693785 140.83956046 -51.61969042 142.07062594 -58.0859375 139.08984375 C-61.75784545 135.77692121 -64.66941127 132.13848174 -67.6328125 128.19140625 C-68.55296143 126.98701904 -68.55296143 126.98701904 -69.49169922 125.75830078 C-73.48906365 120.49850073 -77.38442396 115.17038122 -81.18554688 109.76733398 C-84.40816783 105.19070952 -87.75696496 100.71835171 -91.1328125 96.25390625 C-103.99903281 79.14498124 -103.99903281 79.14498124 -103.8828125 73.56640625 C-102.02767504 66.17622032 -98.54708069 59.42671112 -95.1953125 52.62890625 C-91.08735011 44.21156201 -87.08898637 35.77749588 -83.4699707 27.13696289 C-80.50854543 20.23585126 -77.77614569 16.59999832 -70.8828125 13.56640625 C-67.74731305 12.58277105 -64.5734559 11.79131292 -61.3828125 11.0078125 C-60.01370728 10.66217506 -60.01370728 10.66217506 -58.61694336 10.30955505 C-55.70716795 9.57610965 -52.79516481 8.85204463 -49.8828125 8.12890625 C-46.06949937 7.17509673 -42.25726433 6.21704617 -38.4453125 5.2578125 C-37.06666016 4.91268112 -37.06666016 4.91268112 -35.66015625 4.56057739 C-29.30789948 2.95985617 -23.02327724 1.21004989 -16.7578125 -0.70532227 C-10.92043463 -2.18399908 -5.46709218 -2.71873012 0 0 Z " fill="#C0175A" transform="translate(136.8828125,24.43359375)"/>
<path d="M0 0 C3.15303682 2.08825582 5.97147971 4.14056622 8.68359375 6.77734375 C8.68359375 7.43734375 8.68359375 8.09734375 8.68359375 8.77734375 C9.34359375 8.77734375 10.00359375 8.77734375 10.68359375 8.77734375 C20.89044686 22.27601745 24.64013594 37.01606355 22.68359375 53.77734375 C20.05224146 67.99964047 12.07077717 81.09391219 0.26953125 89.49609375 C-8.63213592 95.11819933 -16.68659082 97.33036125 -27.19140625 97.21484375 C-28.16376221 97.20654541 -29.13611816 97.19824707 -30.13793945 97.18969727 C-37.19321292 97.02330769 -43.067268 96.24679942 -49.31640625 92.77734375 C-50.23292969 92.29136719 -51.14945312 91.80539063 -52.09375 91.3046875 C-65.05892612 83.78168407 -72.66651534 72.58417927 -77.19140625 58.46484375 C-80.70335848 43.95713634 -77.9795231 29.71169385 -71.1328125 16.6875 C-67.76794205 11.29647099 -63.52190543 4.84584348 -57.31640625 2.77734375 C-57.31640625 2.11734375 -57.31640625 1.45734375 -57.31640625 0.77734375 C-55.13263859 -0.35542893 -52.94483497 -1.47888414 -50.75390625 -2.59765625 C-50.14482422 -2.91476563 -49.53574219 -3.231875 -48.90820312 -3.55859375 C-32.49334744 -11.89629822 -15.24313754 -9.37581802 0 0 Z M-46.31640625 25.77734375 C-52.36835209 34.13557166 -53.19753561 41.62386474 -52.31640625 51.77734375 C-50.23273249 59.16756984 -45.65852908 64.54926186 -39.31640625 68.77734375 C-35.28716173 70.80895271 -31.86804185 71.07522116 -27.37890625 71.08984375 C-26.19425781 71.10660156 -25.00960937 71.12335938 -23.7890625 71.140625 C-16.71488267 70.40058144 -11.36243473 66.31105658 -6.828125 61.05078125 C-1.90677296 53.86976617 -2.13682922 45.12559808 -3.31640625 36.77734375 C-5.44005816 28.78062578 -10.38525574 24.01510601 -17.31640625 19.77734375 C-27.57990213 14.85941864 -38.5439704 18.0049079 -46.31640625 25.77734375 Z " fill="#E81C62" transform="translate(500.31640625,56.22265625)"/>
<path d="M0 0 C2.75785649 2.83294664 3.86041868 4.706332 4.578125 8.62109375 C3.08535093 13.52375782 0.63703489 17.41908793 -2.734375 21.24609375 C-6.38090944 23.11176253 -9.47088944 23.49263468 -13.421875 22.62109375 C-15.65201705 21.50602273 -17.63014647 20.25780108 -19.66015625 18.8125 C-23.44681083 16.25168039 -26.98682271 16.38766995 -31.421875 16.62109375 C-33.84405617 16.99740487 -33.84405617 16.99740487 -35.421875 18.62109375 C-36.24057685 22.18316036 -36.24057685 22.18316036 -36.421875 25.62109375 C-31.52787286 29.76217249 -25.97223246 30.77660149 -19.796875 31.93359375 C-9.97549433 34.02854506 -1.37955754 36.39012109 5.17578125 44.36328125 C8.80571099 50.20756924 10.11244828 55.18874672 10.015625 61.93359375 C10.00732666 62.6805249 9.99902832 63.42745605 9.99047852 64.19702148 C9.71984048 73.08184659 7.02815568 80.17261315 0.91015625 86.73046875 C-10.21999764 95.75391009 -22.55560526 97.75756915 -36.421875 96.62109375 C-44.85487466 95.04465462 -51.19567015 91.44124176 -57.421875 85.62109375 C-58.03289063 85.06292969 -58.64390625 84.50476563 -59.2734375 83.9296875 C-62.81222869 80.31542446 -64.53700623 77.00138777 -64.78125 71.8984375 C-63.9828218 66.83883274 -60.72088632 63.3230953 -56.70703125 60.3515625 C-53.49290817 58.63882118 -51.55406956 58.58926913 -48.046875 59.43359375 C-44.0023683 61.51519088 -40.80413602 64.66323554 -37.53515625 67.78125 C-33.5383674 71.26089426 -30.73600619 71.88760535 -25.39453125 71.7578125 C-23.01026478 71.59256631 -20.73960873 71.20052718 -18.421875 70.62109375 C-17.98875 69.40421875 -17.555625 68.18734375 -17.109375 66.93359375 C-16.86574219 66.24910156 -16.62210938 65.56460938 -16.37109375 64.859375 C-16.21557563 62.38560044 -16.21557563 62.38560044 -18.3125 60.00390625 C-22.25403083 56.9833864 -25.69830438 56.20075176 -30.484375 55.18359375 C-42.14943623 52.38313279 -52.45558578 48.99902608 -59.421875 38.62109375 C-63.41431785 31.83394091 -64.13751326 23.56803009 -63.01953125 15.83984375 C-60.53022439 6.29504585 -54.66243788 -0.21847548 -46.421875 -5.37890625 C-32.54530955 -12.83113584 -11.97079251 -10.08463823 0 0 Z " fill="#E91D62" transform="translate(593.421875,56.37890625)"/>
<path d="M0 0 C1.6328125 1.10546875 1.6328125 1.10546875 3.9453125 3.10546875 C3.2853125 3.43546875 2.6253125 3.76546875 1.9453125 4.10546875 C2.21682129 4.67354248 2.48833008 5.24161621 2.76806641 5.8269043 C5.41221944 11.36194576 8.04921894 16.90033629 10.6796875 22.44189453 C11.45393111 24.07133084 12.22961935 25.70008295 13.0078125 27.32763672 C13.8673785 29.12600996 14.71923353 30.92806352 15.5703125 32.73046875 C16.27027344 34.20386719 16.27027344 34.20386719 16.984375 35.70703125 C17.9453125 38.10546875 17.9453125 38.10546875 17.9453125 41.10546875 C18.6053125 41.10546875 19.2653125 41.10546875 19.9453125 41.10546875 C20.4403125 43.58046875 20.4403125 43.58046875 20.9453125 46.10546875 C16.95271247 49.76081919 13.72876121 52.53379506 8.1328125 52.54296875 C5.4368017 52.38550263 3.54391736 51.97167037 0.9453125 51.10546875 C0.9453125 52.42546875 0.9453125 53.74546875 0.9453125 55.10546875 C2.4303125 55.60046875 2.4303125 55.60046875 3.9453125 56.10546875 C2.49756095 59.70528341 0.73576958 61.25650158 -2.4921875 63.35546875 C-3.27464844 63.87625 -4.05710937 64.39703125 -4.86328125 64.93359375 C-7.0546875 66.10546875 -7.0546875 66.10546875 -10.0546875 66.10546875 C-10.209375 65.14640625 -10.209375 65.14640625 -10.3671875 64.16796875 C-10.5940625 63.48734375 -10.8209375 62.80671875 -11.0546875 62.10546875 C-12.0446875 61.77546875 -13.0346875 61.44546875 -14.0546875 61.10546875 C-13.90386719 61.71132812 -13.75304687 62.3171875 -13.59765625 62.94140625 C-13.16440618 66.03604964 -13.19427228 68.08160564 -14.0546875 71.10546875 C-17.38387744 74.6213921 -21.13698534 77.20940766 -25.171875 79.85888672 C-27.06110718 81.10971912 -28.90336685 82.4107581 -30.7421875 83.734375 C-39.65584565 90.10546875 -39.65584565 90.10546875 -42.0546875 90.10546875 C-45.51909428 74.73216367 -45.51909428 74.73216367 -41.0546875 67.10546875 C-42.7046875 66.77546875 -44.3546875 66.44546875 -46.0546875 66.10546875 C-46.77123779 62.19188449 -47.4831799 58.27749244 -48.19091797 54.36230469 C-48.43217427 53.03134711 -48.67467435 51.70061434 -48.91845703 50.37011719 C-49.26924659 48.45437665 -49.61515018 46.53774349 -49.9609375 44.62109375 C-50.17041016 43.46899414 -50.37988281 42.31689453 -50.59570312 41.12988281 C-51.0546875 38.10546875 -51.0546875 38.10546875 -51.0546875 34.10546875 C-49.4046875 34.10546875 -47.7546875 34.10546875 -46.0546875 34.10546875 C-46.0546875 32.78546875 -46.0546875 31.46546875 -46.0546875 30.10546875 C-46.6528125 30.00234375 -47.2509375 29.89921875 -47.8671875 29.79296875 C-50.44936925 28.98142591 -51.36716943 28.20549124 -53.0546875 26.10546875 C-53.73422185 23.10203069 -53.83113154 20.19054105 -54.0546875 17.10546875 C-59.6646875 17.10546875 -65.2746875 17.10546875 -71.0546875 17.10546875 C-70.3946875 16.77546875 -69.7346875 16.44546875 -69.0546875 16.10546875 C-69.0546875 15.44546875 -69.0546875 14.78546875 -69.0546875 14.10546875 C-68.3973613 13.9322963 -67.7400351 13.75912384 -67.06278992 13.58070374 C-60.23336465 11.78128938 -53.40429785 9.98051951 -46.57543945 8.17895508 C-44.02540139 7.50640507 -41.47527153 6.83420304 -38.92504883 6.16235352 C-35.26359364 5.19768858 -31.6024683 4.23178075 -27.94140625 3.265625 C-26.22566658 2.81401756 -26.22566658 2.81401756 -24.4752655 2.35328674 C-22.88395561 1.93296425 -22.88395561 1.93296425 -21.26049805 1.50415039 C-20.32562057 1.25766251 -19.3907431 1.01117462 -18.42753601 0.75721741 C-12.44410921 -0.88624629 -6.00144895 -2.61279811 0 0 Z " fill="#E61D62" transform="translate(136.0546875,23.89453125)"/>
<path d="M0 0 C3.62802201 3.86723225 6.19950519 7.83499239 8.75 12.5 C12.84719471 19.88015199 17.36886691 26.94609821 22 34 C26.05089593 26.1744056 29.72910478 18.24459309 33.1953125 10.14501953 C36.61558605 2.27255256 36.61558605 2.27255256 39 0 C43.71424275 -1.19015309 48.30555363 -0.80781745 52.6875 1.28125 C58.56071429 5.12142857 58.56071429 5.12142857 60 8 C60.02522972 14.53095551 58.10127838 19.92522526 55.3515625 25.75 C54.98316254 26.55756744 54.61476257 27.36513489 54.23519897 28.19717407 C53.04334785 30.80359708 51.83424838 33.40160962 50.625 36 C49.79546641 37.80713402 48.96735009 39.61491927 48.140625 41.42333984 C46.50731193 44.99487196 44.8691031 48.56408956 43.22753906 52.13183594 C40.41266217 58.26497904 37.69579651 64.43860225 35 70.625 C34.15558274 72.54715401 33.31054714 74.46903651 32.46484375 76.390625 C31.18573785 79.29819613 29.90981345 82.20701102 28.64111328 85.11914062 C27.29217213 88.20921771 25.92886891 91.29259688 24.5625 94.375 C24.16095703 95.30393066 23.75941406 96.23286133 23.34570312 97.18994141 C22.96478516 98.04249512 22.58386719 98.89504883 22.19140625 99.7734375 C21.86342041 100.52028809 21.53543457 101.26713867 21.19750977 102.03662109 C19.75504625 104.40161428 18.36755561 105.57412028 16 107 C9.65107663 107.74070773 5.31773162 106.53292975 0 103 C-2.59224299 100.65077979 -2.94200932 99.51247576 -3.3359375 96.03125 C-3.25549763 90.6910137 -0.7967562 86.09236219 1.375 81.3125 C1.7875 80.37599609 2.2 79.43949219 2.625 78.47460938 C5.76849692 71.37132038 5.76849692 71.37132038 7.19775391 69.07885742 C8.37344687 66.03228847 7.83773517 64.13148177 7 61 C5.49797095 57.84900809 5.49797095 57.84900809 3.53515625 54.66796875 C3.01113724 53.78340248 3.01113724 53.78340248 2.47653198 52.88096619 C1.73119831 51.62561259 0.98157322 50.37279844 0.22799683 49.12237549 C-0.94593714 47.17349326 -2.10712684 45.21751306 -3.26538086 43.25927734 C-6.58111091 37.66348522 -9.93130164 32.09124347 -13.3515625 26.55859375 C-13.81957275 25.79200439 -14.28758301 25.02541504 -14.76977539 24.2355957 C-15.60138787 22.87784502 -16.44598006 21.52791515 -17.30639648 20.18823242 C-19.87460139 15.98741949 -20.75242733 12.89364952 -20 8 C-18.171875 5.6015625 -18.171875 5.6015625 -15.75 3.625 C-14.56664062 2.62339844 -14.56664062 2.62339844 -13.359375 1.6015625 C-8.86702793 -1.4478784 -5.23950943 -1.37881827 0 0 Z " fill="#181818" transform="translate(276,77)"/>
<path d="M0 0 C1.3671875 1.37890625 1.3671875 1.37890625 3.2421875 3.81640625 C3.81324219 3.53023438 4.38429688 3.2440625 4.97265625 2.94921875 C5.72160156 2.57539062 6.47054688 2.2015625 7.2421875 1.81640625 C8.28826172 1.28660156 8.28826172 1.28660156 9.35546875 0.74609375 C16.37166065 -2.61868745 21.21170724 -3.00340709 28.6796875 -0.55859375 C38.60048543 3.34177475 44.73089042 9.28631993 49.2421875 18.9609375 C51.83006132 25.46794715 52.39908634 31.73004069 52.41015625 38.6640625 C52.41514885 39.76553871 52.41514885 39.76553871 52.42024231 40.88926697 C52.42527933 42.43308897 52.42765164 43.97692174 52.42749023 45.52075195 C52.42968418 47.87534467 52.44789402 50.22947388 52.46679688 52.58398438 C52.46973005 54.08984216 52.47171535 55.59570215 52.47265625 57.1015625 C52.47984177 57.80064224 52.48702728 58.49972198 52.49443054 59.21998596 C52.47599064 63.18148716 52.15831567 66.31633197 50.2421875 69.81640625 C45.59191946 72.91658494 40.42769467 73.15312932 34.9140625 72.5703125 C31.99742083 71.95997822 29.74254343 71.28516605 27.54492188 69.22631836 C25.72209333 65.85429052 25.82044973 62.68367255 25.8359375 58.9453125 C25.82510132 58.18596909 25.81426514 57.42662567 25.80310059 56.64427185 C25.76889309 54.22239637 25.75325934 51.80099133 25.7421875 49.37890625 C25.72758877 46.19225789 25.69385085 43.00665434 25.6484375 39.8203125 C25.65145874 39.09308487 25.65447998 38.36585724 25.65759277 37.61659241 C25.59261577 33.19890065 25.04105231 30.28908708 22.2421875 26.81640625 C19.54007689 25.91570271 17.67149819 25.594831 14.8671875 25.50390625 C14.11695313 25.46652344 13.36671875 25.42914063 12.59375 25.390625 C9.18297361 26.00819083 7.66976897 27.3613315 5.2421875 29.81640625 C4.49477677 33.17278374 4.49477677 33.17278374 4.60546875 36.9609375 C4.59509079 37.64894943 4.58471283 38.33696136 4.57402039 39.04582214 C4.54438832 41.24069287 4.54769771 43.43387234 4.5546875 45.62890625 C4.54575018 47.81275244 4.52960297 49.99614943 4.5032196 52.17985535 C4.4816033 54.16903409 4.48106267 56.15840899 4.48168945 58.14770508 C4.17812085 62.79778195 3.7487501 67.25822694 0.41796875 70.703125 C-4.64777225 73.29511097 -10.2110876 73.08646933 -15.6953125 72.12890625 C-19.06607238 70.68429487 -19.95218509 69.93144378 -21.7578125 66.81640625 C-22.15222168 63.97731018 -22.15222168 63.97731018 -22.17773438 60.65844727 C-22.19364624 59.41358047 -22.20955811 58.16871368 -22.22595215 56.88612366 C-22.22721942 55.53085385 -22.22739626 54.17558264 -22.2265625 52.8203125 C-22.23366634 51.42552891 -22.24136567 50.03074824 -22.24963379 48.63597107 C-22.26307006 45.71483229 -22.26465136 42.79396374 -22.25878906 39.87280273 C-22.25289325 36.1354698 -22.28348077 32.39943612 -22.32390594 28.66235447 C-22.34979817 25.78233395 -22.35265911 22.90262567 -22.34901428 20.02250481 C-22.35070413 18.64501619 -22.36033393 17.26751295 -22.37815857 15.89013863 C-22.51773631 3.77121867 -22.51773631 3.77121867 -19.35742188 0.48803711 C-14.03892975 -2.93192115 -5.49177339 -3.69779408 0 0 Z " fill="#181818" transform="translate(362.7578125,79.18359375)"/>
<path d="M0 0 C4.3460836 0.05761853 7.30663002 1.18808021 11.125 3.25 C13.6189959 6.99099384 13.36722969 8.91335763 13.35205078 13.38354492 C13.35234283 14.10574722 13.35263489 14.82794952 13.35293579 15.57203674 C13.35154285 17.95830312 13.33598353 20.34425695 13.3203125 22.73046875 C13.31658224 24.3852776 13.31373533 26.04008866 13.31173706 27.69490051 C13.30410163 32.04985657 13.28445393 36.40467918 13.2623291 40.75958252 C13.24186873 45.20363561 13.23273494 49.64771026 13.22265625 54.09179688 C13.20120793 62.81125915 13.1670731 71.53061297 13.125 80.25 C14.70583374 80.24214478 14.70583374 80.24214478 16.31860352 80.23413086 C20.25283957 80.21594216 24.18707195 80.20451755 28.12133789 80.19506836 C29.81958645 80.19005973 31.51783074 80.18325094 33.21606445 80.17456055 C35.66618915 80.16234227 38.1162565 80.15673686 40.56640625 80.15234375 C41.31773331 80.14718246 42.06906036 80.14202118 42.84315491 80.13670349 C54.5031641 80.13548068 54.5031641 80.13548068 58.53515625 82.90625 C60.63349282 85.99962087 60.62638352 88.03623778 60.5625 91.75 C60.56121094 92.8740625 60.55992187 93.998125 60.55859375 95.15625 C60.0852897 98.53333833 59.6137063 99.94100335 57.125 102.25 C53.59420266 103.17562194 50.25877611 103.38058234 46.61962891 103.39526367 C45.54145905 103.40164352 44.46328918 103.40802338 43.35244751 103.41459656 C42.19715546 103.41570938 41.0418634 103.4168222 39.8515625 103.41796875 C38.65445648 103.42129715 37.45735046 103.42462555 36.22396851 103.42805481 C33.69391259 103.43311307 31.16385003 103.43546348 28.63378906 103.43530273 C24.7713721 103.43748791 20.90924141 103.45565207 17.046875 103.47460938 C14.58593847 103.47754381 12.1250006 103.47952827 9.6640625 103.48046875 C7.93719711 103.49124702 7.93719711 103.49124702 6.17544556 103.50224304 C-4.9071197 103.47080205 -4.9071197 103.47080205 -9.875 101.25 C-13.3171811 97.00818561 -13.30834544 92.84467047 -13.27905273 87.60766602 C-13.28591599 86.74850586 -13.29277924 85.8893457 -13.29985046 85.00415039 C-13.31811748 82.17056647 -13.31428108 79.33753629 -13.30859375 76.50390625 C-13.31315564 74.53002238 -13.31846123 72.5561401 -13.32447815 70.58226013 C-13.3334091 66.44727116 -13.33098632 62.31247532 -13.32104492 58.17749023 C-13.30955609 52.88347677 -13.32976563 47.5901304 -13.35896206 42.29620457 C-13.37732497 38.22034992 -13.37703139 34.14465509 -13.37132454 30.06876945 C-13.37117133 28.11716717 -13.37721518 26.16555405 -13.38961601 24.21399117 C-13.40452564 21.48281362 -13.39384929 18.75286801 -13.37670898 16.02172852 C-13.38637695 15.21893967 -13.39604492 14.41615082 -13.40600586 13.58903503 C-13.3377038 8.38080193 -12.34312286 5.37118861 -8.875 1.25 C-5.90221347 0.09391635 -3.19981039 0.20643938 0 0 Z " fill="#191919" transform="translate(207.875,48.75)"/>
<path d="M0 0 C0.495 0.99 0.495 0.99 1 2 C3.54941373 2.31241371 6.00361513 2.51303421 8.5625 2.625 C9.62887695 2.68300781 9.62887695 2.68300781 10.71679688 2.7421875 C12.47742425 2.83671783 14.23867728 2.91945817 16 3 C16.66 6.63 17.32 10.26 18 14 C19.98 14.66 21.96 15.32 24 16 C24 17.32 24 18.64 24 20 C22.35 20 20.7 20 19 20 C21.97 35.84 21.97 35.84 25 52 C26.32 52.33 27.64 52.66 29 53 C28.125 57.875 28.125 57.875 27 59 C27.09096556 61.86688248 27.23767988 64.70300515 27.4375 67.5625 C27.51581055 68.77196289 27.51581055 68.77196289 27.59570312 70.00585938 C27.72577376 72.00421738 27.86229056 74.00215386 28 76 C28.99 76.495 28.99 76.495 30 77 C24.76884607 77.21544006 20.56214697 76.52370193 15.5625 75 C14.32628906 74.62875 13.09007812 74.2575 11.81640625 73.875 C10.88699219 73.58625 9.95757812 73.2975 9 73 C11.75 68.125 11.75 68.125 14 67 C14 66.34 14 65.68 14 65 C9.66652819 65.74315664 7.3194787 68.08045911 4.09765625 70.91796875 C3.40542969 71.27503906 2.71320313 71.63210937 2 72 C-0.14453125 71.30078125 -0.14453125 71.30078125 -3 70 C-6.22561839 69.21312833 -9.48822508 68.61761419 -12.75 68 C-14.47414522 67.66763466 -16.19810519 67.33430687 -17.921875 67 C-18.76041016 66.83757812 -19.59894531 66.67515625 -20.46289062 66.5078125 C-24.32341067 65.73511411 -28.1604426 64.87050694 -32 64 C-34.65915011 55.80295534 -27.84333796 46.22348075 -24.3125 39.0625 C-20.20453761 30.64515576 -16.20617387 22.21108963 -12.5871582 13.57055664 C-9.66801719 6.76798149 -6.85359312 2.95950612 0 0 Z " fill="#D71A5F" transform="translate(66,38)"/>
<path d="M0 0 C7.15634259 1.58855077 13.59229375 5.83816623 19.96875 9.33984375 C23.3665758 11.20076639 26.77551076 13.0402202 30.1875 14.875 C31.29480469 15.47054687 32.40210938 16.06609375 33.54296875 16.6796875 C34.75919922 17.33324219 34.75919922 17.33324219 36 18 C35.50886719 16.37384766 35.50886719 16.37384766 35.0078125 14.71484375 C34.06956629 11.25642459 33.82670136 8.5526221 34 5 C35.32 5 36.64 5 38 5 C38.98419339 9.05979772 39.23183367 12.82699392 39 17 C38.34 17.99 37.68 18.98 37 20 C37.99 20.226875 38.98 20.45375 40 20.6875 C43.81386245 21.76616817 46.78316721 23.59124874 50.0703125 25.765625 C52.19492351 27.17567287 52.19492351 27.17567287 55.4375 28.6875 C58 30 58 30 59 32 C60.485 32.495 60.485 32.495 62 33 C53.4042199 36.47453085 44.6724985 38.56080863 35.625 40.4375 C32.78045415 41.03794427 29.93701269 41.643512 27.09375 42.25 C26.39678009 42.39799545 25.69981018 42.54599091 24.98171997 42.69847107 C18.18637436 44.15160768 11.43620485 45.78898382 4.72119141 47.57788086 C-0.78223016 48.96701956 -6.32787641 49.73671792 -12 49 C-12.66 48.34 -13.32 47.68 -14 47 C-13.01 46.505 -13.01 46.505 -12 46 C-11.24225074 43.26795873 -10.589177 40.58117159 -10 37.8125 C-8.89682333 32.75771004 -7.64884656 27.91085037 -6 23 C-5.77608751 21.04876258 -5.55285377 19.09741114 -5.34375 17.14453125 C-4.7240154 13.27823242 -3.32527634 9.67155639 -2 6 C-1.4121875 4.2365625 -1.4121875 4.2365625 -0.8125 2.4375 C-0.544375 1.633125 -0.27625 0.82875 0 0 Z " fill="#AC1356" transform="translate(94,116)"/>
<path d="M0 0 C3.18189402 1.35608484 4.79188749 2.67935486 6.734375 5.52734375 C7.46515259 6.58296509 7.46515259 6.58296509 8.21069336 7.65991211 C8.71866455 8.41151611 9.22663574 9.16312012 9.75 9.9375 C10.82885255 11.50039675 11.90827899 13.06289751 12.98828125 14.625 C13.5085791 15.38296875 14.02887695 16.1409375 14.56494141 16.921875 C16.31569249 19.45715795 18.11636739 21.95237234 19.9375 24.4375 C20.55367187 25.28183594 21.16984375 26.12617187 21.8046875 26.99609375 C23.03253658 28.67619329 24.26056475 30.35616211 25.48925781 32.03564453 C29.35990956 37.33335475 33.19289535 42.65647465 37 48 C37.41830078 48.57911133 37.83660156 49.15822266 38.26757812 49.75488281 C39.30250515 51.19748109 40.30891782 52.66042275 41.3125 54.125 C41.84488281 54.89070313 42.37726563 55.65640625 42.92578125 56.4453125 C44.99973056 61.37754105 44.68282081 65.07873732 42.93188477 70.00537109 C41.40861313 73.58465467 39.78664089 77.10875899 38.125 80.625 C37.53281171 81.90647641 36.94208633 83.1886298 36.3527832 84.47143555 C35.15912686 87.06472372 33.95773732 89.65419127 32.74951172 92.24072266 C30.18227454 97.74345766 27.68981904 103.28003623 25.1875 108.8125 C23.79369174 111.87592498 22.39738943 114.93820711 21 118 C20.34 118 19.68 118 19 118 C18.01292355 97.32127347 17.88204171 76.6971428 18 56 C17.34 55.67 16.68 55.34 16 55 C16 53.68 16 52.36 16 51 C16.99 51 17.98 51 19 51 C18.67 46.38 18.34 41.76 18 37 C17.34 37 16.68 37 16 37 C15.68289062 36.13761719 15.36578125 35.27523437 15.0390625 34.38671875 C11.6983923 25.64745169 7.77117623 17.4564317 3.25244141 9.26049805 C2.83140137 8.48875244 2.41036133 7.71700684 1.9765625 6.921875 C1.40542725 5.89465332 1.40542725 5.89465332 0.82275391 4.84667969 C0 3 0 3 0 0 Z " fill="#AC1356" transform="translate(138,28)"/>
<path d="M0 0 C1.640625 1.1015625 1.640625 1.1015625 3.953125 3.1015625 C3.293125 3.4315625 2.633125 3.7615625 1.953125 4.1015625 C2.22463379 4.66963623 2.49614258 5.23770996 2.77587891 5.82299805 C5.42201616 11.3621931 8.05977936 16.90530047 10.69189453 22.45117188 C11.76072524 24.6972474 12.83738999 26.93925307 13.91796875 29.1796875 C14.44519531 30.28828125 14.97242188 31.396875 15.515625 32.5390625 C15.97066406 33.48652344 16.42570312 34.43398438 16.89453125 35.41015625 C18.03365267 38.30629891 18.54958771 41.02289035 18.953125 44.1015625 C17.18086047 43.81872232 15.410337 43.52495752 13.640625 43.2265625 C12.65449219 43.06414062 11.66835937 42.90171875 10.65234375 42.734375 C7.953125 42.1015625 7.953125 42.1015625 4.953125 40.1015625 C3.52917466 39.58351581 2.08968612 39.10703973 0.640625 38.6640625 C-2.1242973 37.78249307 -4.45741901 36.88773749 -7.046875 35.5390625 C-9.7136902 34.26121355 -11.74825883 33.67190032 -14.609375 33.1015625 C-18.33037515 32.35736247 -20.80512038 31.09648842 -24.046875 29.1015625 C-26.01539462 28.55183217 -27.97804727 28.114884 -29.984375 27.7265625 C-32.046875 27.1015625 -32.046875 27.1015625 -34.34765625 25.671875 C-37.56314358 23.80121522 -40.64509217 22.93723462 -44.234375 21.9765625 C-50.89653331 20.17673334 -50.89653331 20.17673334 -53.046875 19.1015625 C-52.551875 17.6165625 -52.551875 17.6165625 -52.046875 16.1015625 C-49.55387211 15.14456139 -47.17285097 14.37248255 -44.609375 13.6640625 C-43.1410298 13.23351713 -41.67357506 12.79992318 -40.20703125 12.36328125 C-39.4917627 12.15106934 -38.77649414 11.93885742 -38.03955078 11.72021484 C-34.69126534 10.68069569 -31.47524603 9.36364601 -28.2421875 8.015625 C-24.87882352 6.61522078 -21.46302593 5.36680359 -18.046875 4.1015625 C-18.046875 3.1115625 -18.046875 2.1215625 -18.046875 1.1015625 C-12.47546813 -1.4171567 -5.78710775 -2.54014272 0 0 Z " fill="#EA3E78" transform="translate(136.046875,23.8984375)"/>
<path d="M0 0 C0.90596924 0.02094727 1.81193848 0.04189453 2.74536133 0.06347656 C4.21972656 0.0828125 4.21972656 0.0828125 5.72387695 0.10253906 C6.74803711 0.13605469 7.77219727 0.16957031 8.82739258 0.20410156 C10.38103516 0.23117188 10.38103516 0.23117188 11.96606445 0.25878906 C14.52493541 0.30595719 17.081951 0.37176099 19.63989258 0.45410156 C17.92866694 4.08811733 15.84055371 6.5804726 13.07739258 9.51660156 C9.60597439 13.25006112 6.28072977 17.04626814 3.07739258 21.01660156 C0.19140465 24.59238626 -2.76455546 28.05811475 -5.86010742 31.45410156 C-9.82971724 35.81166627 -13.5718419 40.32011475 -17.28198242 44.89941406 C-20.50846919 48.86580945 -23.74237541 52.83636955 -27.36010742 56.45410156 C-26.84284598 51.60652558 -25.872014 47.85445118 -23.69995117 43.49707031 C-23.15709473 42.39242432 -22.61423828 41.28777832 -22.05493164 40.1496582 C-21.47501465 38.99199951 -20.89509766 37.83434082 -20.29760742 36.64160156 C-19.10657769 34.2299033 -17.92250454 31.8148191 -16.73901367 29.39941406 C-16.16038574 28.22024414 -15.58175781 27.04107422 -14.9855957 25.82617188 C-12.44685332 20.55955881 -10.09389661 15.21672385 -7.80908203 9.83569336 C-3.89330641 0.74910002 -3.89330641 0.74910002 0 0 Z " fill="#C2185B" transform="translate(61.360107421875,41.5458984375)"/>
<path d="M0 0 C3.18189402 1.35608484 4.79188749 2.67935486 6.734375 5.52734375 C7.46515259 6.58296509 7.46515259 6.58296509 8.21069336 7.65991211 C8.71866455 8.41151611 9.22663574 9.16312012 9.75 9.9375 C10.82885255 11.50039675 11.90827899 13.06289751 12.98828125 14.625 C13.5085791 15.38296875 14.02887695 16.1409375 14.56494141 16.921875 C16.31569249 19.45715795 18.11636739 21.95237234 19.9375 24.4375 C23.50903569 29.32683502 27.07212856 34.22208748 30.625 39.125 C31.16374756 39.86548584 31.70249512 40.60597168 32.25756836 41.36889648 C35.96957357 46.4954321 39.52489694 51.71017287 43 57 C42.34 57.99 41.68 58.98 41 60 C40.401875 59.34 39.80375 58.68 39.1875 58 C35.62317595 54.38386891 31.39375737 51.64588521 27.23046875 48.76953125 C26.49441406 48.18558594 25.75835937 47.60164063 25 47 C25 46.34 25 45.68 25 45 C24.21625 44.731875 23.4325 44.46375 22.625 44.1875 C20 43 20 43 18 40 C18 39.01 18 38.02 18 37 C17.34 37 16.68 37 16 37 C15.68289062 36.13761719 15.36578125 35.27523437 15.0390625 34.38671875 C11.6983923 25.64745169 7.77117623 17.4564317 3.25244141 9.26049805 C2.83140137 8.48875244 2.41036133 7.71700684 1.9765625 6.921875 C1.40542725 5.89465332 1.40542725 5.89465332 0.82275391 4.84667969 C0 3 0 3 0 0 Z " fill="#C2175A" transform="translate(138,28)"/>
<path d="M0 0 C0.99 0.33 1.98 0.66 3 1 C3 2.32 3 3.64 3 5 C3.66 5 4.32 5 5 5 C5.33 4.01 5.66 3.02 6 2 C9.9961545 1.73075555 12.29871284 2.37140041 15.75 4.375 C16.91789062 5.03628906 16.91789062 5.03628906 18.109375 5.7109375 C20 7 20 7 21 9 C22.485 9.495 22.485 9.495 24 10 C17.34951476 12.75394543 10.63499261 14.68337825 3.625 16.25 C2.85236816 16.42499023 2.07973633 16.59998047 1.28369141 16.78027344 C-2.54123035 17.60732852 -6.06092768 18.21970921 -10 18 C-9.505 17.5875 -9.01 17.175 -8.5 16.75 C-6.56613908 14.87797662 -6.56613908 14.87797662 -7 11 C-6.01 11 -5.02 11 -4 11 C-4.66 10.38125 -5.32 9.7625 -6 9.125 C-8 7 -8 7 -8 5 C-4.04 5.99 -4.04 5.99 0 7 C0 4.69 0 2.38 0 0 Z " fill="#A40D50" transform="translate(132,139)"/>
<path d="M0 0 C-2.41146944 2.41146944 -4.18813581 2.81952135 -7.4375 3.8125 C-11.63739829 5.15566556 -15.58550095 6.65995867 -19.5625 8.5625 C-24.20713313 10.77005092 -28.7704295 12.11857409 -33.78515625 13.2265625 C-36.35044032 13.8727824 -36.35044032 13.8727824 -38 17 C-38 16.01 -38 15.02 -38 14 C-43.61 14 -49.22 14 -55 14 C-54.34 13.67 -53.68 13.34 -53 13 C-53 12.34 -53 11.68 -53 11 C-46.10027668 9.09193489 -39.19473689 7.20618683 -32.28466797 5.3359375 C-29.93397915 4.69687746 -27.58467706 4.05269386 -25.23681641 3.40332031 C-21.86450793 2.47155447 -18.48766466 1.5582431 -15.109375 0.6484375 C-14.05820496 0.3537558 -13.00703491 0.0590741 -11.92401123 -0.24453735 C-10.45293915 -0.63516861 -10.45293915 -0.63516861 -8.95214844 -1.03369141 C-8.09055115 -1.26907623 -7.22895386 -1.50446106 -6.34124756 -1.74697876 C-3.57071384 -2.04639343 -2.32759463 -1.46003052 0 0 Z " fill="#E92366" transform="translate(120,27)"/>
<path d="M0 0 C0.66 0 1.32 0 2 0 C1.99333817 1.1333931 1.98667633 2.26678619 1.97981262 3.43452454 C1.91906292 14.10276465 1.87405691 24.77096978 1.84456348 35.43934345 C1.82889101 40.92439786 1.80762382 46.40931291 1.77368164 51.89428711 C1.7411447 57.1851406 1.72315891 62.47585985 1.71536827 67.76680565 C1.70981457 69.78788556 1.69896989 71.80895792 1.68280983 73.82998085 C1.6611109 76.65545296 1.65802992 79.48036652 1.65942383 82.3059082 C1.648638 83.14603958 1.63785217 83.98617096 1.6267395 84.85176086 C1.5171385 89.06131092 1.5171385 89.06131092 3.35384655 92.67914104 C5.63802517 94.51194575 7.85901367 94.98869749 10.6875 95.6875 C11.68136719 95.93886719 12.67523438 96.19023437 13.69921875 96.44921875 C14.45847656 96.63097656 15.21773437 96.81273437 16 97 C16 97.33 16 97.66 16 98 C10.92994988 98.20694082 6.73385401 97.91174874 2 96 C-1.49227128 91.76584775 -1.41608752 87.5439744 -1.35644531 82.29418945 C-1.35848969 81.42860413 -1.36053406 80.5630188 -1.36264038 79.67120361 C-1.36564161 76.81834594 -1.34719412 73.96606995 -1.328125 71.11328125 C-1.3250667 69.12981815 -1.32319112 67.1463529 -1.32244873 65.16288757 C-1.31785014 61.01109569 -1.30343854 56.85949826 -1.28125 52.70776367 C-1.25291273 47.37770727 -1.24203245 42.04780361 -1.2375679 36.71767902 C-1.23341844 32.62485722 -1.22360582 28.53206647 -1.21169281 24.43926048 C-1.20598459 22.47319984 -1.20122771 20.5071362 -1.19742584 18.54107094 C-1.19057657 15.79986909 -1.1769519 13.05878985 -1.16113281 10.31762695 C-1.16001495 9.500457 -1.15889709 8.68328705 -1.15774536 7.84135437 C-1.11469615 2.2293923 -1.11469615 2.2293923 0 0 Z " fill="#040304" transform="translate(196,54)"/>
<path d="M0 0 C2.375 0.3125 2.375 0.3125 5 1 C7.4939959 4.74099384 7.24222969 6.66335763 7.22705078 11.13354492 C7.22734283 11.85574722 7.22763489 12.57794952 7.22793579 13.32203674 C7.22654285 15.70830312 7.21098353 18.09425695 7.1953125 20.48046875 C7.19158224 22.1352776 7.18873533 23.79008866 7.18673706 25.44490051 C7.17910163 29.79985657 7.15945393 34.15467918 7.1373291 38.50958252 C7.11686873 42.95363561 7.10773494 47.39771026 7.09765625 51.84179688 C7.07620793 60.56125915 7.0420731 69.28061297 7 78 C7.99 78.33 8.98 78.66 10 79 C8.35 79 6.7 79 5 79 C4.99453156 77.62603813 4.99453156 77.62603813 4.98895264 76.22431946 C4.95106811 67.58728341 4.89421012 58.95062479 4.81609726 50.31385517 C4.77660712 45.87369126 4.74442629 41.43372612 4.72900391 36.9934082 C4.71384727 32.70729381 4.67941989 28.42172583 4.63169098 24.13585472 C4.61686683 22.50166768 4.60895839 20.86740263 4.60811615 19.23314857 C4.60574773 16.94170678 4.57868138 14.65177657 4.54589844 12.3605957 C4.53701599 11.05709671 4.52813354 9.75359772 4.51898193 8.41059875 C3.92310011 4.49463624 2.71533601 2.81765956 0 0 Z " fill="#070707" transform="translate(214,51)"/>
<path d="M0 0 C1.32 0 2.64 0 4 0 C3.39174965 4.34464536 2.73832608 8.67551867 2 13 C4.97 13.495 4.97 13.495 8 14 C8.33 15.32 8.66 16.64 9 18 C6.69 17.67 4.38 17.34 2 17 C1.67 18.65 1.34 20.3 1 22 C0.01 21.67 -0.98 21.34 -2 21 C-2 19.68 -2 18.36 -2 17 C-2.598125 17.495 -3.19625 17.99 -3.8125 18.5 C-6 20 -6 20 -9 20 C-8.43628586 16.73045798 -7.50037734 15.17424117 -5 13 C-6.98 12.34 -8.96 11.68 -11 11 C-11 10.01 -11 9.02 -11 8 C-9.68 8 -8.36 8 -7 8 C-7 8.66 -7 9.32 -7 10 C-5.35 10 -3.7 10 -2 10 C-1.34 6.7 -0.68 3.4 0 0 Z " fill="#930F51" transform="translate(122,58)"/>
<path d="M0 0 C3.33864404 0.57562828 4.69102632 1.59063616 7 4 C7.99 4.33 8.98 4.66 10 5 C10 4.34 10 3.68 10 3 C12.5614657 0.70351351 13.47967572 0 17 0 C17 1.32 17 2.64 17 4 C16.34 4 15.68 4 15 4 C15 4.99 15 5.98 15 7 C15.99 7.33 16.98 7.66 18 8 C18 9.32 18 10.64 18 12 C15.525 11.505 15.525 11.505 13 11 C13.33 11.5775 13.66 12.155 14 12.75 C15 15 15 15 15 19 C14.01 19 13.02 19 12 19 C11.72027344 18.34773438 11.44054688 17.69546875 11.15234375 17.0234375 C8.62584494 11.51550761 6.31667479 7.79762485 1.35546875 4.25390625 C0.90816406 3.84011719 0.46085937 3.42632812 0 3 C0 2.01 0 1.02 0 0 Z " fill="#900F50" transform="translate(49,113)"/>
<path d="M0 0 C0.99 0.33 1.98 0.66 3 1 C3 2.32 3 3.64 3 5 C3.66 5 4.32 5 5 5 C5.33 4.01 5.66 3.02 6 2 C7.32 2 8.64 2 10 2 C10 2.99 10 3.98 10 5 C9.34 5 8.68 5 8 5 C7.7525 5.598125 7.505 6.19625 7.25 6.8125 C4.91938679 10.89107312 1.36884774 12.58012448 -3 14 C-4.32 14 -5.64 14 -7 14 C-7 13.01 -7 12.02 -7 11 C-6.01 11 -5.02 11 -4 11 C-4.66 10.38125 -5.32 9.7625 -6 9.125 C-8 7 -8 7 -8 5 C-5.36 5.66 -2.72 6.32 0 7 C0 4.69 0 2.38 0 0 Z " fill="#8B0E4F" transform="translate(132,139)"/>
<path d="M0 0 C5.94 0 11.88 0 18 0 C15.14893617 5.70212766 15.14893617 5.70212766 12 8 C6.99194381 7.90725822 3.33181529 6.43004272 -1 4 C-0.67 2.68 -0.34 1.36 0 0 Z " fill="#C1175A" transform="translate(63,42)"/>
<path d="M0 0 C1.05692047 0.00636726 1.05692047 0.00636726 2.13519287 0.01286316 C4.37698212 0.02960337 6.61785931 0.06724471 8.859375 0.10546875 C10.38279948 0.12052171 11.90623811 0.13420905 13.4296875 0.14648438 C17.15654441 0.17949084 20.88287063 0.23124021 24.609375 0.29296875 C24.279375 1.28296875 23.949375 2.27296875 23.609375 3.29296875 C12.059375 3.29296875 0.509375 3.29296875 -11.390625 3.29296875 C-6.81615517 -0.13788363 -5.53273412 -0.06586588 0 0 Z " fill="#2D2C2C" transform="translate(231.390625,128.70703125)"/>
<path d="M0 0 C0.495 1.485 0.495 1.485 1 3 C-0.30710937 2.67515625 -0.30710937 2.67515625 -1.640625 2.34375 C-13.3598822 -0.39581662 -22.88106587 -0.99029186 -34.50390625 2.34375 C-37 3 -37 3 -40 3 C-38.56698226 0.13396452 -36.9230339 -0.04008189 -33.9375 -1.125 C-23.5799834 -4.41721063 -9.99505758 -4.8869195 0 0 Z " fill="#E9296C" transform="translate(491,51)"/>
<path d="M0 0 C-2.78242108 1.51996817 -5.19336525 2.34706355 -8.3125 2.875 C-14.21410338 3.95681403 -19.92458369 5.62079793 -25.6796875 7.29296875 C-28.72083351 7.94055396 -30.16594148 8.11795776 -33 7 C-32.01 7 -31.02 7 -30 7 C-30 6.34 -30 5.68 -30 5 C-25.75641453 3.76830779 -21.50440156 2.56874559 -17.25 1.375 C-16.0434375 1.024375 -14.836875 0.67375 -13.59375 0.3125 C-12.43359375 -0.00976562 -11.2734375 -0.33203125 -10.078125 -0.6640625 C-9.00981445 -0.96779785 -7.94150391 -1.2715332 -6.84082031 -1.58447266 C-3.72470091 -2.04026805 -2.57539203 -1.72236133 0 0 Z " fill="#EA306F" transform="translate(120,27)"/>
<path d="M0 0 C2.76662487 3.08585082 4.76011167 6.29747412 6.6875 9.9375 C10.38287119 16.89125762 14.68021297 23.42432419 19 30 C18.34 30.66 17.68 31.32 17 32 C14.93006165 28.71295785 12.87047816 25.41954109 10.8125 22.125 C10.23435547 21.2071875 9.65621094 20.289375 9.06054688 19.34375 C5.34544135 13.38278972 2.01656397 7.34349176 -1 1 C-0.67 0.67 -0.34 0.34 0 0 Z " fill="#0B0B0B" transform="translate(279,81)"/>
<path d="M0 0 C1.6875 2.0625 1.6875 2.0625 3 4 C1.10614563 4.50744423 -0.79018666 5.00564574 -2.6875 5.5 C-3.74324219 5.7784375 -4.79898438 6.056875 -5.88671875 6.34375 C-8.71142672 6.9391715 -11.12836708 7.12786492 -14 7 C-12.68 6.34 -11.36 5.68 -10 5 C-10.33 3.68 -10.66 2.36 -11 1 C-3.375 -1.125 -3.375 -1.125 0 0 Z " fill="#930B4F" transform="translate(119,154)"/>
<path d="M0 0 C0 0.66 0 1.32 0 2 C-1.85625 1.938125 -1.85625 1.938125 -3.75 1.875 C-12.23709392 1.88838658 -20.38366961 3.19183481 -28 7 C-28 6.01 -28 5.02 -28 4 C-18.55739855 -0.90376645 -10.42911035 -1.51390312 0 0 Z " fill="#EA3070" transform="translate(573,48)"/>
<path d="M0 0 C0 0.99 0 1.98 0 3 C0.66 3.33 1.32 3.66 2 4 C-6.42857143 6.28571429 -6.42857143 6.28571429 -11 6 C-10.67 4.35 -10.34 2.7 -10 1 C-6.52674819 -0.1577506 -3.63932552 -0.06866652 0 0 Z " fill="#930E51" transform="translate(102,158)"/>
<path d="M0 0 C3.07538384 0.21209544 4.07072616 1.06881465 6.3125 3.25 C8 6 8 6 7.75 8.8125 C7.5025 9.534375 7.255 10.25625 7 11 C2.7257442 9.4169423 0.73468206 6.49431596 -2 3 C-1 1 -1 1 0 0 Z " fill="#A11556" transform="translate(73,152)"/>
<path d="M0 0 C3.32701049 3.94087803 5.96142888 8.06984515 8.5625 12.5 C8.94857422 13.15097656 9.33464844 13.80195312 9.73242188 14.47265625 C10.48193436 15.73674033 11.22895028 17.00230891 11.97314453 18.26953125 C12.88581692 19.80757735 13.82946665 21.32714665 14.77734375 22.84375 C16 25 16 25 16 27 C15.34 27 14.68 27 14 27 C12.71899414 25.25927734 12.71899414 25.25927734 11.28515625 22.8359375 C10.76373047 21.96066406 10.24230469 21.08539063 9.70507812 20.18359375 C9.16302734 19.25675781 8.62097656 18.32992187 8.0625 17.375 C7.52431641 16.47136719 6.98613281 15.56773438 6.43164062 14.63671875 C3.78377196 10.16374702 1.23718423 5.69263033 -1 1 C-0.67 0.67 -0.34 0.34 0 0 Z " fill="#0B0B0B" transform="translate(263,101)"/>
<path d="M0 0 C3.9129896 0.54599855 7.50314454 1.10170704 11 3 C11.8125 5.125 11.8125 5.125 12 7 C6.25 7.125 6.25 7.125 4 6 C4 5.34 4 4.68 4 4 C2.68 4 1.36 4 0 4 C0 2.68 0 1.36 0 0 Z " fill="#920F51" transform="translate(106,137)"/>
<path d="M0 0 C7.625 0.875 7.625 0.875 11 2 C11 3.32 11 4.64 11 6 C9.54119891 5.85892253 8.08296449 5.71197585 6.625 5.5625 C5.40683594 5.44068359 5.40683594 5.44068359 4.1640625 5.31640625 C2 5 2 5 0 4 C0 2.68 0 1.36 0 0 Z " fill="#971052" transform="translate(73,125)"/>
<path d="M0 0 C0.66 0 1.32 0 2 0 C1.50862501 6.51071867 1.50862501 6.51071867 -0.74609375 8.6796875 C-5.05894217 11.20610477 -10.32831496 11.47286461 -15.20703125 10.609375 C-16.82775269 10.14725483 -18.41918202 9.58421534 -20 9 C-20 8.34 -20 7.68 -20 7 C-19.38125 7.165 -18.7625 7.33 -18.125 7.5 C-12.44095146 8.40944777 -6.56334284 8.61889422 -1 7 C-0.67 4.69 -0.34 2.38 0 0 Z " fill="#0D0C0D" transform="translate(364,141)"/>
<path d="M0 0 C1.43836751 0.11458693 2.87570966 0.24209116 4.3125 0.375 C5.51326172 0.47941406 5.51326172 0.47941406 6.73828125 0.5859375 C9 1 9 1 12 3 C11.67 3.99 11.34 4.98 11 6 C9.741875 5.87625 8.48375 5.7525 7.1875 5.625 C6.12595703 5.52058594 6.12595703 5.52058594 5.04296875 5.4140625 C3 5 3 5 0 3 C0 2.01 0 1.02 0 0 Z " fill="#910F51" transform="translate(154,80)"/>
<path d="M0 0 C2.58951915 -0.38081164 4.37700361 -0.36329297 6.66796875 0.97265625 C8.3125 2.25 8.3125 2.25 11 5 C11 6.32 11 7.64 11 9 C6.32495629 8.16517077 3.07714545 5.53871727 0 2 C0 1.34 0 0.68 0 0 Z " fill="#960E51" transform="translate(34,102)"/>
<path d="M0 0 C1.32 0 2.64 0 4 0 C4.98248524 4.0527516 5.08159574 7.83861737 5 12 C3.68 11.67 2.36 11.34 1 11 C0.67 7.37 0.34 3.74 0 0 Z " fill="#930F51" transform="translate(128,121)"/>
<path d="M0 0 C0.99 0 1.98 0 3 0 C7.57142857 7.28571429 7.57142857 7.28571429 7 12 C6.01 12 5.02 12 4 12 C3.32332002 10.75539217 2.65905281 9.50403104 2 8.25 C1.62875 7.55390625 1.2575 6.8578125 0.875 6.140625 C0 4 0 4 0 0 Z " fill="#930F51" transform="translate(65,136)"/>
<path d="M0 0 C0.99 0.33 1.98 0.66 3 1 C2.49111733 5.41031645 -0.03449072 7.89327599 -3 11 C-3.99 11 -4.98 11 -6 11 C-5.55530671 5.96014269 -3.28656638 3.62365012 0 0 Z " fill="#8F0F50" transform="translate(162,112)"/>
<path d="M0 0 C0.53625 0.268125 1.0725 0.53625 1.625 0.8125 C0.48780581 4.22408256 -0.41842944 4.93104601 -3.375 6.8125 C-4.035 6.8125 -4.695 6.8125 -5.375 6.8125 C-5.375 7.4725 -5.375 8.1325 -5.375 8.8125 C-6.695 8.8125 -8.015 8.8125 -9.375 8.8125 C-9.12158809 5.39143924 -8.06717816 4.50467816 -5.5625 2 C-2.375 -0.1875 -2.375 -0.1875 0 0 Z " fill="#981052" transform="translate(79.375,102.1875)"/>
<path d="M0 0 C0.804375 0.495 1.60875 0.99 2.4375 1.5 C7.7131316 3.72131857 12.48483359 3.80271268 17.9375 2.0625 C18.618125 1.711875 19.29875 1.36125 20 1 C20.66 0.67 21.32 0.34 22 0 C22 0.99 22 1.98 22 3 C17.35172705 6.09884863 12.14664542 6.37447681 6.63671875 5.71875 C2.70686163 4.85662412 1.28692308 4.43038462 -1 1 C-0.67 0.67 -0.34 0.34 0 0 Z " fill="#0F090B" transform="translate(391,146)"/>
<path d="M0 0 C-0.25317219 3.41782456 -1.28374624 4.27744077 -3.8125 6.75 C-7 9 -7 9 -11 9 C-10.61095461 6.53955077 -10.28572918 5.27840279 -8.4765625 3.515625 C-7.86554688 3.09796875 -7.25453125 2.6803125 -6.625 2.25 C-6.01914063 1.82203125 -5.41328125 1.3940625 -4.7890625 0.953125 C-3 0 -3 0 0 0 Z " fill="#9A1052" transform="translate(95,91)"/>
<path d="M0 0 C3.91593446 0.78318689 7.36406635 2.39179858 11 4 C11 4.99 11 5.98 11 7 C6.43545749 6.45660208 3.0271824 5.20536179 -1 3 C-0.67 2.01 -0.34 1.02 0 0 Z " fill="#930F51" transform="translate(63,43)"/>
<path d="M0 0 C0.99 0 1.98 0 3 0 C2.49202991 4.3177458 1.80317221 8.03302114 0 12 C-0.99 12 -1.98 12 -3 12 C-2.49202991 7.6822542 -1.80317221 3.96697886 0 0 Z " fill="#981656" transform="translate(128,40)"/>
<path d="M0 0 C-0.44469329 5.03985731 -2.71343362 7.37634988 -6 11 C-6.99 10.67 -7.98 10.34 -9 10 C-7.6834994 5.81113445 -4.97532335 0 0 0 Z " fill="#920F51" transform="translate(153,126)"/>
<path d="M0 0 C1.32 0.33 2.64 0.66 4 1 C4.33 4.63 4.66 8.26 5 12 C3.68 11.67 2.36 11.34 1 11 C0.67 7.37 0.34 3.74 0 0 Z " fill="#910F50" transform="translate(125,103)"/>
<path d="M0 0 C3.63 0.66 7.26 1.32 11 2 C11 3.32 11 4.64 11 6 C9.35 6 7.7 6 6 6 C6 5.34 6 4.68 6 4 C4.02 4 2.04 4 0 4 C0 2.68 0 1.36 0 0 Z " fill="#981052" transform="translate(137,75)"/>
<path d="M0 0 C4.05606165 0.46800711 7.46588679 0.87953208 11 3 C11 4.32 11 5.64 11 7 C6.87248551 6.39301257 3.6678852 4.96189209 0 3 C0 2.01 0 1.02 0 0 Z " fill="#991052" transform="translate(79,51)"/>
<path d="M0 0 C0.99 0 1.98 0 3 0 C2.49111733 4.41031645 -0.03449072 6.89327599 -3 10 C-3.99 10 -4.98 10 -6 10 C-5.49111733 5.58968355 -2.96550928 3.10672401 0 0 Z " fill="#8D0E50" transform="translate(173,99)"/>
<path d="M0 0 C-0.25589786 3.45462112 -1.28626163 4.27381547 -3.875 6.75 C-7 9 -7 9 -10 9 C-9.74410214 5.54537888 -8.71373837 4.72618453 -6.125 2.25 C-3 0 -3 0 0 0 Z " fill="#981052" transform="translate(109,80)"/>
<path d="M0 0 C4.12751449 0.60698743 7.3321148 2.03810791 11 4 C11 4.99 11 5.98 11 7 C6.65840504 6.49516338 3.50591348 5.68099266 0 3 C0 2.01 0 1.02 0 0 Z " fill="#981052" transform="translate(95,58)"/>
<path d="M0 0 C0.99 0 1.98 0 3 0 C3.33 3.63 3.66 7.26 4 11 C2.68 11 1.36 11 0 11 C0 7.37 0 3.74 0 0 Z " fill="#940F51" transform="translate(123,86)"/>
<path d="M0 0 C0.66 0.66 1.32 1.32 2 2 C1.21448343 3.31618998 0.4213763 4.62785228 -0.375 5.9375 C-0.81585938 6.66839844 -1.25671875 7.39929688 -1.7109375 8.15234375 C-3 10 -3 10 -5 11 C-7.6723621 11.13415472 -10.32250488 11.04318541 -13 11 C-13 10.01 -13 9.02 -13 8 C-11.39125 8.37125 -11.39125 8.37125 -9.75 8.75 C-6.04248912 9.39147299 -6.04248912 9.39147299 -3.6875 7.375 C-1.98312815 4.97625443 -0.92825794 2.78477381 0 0 Z " fill="#0C0B0C" transform="translate(297,173)"/>
<path d="M0 0 C0.66 0 1.32 0 2 0 C2.125 7.75 2.125 7.75 1 10 C0.01 10 -0.98 10 -2 10 C-2.25 3.375 -2.25 3.375 0 0 Z " fill="#981756" transform="translate(132,25)"/>
<path d="M0 0 C3.71888239 0.50712033 6.73454239 1.11608215 10 3 C10 3.99 10 4.98 10 6 C6.44219804 5.39009109 3.3171411 4.4216319 0 3 C0 2.01 0 1.02 0 0 Z " fill="#8C0E4F" transform="translate(90,131)"/>
<path d="M0 0 C5.5 -0.36666667 5.5 -0.36666667 7.875 1.375 C9 3 9 3 9 5 C6.36 4.67 3.72 4.34 1 4 C0.67 2.68 0.34 1.36 0 0 Z " fill="#8F0F50" transform="translate(171,85)"/>
<path d="M0 0 C0.598125 0.598125 1.19625 1.19625 1.8125 1.8125 C6.22045242 4.83756539 10.83777849 5.80663181 16 7 C16 7.33 16 7.66 16 8 C10.9183218 8.20741544 6.80566706 7.69611779 2 6 C1.34 5.34 0.68 4.68 0 4 C0 2.68 0 1.36 0 0 Z " fill="#0D0C0D" transform="translate(196,144)"/>
<path d="M0 0 C3.3 0 6.6 0 10 0 C10 0.66 10 1.32 10 2 C6.7 2.66 3.4 3.32 0 4 C0 2.68 0 1.36 0 0 Z " fill="#8D0F50" transform="translate(142,147)"/>
<path d="M0 0 C4.29 1.32 8.58 2.64 13 4 C13 4.99 13 5.98 13 7 C8.71 5.68 4.42 4.36 0 3 C0 2.01 0 1.02 0 0 Z " fill="#E9296B" transform="translate(574,48)"/>
<path d="M0 0 C0.33 0 0.66 0 1 0 C1 1.98 1 3.96 1 6 C-2.63 6.33 -6.26 6.66 -10 7 C-7.96153279 5.64102186 -5.91973686 4.28702633 -3.875 2.9375 C-1.21312042 1.27685736 -1.21312042 1.27685736 0 0 Z " fill="#AC1457" transform="translate(140,147)"/>
<path d="M0 0 C3.82946843 1.45255699 5.12050295 3.42895561 7 7 C5.02 7.99 5.02 7.99 3 9 C0 3.375 0 3.375 0 0 Z " fill="#CC2464" transform="translate(138,28)"/>
<path d="M0 0 C2.75457718 0.37994168 3.82020574 0.8073633 5.75 2.875 C7 5 7 5 7 8 C3.64379729 6.61122646 1.92701272 5.08322035 0 2 C0 1.34 0 0.68 0 0 Z " fill="#900F50" transform="translate(74,153)"/>
<path d="M0 0 C0 0.99 0 1.98 0 3 C-2.97 3 -5.94 3 -9 3 C-9.33 2.34 -9.66 1.68 -10 1 C-6.61981469 -0.04005702 -3.5219721 -0.08004482 0 0 Z " fill="#232323" transform="translate(357,77)"/>
<path d="M0 0 C0.86625 0.61875 1.7325 1.2375 2.625 1.875 C5.75628186 3.84654784 8.46384469 4.98966991 12 6 C12 6.66 12 7.32 12 8 C7.15409462 7.55946315 3.51858133 5.25494123 0 2 C0 1.34 0 0.68 0 0 Z " fill="#E90C55" transform="translate(539,99)"/>
<path d="M0 0 C0.66 0 1.32 0 2 0 C2.83848804 1.45537568 3.67063934 2.91440373 4.5 4.375 C5.19609375 5.59316406 5.19609375 5.59316406 5.90625 6.8359375 C7 9 7 9 7 11 C6.34 11 5.68 11 5 11 C4.16151196 9.54462432 3.32936066 8.08559627 2.5 6.625 C1.80390625 5.40683594 1.80390625 5.40683594 1.09375 4.1640625 C0 2 0 2 0 0 Z " fill="#0D0D0D" transform="translate(279,129)"/>
<path d="M0 0 C0 0.99 0 1.98 0 3 C-2.31 2.67 -4.62 2.34 -7 2 C-7.33 3.32 -7.66 4.64 -8 6 C-8 4.35 -8 2.7 -8 1 C-4.93251126 -0.86240388 -3.40254489 -1.2151946 0 0 Z " fill="#A51254" transform="translate(131,73)"/>
<path d="M0 0 C0 0.66 0 1.32 0 2 C-1.53125 3.2890625 -1.53125 3.2890625 -3.5 4.625 C-4.1496875 5.07101563 -4.799375 5.51703125 -5.46875 5.9765625 C-5.9740625 6.31429687 -6.479375 6.65203125 -7 7 C-7.66 6.67 -8.32 6.34 -9 6 C-8.07213211 4.99105628 -7.13231567 3.99309093 -6.1875 3 C-5.66542969 2.443125 -5.14335937 1.88625 -4.60546875 1.3125 C-3 0 -3 0 0 0 Z " fill="#201F1F" transform="translate(265,79)"/>
<path d="M0 0 C6.75 0.75 6.75 0.75 9 3 C5.23375329 4.25541557 3.62811066 3.37061958 0 2 C0 1.34 0 0.68 0 0 Z " fill="#262425" transform="translate(386,78)"/>
<path d="M0 0 C0.99 0 1.98 0 3 0 C2.55090939 1.48199902 2.09043436 2.96055236 1.625 4.4375 C1.36976563 5.26121094 1.11453125 6.08492188 0.8515625 6.93359375 C0 9 0 9 -2 10 C-1.34 6.7 -0.68 3.4 0 0 Z " fill="#A30851" transform="translate(176,100)"/>
</svg>
