<?xml version="1.0" encoding="UTF-8"?>
<svg version="1.1" xmlns="http://www.w3.org/2000/svg" width="1024" height="1024">
<path d="M0 0 C0.82435547 0.25507324 1.64871094 0.51014648 2.49804688 0.77294922 C20.8633702 6.51812235 38.71754073 13.53831642 56 22 C56.63325195 22.30905273 57.26650391 22.61810547 57.91894531 22.93652344 C62.6354656 25.24670369 67.32333066 27.61030938 72 30 C72.72574219 30.36915527 73.45148438 30.73831055 74.19921875 31.11865234 C82.89933078 35.56170694 91.18784206 40.09465576 99 46 C100.2335867 46.9060222 101.46803611 47.8108704 102.703125 48.71484375 C113.76440565 56.85593565 124.58815151 65.24566447 134.14453125 75.1484375 C136.79360785 77.79193709 139.64861746 80.17097213 142.53125 82.5546875 C143.0159375 83.03164063 143.500625 83.50859375 144 84 C144 84.66 144 85.32 144 86 C144.99 86.33 145.98 86.66 147 87 C148.578125 88.6015625 148.578125 88.6015625 150.25 90.625 C152.48377215 93.26829704 154.73223266 95.75248847 157.25 98.125 C162.27253406 103.05724131 166.40447967 108.75946802 170.69384766 114.32226562 C172.46690503 116.59973297 174.29676855 118.82921128 176.125 121.0625 C180.27336206 126.24584894 184.06612633 131.65394678 187.76416016 137.16357422 C188.61247446 138.42414715 189.46664011 139.68079612 190.32568359 140.93408203 C197.31481681 151.14820455 202.94229906 161.57239725 208.01416016 172.85546875 C209.30458987 175.66258479 210.69112065 178.41635944 212.08227539 181.17456055 C225.20213499 207.27117939 231.28348121 237.3269312 235.9375 266 C236.05391846 266.71599365 236.17033691 267.4319873 236.2902832 268.16967773 C236.9831945 272.83708756 237.03203913 277.29848689 237 282 C237.82827805 281.99333817 238.65655609 281.98667633 239.50993347 281.97981262 C247.32261708 281.91965609 255.1352227 281.87400253 262.94808483 281.84456348 C266.96459536 281.82891965 270.98091422 281.80770508 274.99731445 281.77368164 C278.87470186 281.74104203 282.75190512 281.72313733 286.62941933 281.71536827 C288.10738333 281.70983299 289.58533746 281.69902381 291.06322289 281.68280983 C293.13636282 281.66097359 295.20874564 281.65803554 297.28198242 281.65942383 C298.46112717 281.65276199 299.64027191 281.64610016 300.85514832 281.63923645 C304.3355933 282.03849779 306.19682951 282.94119311 309 285 C312.79587535 290.0917482 311.39493473 297.96132065 311 304 C309.87769741 310.57057152 306.25709953 315.04094974 301 319 C286.09175233 328.01959351 270.80992178 328.16557199 253.875 328.0625 C252.42708489 328.05747252 250.97916808 328.05291183 249.53125 328.04882812 C246.02079741 328.03792705 242.51040993 328.02073202 239 328 C238.97812622 328.88014771 238.97812622 328.88014771 238.95581055 329.77807617 C237.90617671 367.98400606 230.6780769 408.72099897 214.98632812 443.78173828 C213.90786418 446.20721438 212.86852734 448.64781356 211.828125 451.08984375 C198.91524219 480.92008417 180.91037466 509.58795631 158.5234375 533.2578125 C156.15394484 535.83271009 154.01642046 538.48502415 151.875 541.25 C130.95554104 567.18414143 101.13544719 588.30775038 72 604 C71.20851563 604.42925781 70.41703125 604.85851562 69.6015625 605.30078125 C48.37664427 616.77281649 27.21770379 626.29725842 4 633 C3.16355957 633.24588867 2.32711914 633.49177734 1.46533203 633.74511719 C-9.63373508 636.95421021 -20.91607943 638.9415598 -32.3125 640.75 C-32.98064728 640.85718353 -33.64879456 640.96436707 -34.33718872 641.07479858 C-51.5632722 643.80723376 -68.60073247 644.23997591 -86 644.25 C-87.05736359 644.25067474 -88.11472717 644.25134949 -89.20413208 644.25204468 C-115.6582938 644.22534674 -141.17526703 642.07967033 -167 636 C-167.98436035 635.76909668 -168.9687207 635.53819336 -169.98291016 635.30029297 C-195.87886421 629.11434433 -221.14909381 619.84862907 -245 608 C-245.72509766 607.64212402 -246.45019531 607.28424805 -247.19726562 606.91552734 C-271.32244266 594.90883119 -291.64232404 579.45616015 -311.02392578 560.87890625 C-313.83139868 558.20948304 -316.69332424 555.60269602 -319.5625 553 C-326.94389625 546.24210043 -333.63990462 539.40354193 -339.91015625 531.58984375 C-341.58580995 529.51328599 -343.29502974 527.49738509 -345.0625 525.5 C-348.26163196 521.798525 -351.08978777 517.8460254 -353.9375 513.87109375 C-355.25395066 512.0385346 -356.58584448 510.21690547 -357.9375 508.41015625 C-388.9051521 466.89102591 -409.94768322 416.30254722 -417 365 C-417.10892578 364.2687793 -417.21785156 363.53755859 -417.33007812 362.78417969 C-425.42699097 307.91359108 -417.98662734 246.09365801 -396.78466797 194.92675781 C-395.60027216 192.01846543 -394.52704043 189.06989204 -393.4375 186.125 C-391.03183013 179.85925201 -388.07699913 173.95776108 -385 168 C-384.01980394 166.0005043 -383.04063917 164.00050272 -382.0625 162 C-368.10072038 134.1846716 -348.593829 109.2689878 -327 87 C-326.34032227 86.3184082 -325.68064453 85.63681641 -325.00097656 84.93457031 C-317.03581095 76.74236911 -309.01572886 69.03199489 -300 62 C-298.16427856 60.48205008 -296.33098058 58.96116508 -294.5 57.4375 C-289.148421 53.06855556 -283.65914836 48.96140385 -278 45 C-276.9378125 44.25234375 -275.875625 43.5046875 -274.78125 42.734375 C-256.96257559 30.41077913 -237.86875078 20.55282982 -218 12 C-216.86304688 11.49984375 -215.72609375 10.9996875 -214.5546875 10.484375 C-150.06210111 -17.28082568 -67.23522899 -21.05830657 0 0 Z M-50 40 C-50 40.66 -50 41.32 -50 42 C-48.58100799 42.96778207 -47.15683862 43.92891297 -45.70654297 44.84912109 C-42.92046975 46.72802655 -40.50664101 49.01957579 -38.0625 51.3125 C-37.53672363 51.80250488 -37.01094727 52.29250977 -36.46923828 52.79736328 C-34.97566486 54.19416089 -33.48765154 55.596897 -32 57 C-31.34644531 57.59941406 -30.69289063 58.19882813 -30.01953125 58.81640625 C-24.28542216 64.25087069 -19.67394344 70.66179051 -15 77 C-14.44183594 77.75152344 -13.88367188 78.50304687 -13.30859375 79.27734375 C-8.32494412 86.35222511 -4.71414663 94.21352538 -1 102 C-0.67241699 102.67111816 -0.34483398 103.34223633 -0.00732422 104.03369141 C18.82712602 142.80056433 25.37313728 186.68204571 30.25 229.125 C30.40098145 230.40487793 30.55196289 231.68475586 30.70751953 233.00341797 C32.47123003 249.31028362 33.06203286 265.58557499 34 282 C111.715 282.495 111.715 282.495 191 283 C188.57447055 264.61962515 188.57447055 264.61962515 184.8125 246.625 C184.51351807 245.41312012 184.21453613 244.20124023 183.90649414 242.95263672 C180.90034835 231.08173721 177.17515487 219.50680723 173 208 C172.74395996 207.28215332 172.48791992 206.56430664 172.22412109 205.82470703 C161.2187454 175.28271513 141.58648564 149.63303348 119.73413086 126.06225586 C117.31335099 123.4497662 114.96165506 120.80329987 112.6875 118.0625 C110.06766045 114.95332261 107.16092452 112.5556411 104 110 C101.78467451 107.84147773 99.61924719 105.64404088 97.47558594 103.41455078 C93.4620715 99.30414231 89.29955474 95.67056337 84.6875 92.25 C84.00163818 91.73977295 83.31577637 91.2295459 82.60913086 90.70385742 C43.76204999 62.28846475 -2.3407661 45.46909241 -50 40 Z M-179 48 C-179.73508789 48.2057666 -180.47017578 48.4115332 -181.22753906 48.62353516 C-195.56226688 52.71221262 -208.73129883 59.29884519 -222 66 C-222.77601563 66.39010254 -223.55203125 66.78020508 -224.3515625 67.18212891 C-246.984874 78.64183227 -268.57088233 93.97826518 -286.23828125 112.23828125 C-287.94060906 113.94060906 -289.70494651 115.47049127 -291.5625 117 C-294.78475943 119.70465667 -297.48519969 122.6895441 -300.203125 125.89453125 C-301.98255248 127.97955605 -303.82969499 129.98481895 -305.6875 132 C-321.92285967 150.30395762 -334.14408419 171.19054323 -345 193 C-345.40412109 193.81098145 -345.80824219 194.62196289 -346.22460938 195.45751953 C-350.31360159 203.73227442 -353.92848011 212.00566154 -356.89453125 220.75390625 C-357.68045678 223.06169465 -358.52998051 225.34824712 -359.421875 227.6171875 C-361.50643606 233.14769595 -362.95702934 238.84635146 -364.4375 244.5625 C-364.74316895 245.74255615 -365.04883789 246.9226123 -365.36376953 248.13842773 C-369.9140835 266.12868603 -373.14600697 284.25593813 -373.16796875 302.84375 C-373.17129715 303.85232056 -373.17462555 304.86089111 -373.17805481 305.90002441 C-373.18308778 308.02449085 -373.18546427 310.1489651 -373.18530273 312.2734375 C-373.18747527 315.46368031 -373.20563194 318.65356877 -373.22460938 321.84375 C-373.26793661 337.37173126 -372.43863372 352.57338171 -369.25 367.8125 C-368.99730347 369.04141968 -368.99730347 369.04141968 -368.73950195 370.29516602 C-359.19230141 415.09683985 -339.97115828 460.77127876 -309 495 C-307.42734202 496.92926395 -305.8644864 498.86656816 -304.3125 500.8125 C-301.05539348 504.81856685 -297.63310747 508.48916819 -293.921875 512.07421875 C-291.25395545 514.7475609 -288.85095266 517.62210377 -286.4453125 520.53125 C-285.96835937 521.0159375 -285.49140625 521.500625 -285 522 C-284.34 522 -283.68 522 -283 522 C-282.505 523.485 -282.505 523.485 -282 525 C-280.47930027 526.58016767 -280.47930027 526.58016767 -278.5625 528.125 C-276.28815765 530.04360163 -274.04414708 531.95837329 -271.87890625 534 C-255.22253128 549.70375734 -235.00639348 562.05549684 -214 571 C-212.52596625 571.64175388 -211.05201367 572.28369424 -209.578125 572.92578125 C-182.76007184 584.51386284 -148.67048381 598.61105596 -119.6640625 587.6171875 C-109.44409346 583.23563004 -99.82960798 577.77320091 -91 571 C-90.08476562 570.30003906 -89.16953125 569.60007812 -88.2265625 568.87890625 C-64.29784253 549.96538375 -48.86747736 519.40030287 -39 491 C-38.71769531 490.20464844 -38.43539063 489.40929687 -38.14453125 488.58984375 C-33.53337655 475.56182153 -29.84238661 462.52189705 -27 449 C-26.86744812 448.37140076 -26.73489624 447.74280151 -26.59832764 447.09515381 C-20.67463663 418.91295039 -16.58769993 390.77286105 -14.25 362.0625 C-14.18470093 361.27361389 -14.11940186 360.48472778 -14.05212402 359.67193604 C-13.86528072 357.37688744 -13.6886439 355.08128484 -13.515625 352.78515625 C-13.41540039 351.47426025 -13.31517578 350.16336426 -13.21191406 348.81274414 C-12.90671935 341.88151905 -13 334.93794099 -13 328 C-63.82 328 -114.64 328 -167 328 C-161.53353398 310.50730874 -156.57380152 297.87722883 -140 289.0625 C-128.25344886 283.80257283 -116.30112857 282.87518618 -103.59326172 282.79467773 C-102.60669083 282.78477814 -101.62011993 282.77487854 -100.60365295 282.76467896 C-97.37902127 282.73337398 -94.15437492 282.70843062 -90.9296875 282.68359375 C-88.67953127 282.66299737 -86.42937867 282.64200024 -84.17922974 282.62062073 C-78.28404706 282.56567709 -72.38883108 282.51614669 -66.49359131 282.46777344 C-60.4670519 282.4173549 -54.44056028 282.36177553 -48.4140625 282.30664062 C-36.60941592 282.19939843 -24.80472767 282.09787943 -13 282 C-12.9858592 278.36629635 -12.9774458 274.73259994 -12.9699707 271.09887695 C-12.963932 269.57381908 -12.963932 269.57381908 -12.9577713 268.01795197 C-12.94343977 258.6990747 -13.42910873 249.47192359 -14.1875 240.1875 C-14.25246674 239.36803894 -14.31743347 238.54857788 -14.3843689 237.70428467 C-16.46972209 211.74470643 -20.0865678 186.15096942 -27 161 C-27.37342529 159.63584961 -27.37342529 159.63584961 -27.75439453 158.24414062 C-35.77986768 129.36289392 -47.8276894 98.77019977 -69 77 C-69.79664063 76.12988281 -70.59328125 75.25976562 -71.4140625 74.36328125 C-88.01542363 56.78389432 -112.0351488 42.04440067 -136.7421875 40.93359375 C-151.28836001 41.23009847 -165.05486397 43.99013488 -179 48 Z M33 328 C32.34 340.21 31.68 352.42 31 365 C30.48347671 371.5175848 29.95441237 378.00485496 29.25 384.5 C29.16729858 385.28165527 29.08459717 386.06331055 28.99938965 386.86865234 C25.91194716 415.7959896 21.10886359 444.03238536 13 472 C12.79848328 472.70316345 12.59696655 473.4063269 12.38934326 474.13079834 C6.52481041 494.58742411 -0.26624311 514.000939 -10 533 C-10.73669922 534.45865479 -10.73669922 534.45865479 -11.48828125 535.94677734 C-21.56616413 555.74689222 -35.46013038 581.29556795 -56 592 C-55.505 593.485 -55.505 593.485 -55 595 C-49.23410656 594.15136641 -43.47127962 593.28489188 -37.70996094 592.40576172 C-35.31117604 592.0465923 -32.9107331 591.70894203 -30.5078125 591.37890625 C5.35530543 586.23272133 39.25261891 571.29755514 69 551 C69.71671875 550.51917969 70.4334375 550.03835938 71.171875 549.54296875 C80.21552576 543.46576372 88.52835223 537.07757035 96.36328125 529.49609375 C99 527 99 527 101.35546875 525.28515625 C102.16951172 524.64900391 102.16951172 524.64900391 103 524 C103 523.34 103 522.68 103 522 C103.58177002 521.74275146 104.16354004 521.48550293 104.76293945 521.22045898 C107.19883526 519.8915227 108.82978378 518.42885569 110.79296875 516.47265625 C111.50114746 515.76866699 112.20932617 515.06467773 112.93896484 514.33935547 C113.68098145 513.58799316 114.42299805 512.83663086 115.1875 512.0625 C115.95271973 511.2905127 116.71793945 510.51852539 117.50634766 509.72314453 C123.05903843 504.06882971 128.23222063 498.33947828 133 492 C133.45101074 491.40413086 133.90202148 490.80826172 134.36669922 490.19433594 C135.85722844 488.21915005 137.33742289 486.23674904 138.8125 484.25 C139.26931152 483.63560059 139.72612305 483.02120117 140.19677734 482.38818359 C143.11345656 478.39699502 145.58756801 474.31405552 148 470 C148.98933109 468.47220485 149.98914963 466.95114314 151 465.4375 C160.20479231 451.01533618 167.83917461 435.94263729 174 420 C174.48597656 418.89527344 174.97195313 417.79054688 175.47265625 416.65234375 C183.98870031 396.28789055 188.22647307 374.50131194 191.3125 352.75 C191.57003052 350.94776978 191.57003052 350.94776978 191.83276367 349.10913086 C191.98720947 347.95421143 192.14165527 346.79929199 192.30078125 345.609375 C192.43653564 344.59842773 192.57229004 343.58748047 192.7121582 342.54589844 C193.10453712 337.71221611 193 332.84958205 193 328 C140.2 328 87.4 328 33 328 Z " fill="#010101" transform="translate(602,196)"/>
</svg>
